<mxfile host="app.diagrams.net" modified="2021-11-21T17:17:59.831Z" agent="5.0 (Windows NT 10.0; Win64; x64) AppleWebKit/537.36 (KHTML, like Gecko) Chrome/96.0.4664.45 Safari/537.36" etag="3Q_er8mpm1bmMACvKXx_" version="15.7.4" type="github" pages="5">
  <diagram id="RgkKrcsPgawT_rw4uSp9" name="Class UML">
    <mxGraphModel dx="5355" dy="934" grid="1" gridSize="10" guides="1" tooltips="1" connect="1" arrows="1" fold="1" page="1" pageScale="1" pageWidth="850" pageHeight="1100" math="0" shadow="0">
      <root>
        <mxCell id="0" />
        <mxCell id="1" parent="0" />
        <mxCell id="GeVHQDl4KtZDKLTdlYc9-1" value="&lt;&lt;interface&gt;&gt;&#xa;Square" style="swimlane;fontStyle=1;align=center;verticalAlign=top;childLayout=stackLayout;horizontal=1;startSize=40;horizontalStack=0;resizeParent=1;resizeParentMax=0;resizeLast=0;collapsible=1;marginBottom=0;" vertex="1" parent="1">
          <mxGeometry x="-350" y="344" width="200" height="282" as="geometry" />
        </mxCell>
        <mxCell id="GeVHQDl4KtZDKLTdlYc9-2" value="" style="line;strokeWidth=1;fillColor=none;align=left;verticalAlign=middle;spacingTop=-1;spacingLeft=3;spacingRight=3;rotatable=0;labelPosition=right;points=[];portConstraint=eastwest;" vertex="1" parent="GeVHQDl4KtZDKLTdlYc9-1">
          <mxGeometry y="40" width="200" height="8" as="geometry" />
        </mxCell>
        <mxCell id="GeVHQDl4KtZDKLTdlYc9-3" value="+ position(): int" style="text;strokeColor=none;fillColor=none;align=left;verticalAlign=top;spacingLeft=4;spacingRight=4;overflow=hidden;rotatable=0;points=[[0,0.5],[1,0.5]];portConstraint=eastwest;" vertex="1" parent="GeVHQDl4KtZDKLTdlYc9-1">
          <mxGeometry y="48" width="200" height="26" as="geometry" />
        </mxCell>
        <mxCell id="GeVHQDl4KtZDKLTdlYc9-4" value="+ name(): String" style="text;strokeColor=none;fillColor=none;align=left;verticalAlign=top;spacingLeft=4;spacingRight=4;overflow=hidden;rotatable=0;points=[[0,0.5],[1,0.5]];portConstraint=eastwest;" vertex="1" parent="GeVHQDl4KtZDKLTdlYc9-1">
          <mxGeometry y="74" width="200" height="26" as="geometry" />
        </mxCell>
        <mxCell id="GeVHQDl4KtZDKLTdlYc9-5" value="+ isOwnable(): boolean" style="text;strokeColor=none;fillColor=none;align=left;verticalAlign=top;spacingLeft=4;spacingRight=4;overflow=hidden;rotatable=0;points=[[0,0.5],[1,0.5]];portConstraint=eastwest;" vertex="1" parent="GeVHQDl4KtZDKLTdlYc9-1">
          <mxGeometry y="100" width="200" height="26" as="geometry" />
        </mxCell>
        <mxCell id="GeVHQDl4KtZDKLTdlYc9-6" value="+ isOwned(): boolean" style="text;strokeColor=none;fillColor=none;align=left;verticalAlign=top;spacingLeft=4;spacingRight=4;overflow=hidden;rotatable=0;points=[[0,0.5],[1,0.5]];portConstraint=eastwest;" vertex="1" parent="GeVHQDl4KtZDKLTdlYc9-1">
          <mxGeometry y="126" width="200" height="26" as="geometry" />
        </mxCell>
        <mxCell id="GeVHQDl4KtZDKLTdlYc9-7" value="+ cost(): int" style="text;strokeColor=none;fillColor=none;align=left;verticalAlign=top;spacingLeft=4;spacingRight=4;overflow=hidden;rotatable=0;points=[[0,0.5],[1,0.5]];portConstraint=eastwest;" vertex="1" parent="GeVHQDl4KtZDKLTdlYc9-1">
          <mxGeometry y="152" width="200" height="26" as="geometry" />
        </mxCell>
        <mxCell id="GeVHQDl4KtZDKLTdlYc9-8" value="+ purchase(player: Player): void" style="text;strokeColor=none;fillColor=none;align=left;verticalAlign=top;spacingLeft=4;spacingRight=4;overflow=hidden;rotatable=0;points=[[0,0.5],[1,0.5]];portConstraint=eastwest;" vertex="1" parent="GeVHQDl4KtZDKLTdlYc9-1">
          <mxGeometry y="178" width="200" height="26" as="geometry" />
        </mxCell>
        <mxCell id="GeVHQDl4KtZDKLTdlYc9-9" value="+ rent(value: int): int" style="text;strokeColor=none;fillColor=none;align=left;verticalAlign=top;spacingLeft=4;spacingRight=4;overflow=hidden;rotatable=0;points=[[0,0.5],[1,0.5]];portConstraint=eastwest;" vertex="1" parent="GeVHQDl4KtZDKLTdlYc9-1">
          <mxGeometry y="204" width="200" height="26" as="geometry" />
        </mxCell>
        <mxCell id="GeVHQDl4KtZDKLTdlYc9-10" value="+ owner(): Player" style="text;strokeColor=none;fillColor=none;align=left;verticalAlign=top;spacingLeft=4;spacingRight=4;overflow=hidden;rotatable=0;points=[[0,0.5],[1,0.5]];portConstraint=eastwest;" vertex="1" parent="GeVHQDl4KtZDKLTdlYc9-1">
          <mxGeometry y="230" width="200" height="26" as="geometry" />
        </mxCell>
        <mxCell id="GeVHQDl4KtZDKLTdlYc9-11" value="+ toString(): String" style="text;strokeColor=none;fillColor=none;align=left;verticalAlign=top;spacingLeft=4;spacingRight=4;overflow=hidden;rotatable=0;points=[[0,0.5],[1,0.5]];portConstraint=eastwest;" vertex="1" parent="GeVHQDl4KtZDKLTdlYc9-1">
          <mxGeometry y="256" width="200" height="26" as="geometry" />
        </mxCell>
        <mxCell id="GeVHQDl4KtZDKLTdlYc9-12" style="edgeStyle=orthogonalEdgeStyle;rounded=0;orthogonalLoop=1;jettySize=auto;html=1;exitX=1;exitY=0.5;exitDx=0;exitDy=0;" edge="1" parent="GeVHQDl4KtZDKLTdlYc9-1" source="GeVHQDl4KtZDKLTdlYc9-6" target="GeVHQDl4KtZDKLTdlYc9-6">
          <mxGeometry relative="1" as="geometry" />
        </mxCell>
        <mxCell id="GeVHQDl4KtZDKLTdlYc9-13" value="&lt;&lt;interface&gt;&gt;&#xa;Dice" style="swimlane;fontStyle=1;align=center;verticalAlign=top;childLayout=stackLayout;horizontal=1;startSize=40;horizontalStack=0;resizeParent=1;resizeParentMax=0;resizeLast=0;collapsible=1;marginBottom=0;" vertex="1" parent="1">
          <mxGeometry x="-2380" y="709" width="200" height="152" as="geometry" />
        </mxCell>
        <mxCell id="GeVHQDl4KtZDKLTdlYc9-14" value="" style="line;strokeWidth=1;fillColor=none;align=left;verticalAlign=middle;spacingTop=-1;spacingLeft=3;spacingRight=3;rotatable=0;labelPosition=right;points=[];portConstraint=eastwest;" vertex="1" parent="GeVHQDl4KtZDKLTdlYc9-13">
          <mxGeometry y="40" width="200" height="8" as="geometry" />
        </mxCell>
        <mxCell id="GeVHQDl4KtZDKLTdlYc9-15" value="+ getNumDice(): int" style="text;strokeColor=none;fillColor=none;align=left;verticalAlign=top;spacingLeft=4;spacingRight=4;overflow=hidden;rotatable=0;points=[[0,0.5],[1,0.5]];portConstraint=eastwest;" vertex="1" parent="GeVHQDl4KtZDKLTdlYc9-13">
          <mxGeometry y="48" width="200" height="26" as="geometry" />
        </mxCell>
        <mxCell id="GeVHQDl4KtZDKLTdlYc9-16" value="+ getNumSides(): int" style="text;strokeColor=none;fillColor=none;align=left;verticalAlign=top;spacingLeft=4;spacingRight=4;overflow=hidden;rotatable=0;points=[[0,0.5],[1,0.5]];portConstraint=eastwest;" vertex="1" parent="GeVHQDl4KtZDKLTdlYc9-13">
          <mxGeometry y="74" width="200" height="26" as="geometry" />
        </mxCell>
        <mxCell id="GeVHQDl4KtZDKLTdlYc9-17" value="+ rollDice(): Roll" style="text;strokeColor=none;fillColor=none;align=left;verticalAlign=top;spacingLeft=4;spacingRight=4;overflow=hidden;rotatable=0;points=[[0,0.5],[1,0.5]];portConstraint=eastwest;" vertex="1" parent="GeVHQDl4KtZDKLTdlYc9-13">
          <mxGeometry y="100" width="200" height="26" as="geometry" />
        </mxCell>
        <mxCell id="GeVHQDl4KtZDKLTdlYc9-18" value="+ Roll: class" style="text;strokeColor=none;fillColor=none;align=left;verticalAlign=top;spacingLeft=4;spacingRight=4;overflow=hidden;rotatable=0;points=[[0,0.5],[1,0.5]];portConstraint=eastwest;" vertex="1" parent="GeVHQDl4KtZDKLTdlYc9-13">
          <mxGeometry y="126" width="200" height="26" as="geometry" />
        </mxCell>
        <mxCell id="GeVHQDl4KtZDKLTdlYc9-19" value="&lt;&lt;interface&gt;&gt;&#xa;Player" style="swimlane;fontStyle=1;align=center;verticalAlign=top;childLayout=stackLayout;horizontal=1;startSize=40;horizontalStack=0;resizeParent=1;resizeParentMax=0;resizeLast=0;collapsible=1;marginBottom=0;" vertex="1" parent="1">
          <mxGeometry x="-3060" y="371" width="370" height="438" as="geometry" />
        </mxCell>
        <mxCell id="GeVHQDl4KtZDKLTdlYc9-20" value="" style="line;strokeWidth=1;fillColor=none;align=left;verticalAlign=middle;spacingTop=-1;spacingLeft=3;spacingRight=3;rotatable=0;labelPosition=right;points=[];portConstraint=eastwest;" vertex="1" parent="GeVHQDl4KtZDKLTdlYc9-19">
          <mxGeometry y="40" width="370" height="8" as="geometry" />
        </mxCell>
        <mxCell id="GeVHQDl4KtZDKLTdlYc9-21" value="+ move(numTiles: int): void" style="text;strokeColor=none;fillColor=none;align=left;verticalAlign=top;spacingLeft=4;spacingRight=4;overflow=hidden;rotatable=0;points=[[0,0.5],[1,0.5]];portConstraint=eastwest;" vertex="1" parent="GeVHQDl4KtZDKLTdlYc9-19">
          <mxGeometry y="48" width="370" height="26" as="geometry" />
        </mxCell>
        <mxCell id="GeVHQDl4KtZDKLTdlYc9-22" value="+ moveTo(position: int): void" style="text;strokeColor=none;fillColor=none;align=left;verticalAlign=top;spacingLeft=4;spacingRight=4;overflow=hidden;rotatable=0;points=[[0,0.5],[1,0.5]];portConstraint=eastwest;" vertex="1" parent="GeVHQDl4KtZDKLTdlYc9-19">
          <mxGeometry y="74" width="370" height="26" as="geometry" />
        </mxCell>
        <mxCell id="GeVHQDl4KtZDKLTdlYc9-23" value="+ getPosition(): int" style="text;strokeColor=none;fillColor=none;align=left;verticalAlign=top;spacingLeft=4;spacingRight=4;overflow=hidden;rotatable=0;points=[[0,0.5],[1,0.5]];portConstraint=eastwest;" vertex="1" parent="GeVHQDl4KtZDKLTdlYc9-19">
          <mxGeometry y="100" width="370" height="26" as="geometry" />
        </mxCell>
        <mxCell id="GeVHQDl4KtZDKLTdlYc9-24" value="+ setInJail(bool: boolean): void" style="text;strokeColor=none;fillColor=none;align=left;verticalAlign=top;spacingLeft=4;spacingRight=4;overflow=hidden;rotatable=0;points=[[0,0.5],[1,0.5]];portConstraint=eastwest;" vertex="1" parent="GeVHQDl4KtZDKLTdlYc9-19">
          <mxGeometry y="126" width="370" height="26" as="geometry" />
        </mxCell>
        <mxCell id="GeVHQDl4KtZDKLTdlYc9-25" value="+ properties(): Collection&lt;Square&gt;" style="text;strokeColor=none;fillColor=none;align=left;verticalAlign=top;spacingLeft=4;spacingRight=4;overflow=hidden;rotatable=0;points=[[0,0.5],[1,0.5]];portConstraint=eastwest;" vertex="1" parent="GeVHQDl4KtZDKLTdlYc9-19">
          <mxGeometry y="152" width="370" height="26" as="geometry" />
        </mxCell>
        <mxCell id="GeVHQDl4KtZDKLTdlYc9-26" value="+ name(): String" style="text;strokeColor=none;fillColor=none;align=left;verticalAlign=top;spacingLeft=4;spacingRight=4;overflow=hidden;rotatable=0;points=[[0,0.5],[1,0.5]];portConstraint=eastwest;" vertex="1" parent="GeVHQDl4KtZDKLTdlYc9-19">
          <mxGeometry y="178" width="370" height="26" as="geometry" />
        </mxCell>
        <mxCell id="GeVHQDl4KtZDKLTdlYc9-27" value="+ getMoney(): int" style="text;strokeColor=none;fillColor=none;align=left;verticalAlign=top;spacingLeft=4;spacingRight=4;overflow=hidden;rotatable=0;points=[[0,0.5],[1,0.5]];portConstraint=eastwest;" vertex="1" parent="GeVHQDl4KtZDKLTdlYc9-19">
          <mxGeometry y="204" width="370" height="26" as="geometry" />
        </mxCell>
        <mxCell id="GeVHQDl4KtZDKLTdlYc9-28" value="+ exchangeMoney(money: int): void" style="text;strokeColor=none;fillColor=none;align=left;verticalAlign=top;spacingLeft=4;spacingRight=4;overflow=hidden;rotatable=0;points=[[0,0.5],[1,0.5]];portConstraint=eastwest;" vertex="1" parent="GeVHQDl4KtZDKLTdlYc9-19">
          <mxGeometry y="230" width="370" height="26" as="geometry" />
        </mxCell>
        <mxCell id="GeVHQDl4KtZDKLTdlYc9-29" value="+ addProperty(square: Square): void" style="text;strokeColor=none;fillColor=none;align=left;verticalAlign=top;spacingLeft=4;spacingRight=4;overflow=hidden;rotatable=0;points=[[0,0.5],[1,0.5]];portConstraint=eastwest;" vertex="1" parent="GeVHQDl4KtZDKLTdlYc9-19">
          <mxGeometry y="256" width="370" height="26" as="geometry" />
        </mxCell>
        <mxCell id="GeVHQDl4KtZDKLTdlYc9-30" value="+ removeProperty(square: Square): void" style="text;strokeColor=none;fillColor=none;align=left;verticalAlign=top;spacingLeft=4;spacingRight=4;overflow=hidden;rotatable=0;points=[[0,0.5],[1,0.5]];portConstraint=eastwest;" vertex="1" parent="GeVHQDl4KtZDKLTdlYc9-19">
          <mxGeometry y="282" width="370" height="26" as="geometry" />
        </mxCell>
        <mxCell id="GeVHQDl4KtZDKLTdlYc9-31" value="+ inputBool(state: Monopoly.Gamestate): boolean" style="text;strokeColor=none;fillColor=none;align=left;verticalAlign=top;spacingLeft=4;spacingRight=4;overflow=hidden;rotatable=0;points=[[0,0.5],[1,0.5]];portConstraint=eastwest;" vertex="1" parent="GeVHQDl4KtZDKLTdlYc9-19">
          <mxGeometry y="308" width="370" height="26" as="geometry" />
        </mxCell>
        <mxCell id="GeVHQDl4KtZDKLTdlYc9-32" value="+ inputInt(state: Monopoly.Gamestate): int" style="text;strokeColor=none;fillColor=none;align=left;verticalAlign=top;spacingLeft=4;spacingRight=4;overflow=hidden;rotatable=0;points=[[0,0.5],[1,0.5]];portConstraint=eastwest;" vertex="1" parent="GeVHQDl4KtZDKLTdlYc9-19">
          <mxGeometry y="334" width="370" height="26" as="geometry" />
        </mxCell>
        <mxCell id="GeVHQDl4KtZDKLTdlYc9-33" value="+ inputDecision(state: Monopoly.Gamestate,choices: String[]): int" style="text;strokeColor=none;fillColor=none;align=left;verticalAlign=top;spacingLeft=4;spacingRight=4;overflow=hidden;rotatable=0;points=[[0,0.5],[1,0.5]];portConstraint=eastwest;" vertex="1" parent="GeVHQDl4KtZDKLTdlYc9-19">
          <mxGeometry y="360" width="370" height="26" as="geometry" />
        </mxCell>
        <mxCell id="GeVHQDl4KtZDKLTdlYc9-34" value="+ setJailTurns(turns: int): void" style="text;strokeColor=none;fillColor=none;align=left;verticalAlign=top;spacingLeft=4;spacingRight=4;overflow=hidden;rotatable=0;points=[[0,0.5],[1,0.5]];portConstraint=eastwest;" vertex="1" parent="GeVHQDl4KtZDKLTdlYc9-19">
          <mxGeometry y="386" width="370" height="26" as="geometry" />
        </mxCell>
        <mxCell id="GeVHQDl4KtZDKLTdlYc9-35" value="+ getJailTurns(): int" style="text;strokeColor=none;fillColor=none;align=left;verticalAlign=top;spacingLeft=4;spacingRight=4;overflow=hidden;rotatable=0;points=[[0,0.5],[1,0.5]];portConstraint=eastwest;" vertex="1" parent="GeVHQDl4KtZDKLTdlYc9-19">
          <mxGeometry y="412" width="370" height="26" as="geometry" />
        </mxCell>
        <mxCell id="GeVHQDl4KtZDKLTdlYc9-36" value="RollDice" style="swimlane;fontStyle=1;align=center;verticalAlign=top;childLayout=stackLayout;horizontal=1;startSize=26;horizontalStack=0;resizeParent=1;resizeParentMax=0;resizeLast=0;collapsible=1;marginBottom=0;" vertex="1" parent="1">
          <mxGeometry x="-2380" y="909" width="200" height="190" as="geometry" />
        </mxCell>
        <mxCell id="GeVHQDl4KtZDKLTdlYc9-37" value="- NUM_DICE: int" style="text;strokeColor=none;fillColor=none;align=left;verticalAlign=top;spacingLeft=4;spacingRight=4;overflow=hidden;rotatable=0;points=[[0,0.5],[1,0.5]];portConstraint=eastwest;" vertex="1" parent="GeVHQDl4KtZDKLTdlYc9-36">
          <mxGeometry y="26" width="200" height="26" as="geometry" />
        </mxCell>
        <mxCell id="GeVHQDl4KtZDKLTdlYc9-38" value="- NUM_SIDE: int" style="text;strokeColor=none;fillColor=none;align=left;verticalAlign=top;spacingLeft=4;spacingRight=4;overflow=hidden;rotatable=0;points=[[0,0.5],[1,0.5]];portConstraint=eastwest;" vertex="1" parent="GeVHQDl4KtZDKLTdlYc9-36">
          <mxGeometry y="52" width="200" height="26" as="geometry" />
        </mxCell>
        <mxCell id="GeVHQDl4KtZDKLTdlYc9-39" value="" style="line;strokeWidth=1;fillColor=none;align=left;verticalAlign=middle;spacingTop=-1;spacingLeft=3;spacingRight=3;rotatable=0;labelPosition=right;points=[];portConstraint=eastwest;" vertex="1" parent="GeVHQDl4KtZDKLTdlYc9-36">
          <mxGeometry y="78" width="200" height="8" as="geometry" />
        </mxCell>
        <mxCell id="GeVHQDl4KtZDKLTdlYc9-40" value="+ RollDice()" style="text;strokeColor=none;fillColor=none;align=left;verticalAlign=top;spacingLeft=4;spacingRight=4;overflow=hidden;rotatable=0;points=[[0,0.5],[1,0.5]];portConstraint=eastwest;" vertex="1" parent="GeVHQDl4KtZDKLTdlYc9-36">
          <mxGeometry y="86" width="200" height="26" as="geometry" />
        </mxCell>
        <mxCell id="GeVHQDl4KtZDKLTdlYc9-41" value="+ getNumDice(): int" style="text;strokeColor=none;fillColor=none;align=left;verticalAlign=top;spacingLeft=4;spacingRight=4;overflow=hidden;rotatable=0;points=[[0,0.5],[1,0.5]];portConstraint=eastwest;" vertex="1" parent="GeVHQDl4KtZDKLTdlYc9-36">
          <mxGeometry y="112" width="200" height="26" as="geometry" />
        </mxCell>
        <mxCell id="GeVHQDl4KtZDKLTdlYc9-42" value="+ getNumSides(): int" style="text;strokeColor=none;fillColor=none;align=left;verticalAlign=top;spacingLeft=4;spacingRight=4;overflow=hidden;rotatable=0;points=[[0,0.5],[1,0.5]];portConstraint=eastwest;" vertex="1" parent="GeVHQDl4KtZDKLTdlYc9-36">
          <mxGeometry y="138" width="200" height="26" as="geometry" />
        </mxCell>
        <mxCell id="GeVHQDl4KtZDKLTdlYc9-43" value="+ rollDice(): Roll" style="text;strokeColor=none;fillColor=none;align=left;verticalAlign=top;spacingLeft=4;spacingRight=4;overflow=hidden;rotatable=0;points=[[0,0.5],[1,0.5]];portConstraint=eastwest;" vertex="1" parent="GeVHQDl4KtZDKLTdlYc9-36">
          <mxGeometry y="164" width="200" height="26" as="geometry" />
        </mxCell>
        <mxCell id="GeVHQDl4KtZDKLTdlYc9-44" value="HumanPlayer" style="swimlane;fontStyle=1;align=center;verticalAlign=top;childLayout=stackLayout;horizontal=1;startSize=26;horizontalStack=0;resizeParent=1;resizeParentMax=0;resizeLast=0;collapsible=1;marginBottom=0;" vertex="1" parent="1">
          <mxGeometry x="-3060" y="865" width="370" height="632" as="geometry" />
        </mxCell>
        <mxCell id="GeVHQDl4KtZDKLTdlYc9-45" value="- input: Input" style="text;strokeColor=none;fillColor=none;align=left;verticalAlign=top;spacingLeft=4;spacingRight=4;overflow=hidden;rotatable=0;points=[[0,0.5],[1,0.5]];portConstraint=eastwest;" vertex="1" parent="GeVHQDl4KtZDKLTdlYc9-44">
          <mxGeometry y="26" width="370" height="26" as="geometry" />
        </mxCell>
        <mxCell id="GeVHQDl4KtZDKLTdlYc9-46" value="- properties: Collection&lt;Square&gt;" style="text;strokeColor=none;fillColor=none;align=left;verticalAlign=top;spacingLeft=4;spacingRight=4;overflow=hidden;rotatable=0;points=[[0,0.5],[1,0.5]];portConstraint=eastwest;" vertex="1" parent="GeVHQDl4KtZDKLTdlYc9-44">
          <mxGeometry y="52" width="370" height="26" as="geometry" />
        </mxCell>
        <mxCell id="GeVHQDl4KtZDKLTdlYc9-47" value="- playerName: String" style="text;strokeColor=none;fillColor=none;align=left;verticalAlign=top;spacingLeft=4;spacingRight=4;overflow=hidden;rotatable=0;points=[[0,0.5],[1,0.5]];portConstraint=eastwest;" vertex="1" parent="GeVHQDl4KtZDKLTdlYc9-44">
          <mxGeometry y="78" width="370" height="26" as="geometry" />
        </mxCell>
        <mxCell id="GeVHQDl4KtZDKLTdlYc9-48" value="- money: int" style="text;strokeColor=none;fillColor=none;align=left;verticalAlign=top;spacingLeft=4;spacingRight=4;overflow=hidden;rotatable=0;points=[[0,0.5],[1,0.5]];portConstraint=eastwest;" vertex="1" parent="GeVHQDl4KtZDKLTdlYc9-44">
          <mxGeometry y="104" width="370" height="26" as="geometry" />
        </mxCell>
        <mxCell id="GeVHQDl4KtZDKLTdlYc9-49" value="- position: int" style="text;strokeColor=none;fillColor=none;align=left;verticalAlign=top;spacingLeft=4;spacingRight=4;overflow=hidden;rotatable=0;points=[[0,0.5],[1,0.5]];portConstraint=eastwest;" vertex="1" parent="GeVHQDl4KtZDKLTdlYc9-44">
          <mxGeometry y="130" width="370" height="26" as="geometry" />
        </mxCell>
        <mxCell id="GeVHQDl4KtZDKLTdlYc9-50" value="- jailTurns: int" style="text;strokeColor=none;fillColor=none;align=left;verticalAlign=top;spacingLeft=4;spacingRight=4;overflow=hidden;rotatable=0;points=[[0,0.5],[1,0.5]];portConstraint=eastwest;" vertex="1" parent="GeVHQDl4KtZDKLTdlYc9-44">
          <mxGeometry y="156" width="370" height="26" as="geometry" />
        </mxCell>
        <mxCell id="GeVHQDl4KtZDKLTdlYc9-51" value="- inJail: boolean" style="text;strokeColor=none;fillColor=none;align=left;verticalAlign=top;spacingLeft=4;spacingRight=4;overflow=hidden;rotatable=0;points=[[0,0.5],[1,0.5]];portConstraint=eastwest;" vertex="1" parent="GeVHQDl4KtZDKLTdlYc9-44">
          <mxGeometry y="182" width="370" height="26" as="geometry" />
        </mxCell>
        <mxCell id="GeVHQDl4KtZDKLTdlYc9-52" value="" style="line;strokeWidth=1;fillColor=none;align=left;verticalAlign=middle;spacingTop=-1;spacingLeft=3;spacingRight=3;rotatable=0;labelPosition=right;points=[];portConstraint=eastwest;" vertex="1" parent="GeVHQDl4KtZDKLTdlYc9-44">
          <mxGeometry y="208" width="370" height="8" as="geometry" />
        </mxCell>
        <mxCell id="GeVHQDl4KtZDKLTdlYc9-53" value="+ HumanPlayer(playerName: String)" style="text;strokeColor=none;fillColor=none;align=left;verticalAlign=top;spacingLeft=4;spacingRight=4;overflow=hidden;rotatable=0;points=[[0,0.5],[1,0.5]];portConstraint=eastwest;" vertex="1" parent="GeVHQDl4KtZDKLTdlYc9-44">
          <mxGeometry y="216" width="370" height="26" as="geometry" />
        </mxCell>
        <mxCell id="GeVHQDl4KtZDKLTdlYc9-54" value="+ move(numTiles: int): void" style="text;strokeColor=none;fillColor=none;align=left;verticalAlign=top;spacingLeft=4;spacingRight=4;overflow=hidden;rotatable=0;points=[[0,0.5],[1,0.5]];portConstraint=eastwest;" vertex="1" parent="GeVHQDl4KtZDKLTdlYc9-44">
          <mxGeometry y="242" width="370" height="26" as="geometry" />
        </mxCell>
        <mxCell id="GeVHQDl4KtZDKLTdlYc9-55" value="+ moveTo(newPosition: int): void" style="text;strokeColor=none;fillColor=none;align=left;verticalAlign=top;spacingLeft=4;spacingRight=4;overflow=hidden;rotatable=0;points=[[0,0.5],[1,0.5]];portConstraint=eastwest;" vertex="1" parent="GeVHQDl4KtZDKLTdlYc9-44">
          <mxGeometry y="268" width="370" height="26" as="geometry" />
        </mxCell>
        <mxCell id="GeVHQDl4KtZDKLTdlYc9-56" value="+ getPosition(): int" style="text;strokeColor=none;fillColor=none;align=left;verticalAlign=top;spacingLeft=4;spacingRight=4;overflow=hidden;rotatable=0;points=[[0,0.5],[1,0.5]];portConstraint=eastwest;" vertex="1" parent="GeVHQDl4KtZDKLTdlYc9-44">
          <mxGeometry y="294" width="370" height="26" as="geometry" />
        </mxCell>
        <mxCell id="GeVHQDl4KtZDKLTdlYc9-57" value="+ setInJail(bool: boolean): void" style="text;strokeColor=none;fillColor=none;align=left;verticalAlign=top;spacingLeft=4;spacingRight=4;overflow=hidden;rotatable=0;points=[[0,0.5],[1,0.5]];portConstraint=eastwest;" vertex="1" parent="GeVHQDl4KtZDKLTdlYc9-44">
          <mxGeometry y="320" width="370" height="26" as="geometry" />
        </mxCell>
        <mxCell id="GeVHQDl4KtZDKLTdlYc9-58" value="+ properties(): Collection&lt;Square&gt;" style="text;strokeColor=none;fillColor=none;align=left;verticalAlign=top;spacingLeft=4;spacingRight=4;overflow=hidden;rotatable=0;points=[[0,0.5],[1,0.5]];portConstraint=eastwest;" vertex="1" parent="GeVHQDl4KtZDKLTdlYc9-44">
          <mxGeometry y="346" width="370" height="26" as="geometry" />
        </mxCell>
        <mxCell id="GeVHQDl4KtZDKLTdlYc9-59" value="+ name(): String" style="text;strokeColor=none;fillColor=none;align=left;verticalAlign=top;spacingLeft=4;spacingRight=4;overflow=hidden;rotatable=0;points=[[0,0.5],[1,0.5]];portConstraint=eastwest;" vertex="1" parent="GeVHQDl4KtZDKLTdlYc9-44">
          <mxGeometry y="372" width="370" height="26" as="geometry" />
        </mxCell>
        <mxCell id="GeVHQDl4KtZDKLTdlYc9-60" value="+ getMoney(): int " style="text;strokeColor=none;fillColor=none;align=left;verticalAlign=top;spacingLeft=4;spacingRight=4;overflow=hidden;rotatable=0;points=[[0,0.5],[1,0.5]];portConstraint=eastwest;" vertex="1" parent="GeVHQDl4KtZDKLTdlYc9-44">
          <mxGeometry y="398" width="370" height="26" as="geometry" />
        </mxCell>
        <mxCell id="GeVHQDl4KtZDKLTdlYc9-61" value="+ exchangeMoney(money: int): void" style="text;strokeColor=none;fillColor=none;align=left;verticalAlign=top;spacingLeft=4;spacingRight=4;overflow=hidden;rotatable=0;points=[[0,0.5],[1,0.5]];portConstraint=eastwest;" vertex="1" parent="GeVHQDl4KtZDKLTdlYc9-44">
          <mxGeometry y="424" width="370" height="26" as="geometry" />
        </mxCell>
        <mxCell id="GeVHQDl4KtZDKLTdlYc9-62" value="+ addProperty(square: Square): void" style="text;strokeColor=none;fillColor=none;align=left;verticalAlign=top;spacingLeft=4;spacingRight=4;overflow=hidden;rotatable=0;points=[[0,0.5],[1,0.5]];portConstraint=eastwest;" vertex="1" parent="GeVHQDl4KtZDKLTdlYc9-44">
          <mxGeometry y="450" width="370" height="26" as="geometry" />
        </mxCell>
        <mxCell id="GeVHQDl4KtZDKLTdlYc9-63" value="+ removeProperty(square: Square): void" style="text;strokeColor=none;fillColor=none;align=left;verticalAlign=top;spacingLeft=4;spacingRight=4;overflow=hidden;rotatable=0;points=[[0,0.5],[1,0.5]];portConstraint=eastwest;" vertex="1" parent="GeVHQDl4KtZDKLTdlYc9-44">
          <mxGeometry y="476" width="370" height="26" as="geometry" />
        </mxCell>
        <mxCell id="GeVHQDl4KtZDKLTdlYc9-64" value="+ inputBool(state: Monopoly.Gamestate): boolean" style="text;strokeColor=none;fillColor=none;align=left;verticalAlign=top;spacingLeft=4;spacingRight=4;overflow=hidden;rotatable=0;points=[[0,0.5],[1,0.5]];portConstraint=eastwest;" vertex="1" parent="GeVHQDl4KtZDKLTdlYc9-44">
          <mxGeometry y="502" width="370" height="26" as="geometry" />
        </mxCell>
        <mxCell id="GeVHQDl4KtZDKLTdlYc9-65" value="+ inputInt(state: Monopoly.Gamestate): int" style="text;strokeColor=none;fillColor=none;align=left;verticalAlign=top;spacingLeft=4;spacingRight=4;overflow=hidden;rotatable=0;points=[[0,0.5],[1,0.5]];portConstraint=eastwest;" vertex="1" parent="GeVHQDl4KtZDKLTdlYc9-44">
          <mxGeometry y="528" width="370" height="26" as="geometry" />
        </mxCell>
        <mxCell id="GeVHQDl4KtZDKLTdlYc9-66" value="+ inputDecision(state: Monopoly.Gamestate,choices: String[]): int" style="text;strokeColor=none;fillColor=none;align=left;verticalAlign=top;spacingLeft=4;spacingRight=4;overflow=hidden;rotatable=0;points=[[0,0.5],[1,0.5]];portConstraint=eastwest;" vertex="1" parent="GeVHQDl4KtZDKLTdlYc9-44">
          <mxGeometry y="554" width="370" height="26" as="geometry" />
        </mxCell>
        <mxCell id="GeVHQDl4KtZDKLTdlYc9-67" value="+ setJailTurns(turns: int): void" style="text;strokeColor=none;fillColor=none;align=left;verticalAlign=top;spacingLeft=4;spacingRight=4;overflow=hidden;rotatable=0;points=[[0,0.5],[1,0.5]];portConstraint=eastwest;" vertex="1" parent="GeVHQDl4KtZDKLTdlYc9-44">
          <mxGeometry y="580" width="370" height="26" as="geometry" />
        </mxCell>
        <mxCell id="GeVHQDl4KtZDKLTdlYc9-68" value="+ getJailTurns(): int" style="text;strokeColor=none;fillColor=none;align=left;verticalAlign=top;spacingLeft=4;spacingRight=4;overflow=hidden;rotatable=0;points=[[0,0.5],[1,0.5]];portConstraint=eastwest;" vertex="1" parent="GeVHQDl4KtZDKLTdlYc9-44">
          <mxGeometry y="606" width="370" height="26" as="geometry" />
        </mxCell>
        <mxCell id="GeVHQDl4KtZDKLTdlYc9-69" value="Inactive" style="swimlane;fontStyle=1;align=center;verticalAlign=top;childLayout=stackLayout;horizontal=1;startSize=26;horizontalStack=0;resizeParent=1;resizeParentMax=0;resizeLast=0;collapsible=1;marginBottom=0;" vertex="1" parent="1">
          <mxGeometry x="-1040" y="760" width="210" height="320" as="geometry" />
        </mxCell>
        <mxCell id="GeVHQDl4KtZDKLTdlYc9-70" value="- position: int" style="text;strokeColor=none;fillColor=none;align=left;verticalAlign=top;spacingLeft=4;spacingRight=4;overflow=hidden;rotatable=0;points=[[0,0.5],[1,0.5]];portConstraint=eastwest;" vertex="1" parent="GeVHQDl4KtZDKLTdlYc9-69">
          <mxGeometry y="26" width="210" height="26" as="geometry" />
        </mxCell>
        <mxCell id="GeVHQDl4KtZDKLTdlYc9-71" value="- name: String" style="text;strokeColor=none;fillColor=none;align=left;verticalAlign=top;spacingLeft=4;spacingRight=4;overflow=hidden;rotatable=0;points=[[0,0.5],[1,0.5]];portConstraint=eastwest;" vertex="1" parent="GeVHQDl4KtZDKLTdlYc9-69">
          <mxGeometry y="52" width="210" height="26" as="geometry" />
        </mxCell>
        <mxCell id="GeVHQDl4KtZDKLTdlYc9-72" value="" style="line;strokeWidth=1;fillColor=none;align=left;verticalAlign=middle;spacingTop=-1;spacingLeft=3;spacingRight=3;rotatable=0;labelPosition=right;points=[];portConstraint=eastwest;" vertex="1" parent="GeVHQDl4KtZDKLTdlYc9-69">
          <mxGeometry y="78" width="210" height="8" as="geometry" />
        </mxCell>
        <mxCell id="GeVHQDl4KtZDKLTdlYc9-73" value="+ Inactive(position: int, name: String)" style="text;strokeColor=none;fillColor=none;align=left;verticalAlign=top;spacingLeft=4;spacingRight=4;overflow=hidden;rotatable=0;points=[[0,0.5],[1,0.5]];portConstraint=eastwest;" vertex="1" parent="GeVHQDl4KtZDKLTdlYc9-69">
          <mxGeometry y="86" width="210" height="26" as="geometry" />
        </mxCell>
        <mxCell id="GeVHQDl4KtZDKLTdlYc9-74" value="+ position(): int" style="text;strokeColor=none;fillColor=none;align=left;verticalAlign=top;spacingLeft=4;spacingRight=4;overflow=hidden;rotatable=0;points=[[0,0.5],[1,0.5]];portConstraint=eastwest;" vertex="1" parent="GeVHQDl4KtZDKLTdlYc9-69">
          <mxGeometry y="112" width="210" height="26" as="geometry" />
        </mxCell>
        <mxCell id="GeVHQDl4KtZDKLTdlYc9-75" value="+ name(): String" style="text;strokeColor=none;fillColor=none;align=left;verticalAlign=top;spacingLeft=4;spacingRight=4;overflow=hidden;rotatable=0;points=[[0,0.5],[1,0.5]];portConstraint=eastwest;" vertex="1" parent="GeVHQDl4KtZDKLTdlYc9-69">
          <mxGeometry y="138" width="210" height="26" as="geometry" />
        </mxCell>
        <mxCell id="GeVHQDl4KtZDKLTdlYc9-76" value="+ isOwnable(): boolean" style="text;strokeColor=none;fillColor=none;align=left;verticalAlign=top;spacingLeft=4;spacingRight=4;overflow=hidden;rotatable=0;points=[[0,0.5],[1,0.5]];portConstraint=eastwest;" vertex="1" parent="GeVHQDl4KtZDKLTdlYc9-69">
          <mxGeometry y="164" width="210" height="26" as="geometry" />
        </mxCell>
        <mxCell id="GeVHQDl4KtZDKLTdlYc9-77" value="+ isOwned(): boolean " style="text;strokeColor=none;fillColor=none;align=left;verticalAlign=top;spacingLeft=4;spacingRight=4;overflow=hidden;rotatable=0;points=[[0,0.5],[1,0.5]];portConstraint=eastwest;" vertex="1" parent="GeVHQDl4KtZDKLTdlYc9-69">
          <mxGeometry y="190" width="210" height="26" as="geometry" />
        </mxCell>
        <mxCell id="GeVHQDl4KtZDKLTdlYc9-78" value="+ cost(): int" style="text;strokeColor=none;fillColor=none;align=left;verticalAlign=top;spacingLeft=4;spacingRight=4;overflow=hidden;rotatable=0;points=[[0,0.5],[1,0.5]];portConstraint=eastwest;" vertex="1" parent="GeVHQDl4KtZDKLTdlYc9-69">
          <mxGeometry y="216" width="210" height="26" as="geometry" />
        </mxCell>
        <mxCell id="GeVHQDl4KtZDKLTdlYc9-79" value="+ purchase(player: Player): void" style="text;strokeColor=none;fillColor=none;align=left;verticalAlign=top;spacingLeft=4;spacingRight=4;overflow=hidden;rotatable=0;points=[[0,0.5],[1,0.5]];portConstraint=eastwest;" vertex="1" parent="GeVHQDl4KtZDKLTdlYc9-69">
          <mxGeometry y="242" width="210" height="26" as="geometry" />
        </mxCell>
        <mxCell id="GeVHQDl4KtZDKLTdlYc9-80" value="+ rent(value: int): int" style="text;strokeColor=none;fillColor=none;align=left;verticalAlign=top;spacingLeft=4;spacingRight=4;overflow=hidden;rotatable=0;points=[[0,0.5],[1,0.5]];portConstraint=eastwest;" vertex="1" parent="GeVHQDl4KtZDKLTdlYc9-69">
          <mxGeometry y="268" width="210" height="26" as="geometry" />
        </mxCell>
        <mxCell id="GeVHQDl4KtZDKLTdlYc9-81" value="+ owner(): Player" style="text;strokeColor=none;fillColor=none;align=left;verticalAlign=top;spacingLeft=4;spacingRight=4;overflow=hidden;rotatable=0;points=[[0,0.5],[1,0.5]];portConstraint=eastwest;" vertex="1" parent="GeVHQDl4KtZDKLTdlYc9-69">
          <mxGeometry y="294" width="210" height="26" as="geometry" />
        </mxCell>
        <mxCell id="GeVHQDl4KtZDKLTdlYc9-82" value="Utility" style="swimlane;fontStyle=1;align=center;verticalAlign=top;childLayout=stackLayout;horizontal=1;startSize=26;horizontalStack=0;resizeParent=1;resizeParentMax=0;resizeLast=0;collapsible=1;marginBottom=0;" vertex="1" parent="1">
          <mxGeometry x="-510" y="760" width="210" height="502" as="geometry" />
        </mxCell>
        <mxCell id="GeVHQDl4KtZDKLTdlYc9-83" value="- COST: int = 150" style="text;strokeColor=none;fillColor=none;align=left;verticalAlign=top;spacingLeft=4;spacingRight=4;overflow=hidden;rotatable=0;points=[[0,0.5],[1,0.5]];portConstraint=eastwest;" vertex="1" parent="GeVHQDl4KtZDKLTdlYc9-82">
          <mxGeometry y="26" width="210" height="26" as="geometry" />
        </mxCell>
        <mxCell id="GeVHQDl4KtZDKLTdlYc9-84" value="- position: int" style="text;strokeColor=none;fillColor=none;align=left;verticalAlign=top;spacingLeft=4;spacingRight=4;overflow=hidden;rotatable=0;points=[[0,0.5],[1,0.5]];portConstraint=eastwest;" vertex="1" parent="GeVHQDl4KtZDKLTdlYc9-82">
          <mxGeometry y="52" width="210" height="26" as="geometry" />
        </mxCell>
        <mxCell id="GeVHQDl4KtZDKLTdlYc9-85" value="- name: String" style="text;strokeColor=none;fillColor=none;align=left;verticalAlign=top;spacingLeft=4;spacingRight=4;overflow=hidden;rotatable=0;points=[[0,0.5],[1,0.5]];portConstraint=eastwest;" vertex="1" parent="GeVHQDl4KtZDKLTdlYc9-82">
          <mxGeometry y="78" width="210" height="26" as="geometry" />
        </mxCell>
        <mxCell id="GeVHQDl4KtZDKLTdlYc9-86" value="- other: Utility" style="text;strokeColor=none;fillColor=none;align=left;verticalAlign=top;spacingLeft=4;spacingRight=4;overflow=hidden;rotatable=0;points=[[0,0.5],[1,0.5]];portConstraint=eastwest;" vertex="1" parent="GeVHQDl4KtZDKLTdlYc9-82">
          <mxGeometry y="104" width="210" height="26" as="geometry" />
        </mxCell>
        <mxCell id="GeVHQDl4KtZDKLTdlYc9-87" value="- numOwned: int" style="text;strokeColor=none;fillColor=none;align=left;verticalAlign=top;spacingLeft=4;spacingRight=4;overflow=hidden;rotatable=0;points=[[0,0.5],[1,0.5]];portConstraint=eastwest;" vertex="1" parent="GeVHQDl4KtZDKLTdlYc9-82">
          <mxGeometry y="130" width="210" height="26" as="geometry" />
        </mxCell>
        <mxCell id="GeVHQDl4KtZDKLTdlYc9-88" value="- owner: Player" style="text;strokeColor=none;fillColor=none;align=left;verticalAlign=top;spacingLeft=4;spacingRight=4;overflow=hidden;rotatable=0;points=[[0,0.5],[1,0.5]];portConstraint=eastwest;" vertex="1" parent="GeVHQDl4KtZDKLTdlYc9-82">
          <mxGeometry y="156" width="210" height="26" as="geometry" />
        </mxCell>
        <mxCell id="GeVHQDl4KtZDKLTdlYc9-89" value="- owned: boolean" style="text;strokeColor=none;fillColor=none;align=left;verticalAlign=top;spacingLeft=4;spacingRight=4;overflow=hidden;rotatable=0;points=[[0,0.5],[1,0.5]];portConstraint=eastwest;" vertex="1" parent="GeVHQDl4KtZDKLTdlYc9-82">
          <mxGeometry y="182" width="210" height="26" as="geometry" />
        </mxCell>
        <mxCell id="GeVHQDl4KtZDKLTdlYc9-90" value="- dice: RollDice" style="text;strokeColor=none;fillColor=none;align=left;verticalAlign=top;spacingLeft=4;spacingRight=4;overflow=hidden;rotatable=0;points=[[0,0.5],[1,0.5]];portConstraint=eastwest;" vertex="1" parent="GeVHQDl4KtZDKLTdlYc9-82">
          <mxGeometry y="208" width="210" height="26" as="geometry" />
        </mxCell>
        <mxCell id="GeVHQDl4KtZDKLTdlYc9-91" value="" style="line;strokeWidth=1;fillColor=none;align=left;verticalAlign=middle;spacingTop=-1;spacingLeft=3;spacingRight=3;rotatable=0;labelPosition=right;points=[];portConstraint=eastwest;" vertex="1" parent="GeVHQDl4KtZDKLTdlYc9-82">
          <mxGeometry y="234" width="210" height="8" as="geometry" />
        </mxCell>
        <mxCell id="GeVHQDl4KtZDKLTdlYc9-92" value="+ Utility(position: int, name: String)" style="text;strokeColor=none;fillColor=none;align=left;verticalAlign=top;spacingLeft=4;spacingRight=4;overflow=hidden;rotatable=0;points=[[0,0.5],[1,0.5]];portConstraint=eastwest;" vertex="1" parent="GeVHQDl4KtZDKLTdlYc9-82">
          <mxGeometry y="242" width="210" height="26" as="geometry" />
        </mxCell>
        <mxCell id="GeVHQDl4KtZDKLTdlYc9-93" value="+ position(): int" style="text;strokeColor=none;fillColor=none;align=left;verticalAlign=top;spacingLeft=4;spacingRight=4;overflow=hidden;rotatable=0;points=[[0,0.5],[1,0.5]];portConstraint=eastwest;" vertex="1" parent="GeVHQDl4KtZDKLTdlYc9-82">
          <mxGeometry y="268" width="210" height="26" as="geometry" />
        </mxCell>
        <mxCell id="GeVHQDl4KtZDKLTdlYc9-94" value="+ name(): String" style="text;strokeColor=none;fillColor=none;align=left;verticalAlign=top;spacingLeft=4;spacingRight=4;overflow=hidden;rotatable=0;points=[[0,0.5],[1,0.5]];portConstraint=eastwest;" vertex="1" parent="GeVHQDl4KtZDKLTdlYc9-82">
          <mxGeometry y="294" width="210" height="26" as="geometry" />
        </mxCell>
        <mxCell id="GeVHQDl4KtZDKLTdlYc9-95" value="+ isOwnable(): boolean" style="text;strokeColor=none;fillColor=none;align=left;verticalAlign=top;spacingLeft=4;spacingRight=4;overflow=hidden;rotatable=0;points=[[0,0.5],[1,0.5]];portConstraint=eastwest;" vertex="1" parent="GeVHQDl4KtZDKLTdlYc9-82">
          <mxGeometry y="320" width="210" height="26" as="geometry" />
        </mxCell>
        <mxCell id="GeVHQDl4KtZDKLTdlYc9-96" value="+ isOwned(): boolean " style="text;strokeColor=none;fillColor=none;align=left;verticalAlign=top;spacingLeft=4;spacingRight=4;overflow=hidden;rotatable=0;points=[[0,0.5],[1,0.5]];portConstraint=eastwest;" vertex="1" parent="GeVHQDl4KtZDKLTdlYc9-82">
          <mxGeometry y="346" width="210" height="26" as="geometry" />
        </mxCell>
        <mxCell id="GeVHQDl4KtZDKLTdlYc9-97" value="+ cost(): int" style="text;strokeColor=none;fillColor=none;align=left;verticalAlign=top;spacingLeft=4;spacingRight=4;overflow=hidden;rotatable=0;points=[[0,0.5],[1,0.5]];portConstraint=eastwest;" vertex="1" parent="GeVHQDl4KtZDKLTdlYc9-82">
          <mxGeometry y="372" width="210" height="26" as="geometry" />
        </mxCell>
        <mxCell id="GeVHQDl4KtZDKLTdlYc9-98" value="+ purchase(player: Player): void" style="text;strokeColor=none;fillColor=none;align=left;verticalAlign=top;spacingLeft=4;spacingRight=4;overflow=hidden;rotatable=0;points=[[0,0.5],[1,0.5]];portConstraint=eastwest;" vertex="1" parent="GeVHQDl4KtZDKLTdlYc9-82">
          <mxGeometry y="398" width="210" height="26" as="geometry" />
        </mxCell>
        <mxCell id="GeVHQDl4KtZDKLTdlYc9-99" value="+ rent(roll: int): int" style="text;strokeColor=none;fillColor=none;align=left;verticalAlign=top;spacingLeft=4;spacingRight=4;overflow=hidden;rotatable=0;points=[[0,0.5],[1,0.5]];portConstraint=eastwest;" vertex="1" parent="GeVHQDl4KtZDKLTdlYc9-82">
          <mxGeometry y="424" width="210" height="26" as="geometry" />
        </mxCell>
        <mxCell id="GeVHQDl4KtZDKLTdlYc9-100" value="+ owner(): Player" style="text;strokeColor=none;fillColor=none;align=left;verticalAlign=top;spacingLeft=4;spacingRight=4;overflow=hidden;rotatable=0;points=[[0,0.5],[1,0.5]];portConstraint=eastwest;" vertex="1" parent="GeVHQDl4KtZDKLTdlYc9-82">
          <mxGeometry y="450" width="210" height="26" as="geometry" />
        </mxCell>
        <mxCell id="GeVHQDl4KtZDKLTdlYc9-101" value="+ setGroup(other: Utility): void" style="text;strokeColor=none;fillColor=none;align=left;verticalAlign=top;spacingLeft=4;spacingRight=4;overflow=hidden;rotatable=0;points=[[0,0.5],[1,0.5]];portConstraint=eastwest;" vertex="1" parent="GeVHQDl4KtZDKLTdlYc9-82">
          <mxGeometry y="476" width="210" height="26" as="geometry" />
        </mxCell>
        <mxCell id="GeVHQDl4KtZDKLTdlYc9-102" value="Taxes" style="swimlane;fontStyle=1;align=center;verticalAlign=top;childLayout=stackLayout;horizontal=1;startSize=26;horizontalStack=0;resizeParent=1;resizeParentMax=0;resizeLast=0;collapsible=1;marginBottom=0;" vertex="1" parent="1">
          <mxGeometry x="90" y="760" width="230" height="424" as="geometry" />
        </mxCell>
        <mxCell id="GeVHQDl4KtZDKLTdlYc9-103" value="- position: int" style="text;strokeColor=none;fillColor=none;align=left;verticalAlign=top;spacingLeft=4;spacingRight=4;overflow=hidden;rotatable=0;points=[[0,0.5],[1,0.5]];portConstraint=eastwest;" vertex="1" parent="GeVHQDl4KtZDKLTdlYc9-102">
          <mxGeometry y="26" width="230" height="26" as="geometry" />
        </mxCell>
        <mxCell id="GeVHQDl4KtZDKLTdlYc9-104" value="- name: String" style="text;strokeColor=none;fillColor=none;align=left;verticalAlign=top;spacingLeft=4;spacingRight=4;overflow=hidden;rotatable=0;points=[[0,0.5],[1,0.5]];portConstraint=eastwest;" vertex="1" parent="GeVHQDl4KtZDKLTdlYc9-102">
          <mxGeometry y="52" width="230" height="26" as="geometry" />
        </mxCell>
        <mxCell id="GeVHQDl4KtZDKLTdlYc9-105" value="- fixTax: int" style="text;strokeColor=none;fillColor=none;align=left;verticalAlign=top;spacingLeft=4;spacingRight=4;overflow=hidden;rotatable=0;points=[[0,0.5],[1,0.5]];portConstraint=eastwest;" vertex="1" parent="GeVHQDl4KtZDKLTdlYc9-102">
          <mxGeometry y="78" width="230" height="26" as="geometry" />
        </mxCell>
        <mxCell id="GeVHQDl4KtZDKLTdlYc9-106" value="- varTax: double" style="text;strokeColor=none;fillColor=none;align=left;verticalAlign=top;spacingLeft=4;spacingRight=4;overflow=hidden;rotatable=0;points=[[0,0.5],[1,0.5]];portConstraint=eastwest;" vertex="1" parent="GeVHQDl4KtZDKLTdlYc9-102">
          <mxGeometry y="104" width="230" height="26" as="geometry" />
        </mxCell>
        <mxCell id="GeVHQDl4KtZDKLTdlYc9-107" value="" style="line;strokeWidth=1;fillColor=none;align=left;verticalAlign=middle;spacingTop=-1;spacingLeft=3;spacingRight=3;rotatable=0;labelPosition=right;points=[];portConstraint=eastwest;" vertex="1" parent="GeVHQDl4KtZDKLTdlYc9-102">
          <mxGeometry y="130" width="230" height="8" as="geometry" />
        </mxCell>
        <mxCell id="GeVHQDl4KtZDKLTdlYc9-108" value="+ Tax(position: int, incomeTax:boolean)" style="text;strokeColor=none;fillColor=none;align=left;verticalAlign=top;spacingLeft=4;spacingRight=4;overflow=hidden;rotatable=0;points=[[0,0.5],[1,0.5]];portConstraint=eastwest;" vertex="1" parent="GeVHQDl4KtZDKLTdlYc9-102">
          <mxGeometry y="138" width="230" height="26" as="geometry" />
        </mxCell>
        <mxCell id="GeVHQDl4KtZDKLTdlYc9-109" value="+ getTax(): int" style="text;strokeColor=none;fillColor=none;align=left;verticalAlign=top;spacingLeft=4;spacingRight=4;overflow=hidden;rotatable=0;points=[[0,0.5],[1,0.5]];portConstraint=eastwest;" vertex="1" parent="GeVHQDl4KtZDKLTdlYc9-102">
          <mxGeometry y="164" width="230" height="26" as="geometry" />
        </mxCell>
        <mxCell id="GeVHQDl4KtZDKLTdlYc9-110" value="+ getTax(value: int): int" style="text;strokeColor=none;fillColor=none;align=left;verticalAlign=top;spacingLeft=4;spacingRight=4;overflow=hidden;rotatable=0;points=[[0,0.5],[1,0.5]];portConstraint=eastwest;" vertex="1" parent="GeVHQDl4KtZDKLTdlYc9-102">
          <mxGeometry y="190" width="230" height="26" as="geometry" />
        </mxCell>
        <mxCell id="GeVHQDl4KtZDKLTdlYc9-111" value="+ position(): int" style="text;strokeColor=none;fillColor=none;align=left;verticalAlign=top;spacingLeft=4;spacingRight=4;overflow=hidden;rotatable=0;points=[[0,0.5],[1,0.5]];portConstraint=eastwest;" vertex="1" parent="GeVHQDl4KtZDKLTdlYc9-102">
          <mxGeometry y="216" width="230" height="26" as="geometry" />
        </mxCell>
        <mxCell id="GeVHQDl4KtZDKLTdlYc9-112" value="+ name(): String" style="text;strokeColor=none;fillColor=none;align=left;verticalAlign=top;spacingLeft=4;spacingRight=4;overflow=hidden;rotatable=0;points=[[0,0.5],[1,0.5]];portConstraint=eastwest;" vertex="1" parent="GeVHQDl4KtZDKLTdlYc9-102">
          <mxGeometry y="242" width="230" height="26" as="geometry" />
        </mxCell>
        <mxCell id="GeVHQDl4KtZDKLTdlYc9-113" value="+ isOwnable(): boolean" style="text;strokeColor=none;fillColor=none;align=left;verticalAlign=top;spacingLeft=4;spacingRight=4;overflow=hidden;rotatable=0;points=[[0,0.5],[1,0.5]];portConstraint=eastwest;" vertex="1" parent="GeVHQDl4KtZDKLTdlYc9-102">
          <mxGeometry y="268" width="230" height="26" as="geometry" />
        </mxCell>
        <mxCell id="GeVHQDl4KtZDKLTdlYc9-114" value="+ isOwned(): boolean " style="text;strokeColor=none;fillColor=none;align=left;verticalAlign=top;spacingLeft=4;spacingRight=4;overflow=hidden;rotatable=0;points=[[0,0.5],[1,0.5]];portConstraint=eastwest;" vertex="1" parent="GeVHQDl4KtZDKLTdlYc9-102">
          <mxGeometry y="294" width="230" height="26" as="geometry" />
        </mxCell>
        <mxCell id="GeVHQDl4KtZDKLTdlYc9-115" value="+ cost(): int" style="text;strokeColor=none;fillColor=none;align=left;verticalAlign=top;spacingLeft=4;spacingRight=4;overflow=hidden;rotatable=0;points=[[0,0.5],[1,0.5]];portConstraint=eastwest;" vertex="1" parent="GeVHQDl4KtZDKLTdlYc9-102">
          <mxGeometry y="320" width="230" height="26" as="geometry" />
        </mxCell>
        <mxCell id="GeVHQDl4KtZDKLTdlYc9-116" value="+ purchase(player: Player): void" style="text;strokeColor=none;fillColor=none;align=left;verticalAlign=top;spacingLeft=4;spacingRight=4;overflow=hidden;rotatable=0;points=[[0,0.5],[1,0.5]];portConstraint=eastwest;" vertex="1" parent="GeVHQDl4KtZDKLTdlYc9-102">
          <mxGeometry y="346" width="230" height="26" as="geometry" />
        </mxCell>
        <mxCell id="GeVHQDl4KtZDKLTdlYc9-117" value="+ rent(value: int): int" style="text;strokeColor=none;fillColor=none;align=left;verticalAlign=top;spacingLeft=4;spacingRight=4;overflow=hidden;rotatable=0;points=[[0,0.5],[1,0.5]];portConstraint=eastwest;" vertex="1" parent="GeVHQDl4KtZDKLTdlYc9-102">
          <mxGeometry y="372" width="230" height="26" as="geometry" />
        </mxCell>
        <mxCell id="GeVHQDl4KtZDKLTdlYc9-118" value="+ owner(): Player" style="text;strokeColor=none;fillColor=none;align=left;verticalAlign=top;spacingLeft=4;spacingRight=4;overflow=hidden;rotatable=0;points=[[0,0.5],[1,0.5]];portConstraint=eastwest;" vertex="1" parent="GeVHQDl4KtZDKLTdlYc9-102">
          <mxGeometry y="398" width="230" height="26" as="geometry" />
        </mxCell>
        <mxCell id="GeVHQDl4KtZDKLTdlYc9-119" value="Railroad" style="swimlane;fontStyle=1;align=center;verticalAlign=top;childLayout=stackLayout;horizontal=1;startSize=26;horizontalStack=0;resizeParent=1;resizeParentMax=0;resizeLast=0;collapsible=1;marginBottom=0;" vertex="1" parent="1">
          <mxGeometry x="-270" y="760" width="320" height="502" as="geometry" />
        </mxCell>
        <mxCell id="GeVHQDl4KtZDKLTdlYc9-120" value="- COST: int = 200" style="text;strokeColor=none;fillColor=none;align=left;verticalAlign=top;spacingLeft=4;spacingRight=4;overflow=hidden;rotatable=0;points=[[0,0.5],[1,0.5]];portConstraint=eastwest;" vertex="1" parent="GeVHQDl4KtZDKLTdlYc9-119">
          <mxGeometry y="26" width="320" height="26" as="geometry" />
        </mxCell>
        <mxCell id="GeVHQDl4KtZDKLTdlYc9-121" value="- position: int" style="text;strokeColor=none;fillColor=none;align=left;verticalAlign=top;spacingLeft=4;spacingRight=4;overflow=hidden;rotatable=0;points=[[0,0.5],[1,0.5]];portConstraint=eastwest;" vertex="1" parent="GeVHQDl4KtZDKLTdlYc9-119">
          <mxGeometry y="52" width="320" height="26" as="geometry" />
        </mxCell>
        <mxCell id="GeVHQDl4KtZDKLTdlYc9-122" value="- name: String" style="text;strokeColor=none;fillColor=none;align=left;verticalAlign=top;spacingLeft=4;spacingRight=4;overflow=hidden;rotatable=0;points=[[0,0.5],[1,0.5]];portConstraint=eastwest;" vertex="1" parent="GeVHQDl4KtZDKLTdlYc9-119">
          <mxGeometry y="78" width="320" height="26" as="geometry" />
        </mxCell>
        <mxCell id="GeVHQDl4KtZDKLTdlYc9-123" value="- others: Railroad[]" style="text;strokeColor=none;fillColor=none;align=left;verticalAlign=top;spacingLeft=4;spacingRight=4;overflow=hidden;rotatable=0;points=[[0,0.5],[1,0.5]];portConstraint=eastwest;" vertex="1" parent="GeVHQDl4KtZDKLTdlYc9-119">
          <mxGeometry y="104" width="320" height="26" as="geometry" />
        </mxCell>
        <mxCell id="GeVHQDl4KtZDKLTdlYc9-124" value="- numOwned: int" style="text;strokeColor=none;fillColor=none;align=left;verticalAlign=top;spacingLeft=4;spacingRight=4;overflow=hidden;rotatable=0;points=[[0,0.5],[1,0.5]];portConstraint=eastwest;" vertex="1" parent="GeVHQDl4KtZDKLTdlYc9-119">
          <mxGeometry y="130" width="320" height="26" as="geometry" />
        </mxCell>
        <mxCell id="GeVHQDl4KtZDKLTdlYc9-125" value="- owner: Player" style="text;strokeColor=none;fillColor=none;align=left;verticalAlign=top;spacingLeft=4;spacingRight=4;overflow=hidden;rotatable=0;points=[[0,0.5],[1,0.5]];portConstraint=eastwest;" vertex="1" parent="GeVHQDl4KtZDKLTdlYc9-119">
          <mxGeometry y="156" width="320" height="26" as="geometry" />
        </mxCell>
        <mxCell id="GeVHQDl4KtZDKLTdlYc9-126" value="- owned: boolean" style="text;strokeColor=none;fillColor=none;align=left;verticalAlign=top;spacingLeft=4;spacingRight=4;overflow=hidden;rotatable=0;points=[[0,0.5],[1,0.5]];portConstraint=eastwest;" vertex="1" parent="GeVHQDl4KtZDKLTdlYc9-119">
          <mxGeometry y="182" width="320" height="26" as="geometry" />
        </mxCell>
        <mxCell id="GeVHQDl4KtZDKLTdlYc9-127" value="" style="line;strokeWidth=1;fillColor=none;align=left;verticalAlign=middle;spacingTop=-1;spacingLeft=3;spacingRight=3;rotatable=0;labelPosition=right;points=[];portConstraint=eastwest;" vertex="1" parent="GeVHQDl4KtZDKLTdlYc9-119">
          <mxGeometry y="208" width="320" height="8" as="geometry" />
        </mxCell>
        <mxCell id="GeVHQDl4KtZDKLTdlYc9-128" value="+ Railroad(position: int, name: String)" style="text;strokeColor=none;fillColor=none;align=left;verticalAlign=top;spacingLeft=4;spacingRight=4;overflow=hidden;rotatable=0;points=[[0,0.5],[1,0.5]];portConstraint=eastwest;" vertex="1" parent="GeVHQDl4KtZDKLTdlYc9-119">
          <mxGeometry y="216" width="320" height="26" as="geometry" />
        </mxCell>
        <mxCell id="GeVHQDl4KtZDKLTdlYc9-129" value="+ position(): int" style="text;strokeColor=none;fillColor=none;align=left;verticalAlign=top;spacingLeft=4;spacingRight=4;overflow=hidden;rotatable=0;points=[[0,0.5],[1,0.5]];portConstraint=eastwest;" vertex="1" parent="GeVHQDl4KtZDKLTdlYc9-119">
          <mxGeometry y="242" width="320" height="26" as="geometry" />
        </mxCell>
        <mxCell id="GeVHQDl4KtZDKLTdlYc9-130" value="+ name(): String" style="text;strokeColor=none;fillColor=none;align=left;verticalAlign=top;spacingLeft=4;spacingRight=4;overflow=hidden;rotatable=0;points=[[0,0.5],[1,0.5]];portConstraint=eastwest;" vertex="1" parent="GeVHQDl4KtZDKLTdlYc9-119">
          <mxGeometry y="268" width="320" height="26" as="geometry" />
        </mxCell>
        <mxCell id="GeVHQDl4KtZDKLTdlYc9-131" value="+ isOwnable(): boolean" style="text;strokeColor=none;fillColor=none;align=left;verticalAlign=top;spacingLeft=4;spacingRight=4;overflow=hidden;rotatable=0;points=[[0,0.5],[1,0.5]];portConstraint=eastwest;" vertex="1" parent="GeVHQDl4KtZDKLTdlYc9-119">
          <mxGeometry y="294" width="320" height="26" as="geometry" />
        </mxCell>
        <mxCell id="GeVHQDl4KtZDKLTdlYc9-132" value="+ isOwned(): boolean " style="text;strokeColor=none;fillColor=none;align=left;verticalAlign=top;spacingLeft=4;spacingRight=4;overflow=hidden;rotatable=0;points=[[0,0.5],[1,0.5]];portConstraint=eastwest;" vertex="1" parent="GeVHQDl4KtZDKLTdlYc9-119">
          <mxGeometry y="320" width="320" height="26" as="geometry" />
        </mxCell>
        <mxCell id="GeVHQDl4KtZDKLTdlYc9-133" value="+ cost(): int" style="text;strokeColor=none;fillColor=none;align=left;verticalAlign=top;spacingLeft=4;spacingRight=4;overflow=hidden;rotatable=0;points=[[0,0.5],[1,0.5]];portConstraint=eastwest;" vertex="1" parent="GeVHQDl4KtZDKLTdlYc9-119">
          <mxGeometry y="346" width="320" height="26" as="geometry" />
        </mxCell>
        <mxCell id="GeVHQDl4KtZDKLTdlYc9-134" value="+ purchase(player: Player): void" style="text;strokeColor=none;fillColor=none;align=left;verticalAlign=top;spacingLeft=4;spacingRight=4;overflow=hidden;rotatable=0;points=[[0,0.5],[1,0.5]];portConstraint=eastwest;" vertex="1" parent="GeVHQDl4KtZDKLTdlYc9-119">
          <mxGeometry y="372" width="320" height="26" as="geometry" />
        </mxCell>
        <mxCell id="GeVHQDl4KtZDKLTdlYc9-135" value="+ rent(value: int): int" style="text;strokeColor=none;fillColor=none;align=left;verticalAlign=top;spacingLeft=4;spacingRight=4;overflow=hidden;rotatable=0;points=[[0,0.5],[1,0.5]];portConstraint=eastwest;" vertex="1" parent="GeVHQDl4KtZDKLTdlYc9-119">
          <mxGeometry y="398" width="320" height="26" as="geometry" />
        </mxCell>
        <mxCell id="GeVHQDl4KtZDKLTdlYc9-136" value="+ owner(): Player" style="text;strokeColor=none;fillColor=none;align=left;verticalAlign=top;spacingLeft=4;spacingRight=4;overflow=hidden;rotatable=0;points=[[0,0.5],[1,0.5]];portConstraint=eastwest;" vertex="1" parent="GeVHQDl4KtZDKLTdlYc9-119">
          <mxGeometry y="424" width="320" height="26" as="geometry" />
        </mxCell>
        <mxCell id="GeVHQDl4KtZDKLTdlYc9-137" value="+ setGroup(a: Railroad, b: Railroad, c: Railroad): void" style="text;strokeColor=none;fillColor=none;align=left;verticalAlign=top;spacingLeft=4;spacingRight=4;overflow=hidden;rotatable=0;points=[[0,0.5],[1,0.5]];portConstraint=eastwest;" vertex="1" parent="GeVHQDl4KtZDKLTdlYc9-119">
          <mxGeometry y="450" width="320" height="26" as="geometry" />
        </mxCell>
        <mxCell id="GeVHQDl4KtZDKLTdlYc9-138" value="+ updateOwners(): void" style="text;strokeColor=none;fillColor=none;align=left;verticalAlign=top;spacingLeft=4;spacingRight=4;overflow=hidden;rotatable=0;points=[[0,0.5],[1,0.5]];portConstraint=eastwest;" vertex="1" parent="GeVHQDl4KtZDKLTdlYc9-119">
          <mxGeometry y="476" width="320" height="26" as="geometry" />
        </mxCell>
        <mxCell id="GeVHQDl4KtZDKLTdlYc9-139" value="Jail" style="swimlane;fontStyle=1;align=center;verticalAlign=top;childLayout=stackLayout;horizontal=1;startSize=26;horizontalStack=0;resizeParent=1;resizeParentMax=0;resizeLast=0;collapsible=1;marginBottom=0;" vertex="1" parent="1">
          <mxGeometry x="-800" y="760" width="260" height="372" as="geometry" />
        </mxCell>
        <mxCell id="GeVHQDl4KtZDKLTdlYc9-140" value="- position: int" style="text;strokeColor=none;fillColor=none;align=left;verticalAlign=top;spacingLeft=4;spacingRight=4;overflow=hidden;rotatable=0;points=[[0,0.5],[1,0.5]];portConstraint=eastwest;" vertex="1" parent="GeVHQDl4KtZDKLTdlYc9-139">
          <mxGeometry y="26" width="260" height="26" as="geometry" />
        </mxCell>
        <mxCell id="GeVHQDl4KtZDKLTdlYc9-141" value="- name: String" style="text;strokeColor=none;fillColor=none;align=left;verticalAlign=top;spacingLeft=4;spacingRight=4;overflow=hidden;rotatable=0;points=[[0,0.5],[1,0.5]];portConstraint=eastwest;" vertex="1" parent="GeVHQDl4KtZDKLTdlYc9-139">
          <mxGeometry y="52" width="260" height="26" as="geometry" />
        </mxCell>
        <mxCell id="GeVHQDl4KtZDKLTdlYc9-142" value="- type: JailType" style="text;strokeColor=none;fillColor=none;align=left;verticalAlign=top;spacingLeft=4;spacingRight=4;overflow=hidden;rotatable=0;points=[[0,0.5],[1,0.5]];portConstraint=eastwest;" vertex="1" parent="GeVHQDl4KtZDKLTdlYc9-139">
          <mxGeometry y="78" width="260" height="26" as="geometry" />
        </mxCell>
        <mxCell id="GeVHQDl4KtZDKLTdlYc9-143" value="" style="line;strokeWidth=1;fillColor=none;align=left;verticalAlign=middle;spacingTop=-1;spacingLeft=3;spacingRight=3;rotatable=0;labelPosition=right;points=[];portConstraint=eastwest;" vertex="1" parent="GeVHQDl4KtZDKLTdlYc9-139">
          <mxGeometry y="104" width="260" height="8" as="geometry" />
        </mxCell>
        <mxCell id="GeVHQDl4KtZDKLTdlYc9-144" value="+ Jail(position: int, name: String, type JailType)" style="text;strokeColor=none;fillColor=none;align=left;verticalAlign=top;spacingLeft=4;spacingRight=4;overflow=hidden;rotatable=0;points=[[0,0.5],[1,0.5]];portConstraint=eastwest;" vertex="1" parent="GeVHQDl4KtZDKLTdlYc9-139">
          <mxGeometry y="112" width="260" height="26" as="geometry" />
        </mxCell>
        <mxCell id="GeVHQDl4KtZDKLTdlYc9-145" value="+ position(): int" style="text;strokeColor=none;fillColor=none;align=left;verticalAlign=top;spacingLeft=4;spacingRight=4;overflow=hidden;rotatable=0;points=[[0,0.5],[1,0.5]];portConstraint=eastwest;" vertex="1" parent="GeVHQDl4KtZDKLTdlYc9-139">
          <mxGeometry y="138" width="260" height="26" as="geometry" />
        </mxCell>
        <mxCell id="GeVHQDl4KtZDKLTdlYc9-146" value="+ name(): String" style="text;strokeColor=none;fillColor=none;align=left;verticalAlign=top;spacingLeft=4;spacingRight=4;overflow=hidden;rotatable=0;points=[[0,0.5],[1,0.5]];portConstraint=eastwest;" vertex="1" parent="GeVHQDl4KtZDKLTdlYc9-139">
          <mxGeometry y="164" width="260" height="26" as="geometry" />
        </mxCell>
        <mxCell id="GeVHQDl4KtZDKLTdlYc9-147" value="+ isOwnable(): boolean" style="text;strokeColor=none;fillColor=none;align=left;verticalAlign=top;spacingLeft=4;spacingRight=4;overflow=hidden;rotatable=0;points=[[0,0.5],[1,0.5]];portConstraint=eastwest;" vertex="1" parent="GeVHQDl4KtZDKLTdlYc9-139">
          <mxGeometry y="190" width="260" height="26" as="geometry" />
        </mxCell>
        <mxCell id="GeVHQDl4KtZDKLTdlYc9-148" value="+ isOwned(): boolean " style="text;strokeColor=none;fillColor=none;align=left;verticalAlign=top;spacingLeft=4;spacingRight=4;overflow=hidden;rotatable=0;points=[[0,0.5],[1,0.5]];portConstraint=eastwest;" vertex="1" parent="GeVHQDl4KtZDKLTdlYc9-139">
          <mxGeometry y="216" width="260" height="26" as="geometry" />
        </mxCell>
        <mxCell id="GeVHQDl4KtZDKLTdlYc9-149" value="+ cost(): int" style="text;strokeColor=none;fillColor=none;align=left;verticalAlign=top;spacingLeft=4;spacingRight=4;overflow=hidden;rotatable=0;points=[[0,0.5],[1,0.5]];portConstraint=eastwest;" vertex="1" parent="GeVHQDl4KtZDKLTdlYc9-139">
          <mxGeometry y="242" width="260" height="26" as="geometry" />
        </mxCell>
        <mxCell id="GeVHQDl4KtZDKLTdlYc9-150" value="+ purchase(player: Player): void" style="text;strokeColor=none;fillColor=none;align=left;verticalAlign=top;spacingLeft=4;spacingRight=4;overflow=hidden;rotatable=0;points=[[0,0.5],[1,0.5]];portConstraint=eastwest;" vertex="1" parent="GeVHQDl4KtZDKLTdlYc9-139">
          <mxGeometry y="268" width="260" height="26" as="geometry" />
        </mxCell>
        <mxCell id="GeVHQDl4KtZDKLTdlYc9-151" value="+ rent(value: int): int" style="text;strokeColor=none;fillColor=none;align=left;verticalAlign=top;spacingLeft=4;spacingRight=4;overflow=hidden;rotatable=0;points=[[0,0.5],[1,0.5]];portConstraint=eastwest;" vertex="1" parent="GeVHQDl4KtZDKLTdlYc9-139">
          <mxGeometry y="294" width="260" height="26" as="geometry" />
        </mxCell>
        <mxCell id="GeVHQDl4KtZDKLTdlYc9-152" value="+ owner(): Player" style="text;strokeColor=none;fillColor=none;align=left;verticalAlign=top;spacingLeft=4;spacingRight=4;overflow=hidden;rotatable=0;points=[[0,0.5],[1,0.5]];portConstraint=eastwest;" vertex="1" parent="GeVHQDl4KtZDKLTdlYc9-139">
          <mxGeometry y="320" width="260" height="26" as="geometry" />
        </mxCell>
        <mxCell id="GeVHQDl4KtZDKLTdlYc9-153" value="+ JailType: enum" style="text;strokeColor=none;fillColor=none;align=left;verticalAlign=top;spacingLeft=4;spacingRight=4;overflow=hidden;rotatable=0;points=[[0,0.5],[1,0.5]];portConstraint=eastwest;" vertex="1" parent="GeVHQDl4KtZDKLTdlYc9-139">
          <mxGeometry y="346" width="260" height="26" as="geometry" />
        </mxCell>
        <mxCell id="GeVHQDl4KtZDKLTdlYc9-154" value="" style="endArrow=none;dashed=1;html=1;rounded=0;exitX=0.5;exitY=0;exitDx=0;exitDy=0;" edge="1" parent="1" source="GeVHQDl4KtZDKLTdlYc9-139">
          <mxGeometry width="50" height="50" relative="1" as="geometry">
            <mxPoint x="-670" y="748.13" as="sourcePoint" />
            <mxPoint x="-250" y="700" as="targetPoint" />
          </mxGeometry>
        </mxCell>
        <mxCell id="GeVHQDl4KtZDKLTdlYc9-155" value="" style="endArrow=none;dashed=1;html=1;rounded=0;exitX=0.5;exitY=0;exitDx=0;exitDy=0;" edge="1" parent="1" source="GeVHQDl4KtZDKLTdlYc9-82">
          <mxGeometry width="50" height="50" relative="1" as="geometry">
            <mxPoint x="-400" y="750" as="sourcePoint" />
            <mxPoint x="-250" y="700" as="targetPoint" />
          </mxGeometry>
        </mxCell>
        <mxCell id="GeVHQDl4KtZDKLTdlYc9-156" value="" style="endArrow=none;dashed=1;html=1;rounded=0;exitX=0.5;exitY=0;exitDx=0;exitDy=0;" edge="1" parent="1" source="GeVHQDl4KtZDKLTdlYc9-119">
          <mxGeometry width="50" height="50" relative="1" as="geometry">
            <mxPoint x="-130" y="730" as="sourcePoint" />
            <mxPoint x="-250" y="700" as="targetPoint" />
          </mxGeometry>
        </mxCell>
        <mxCell id="GeVHQDl4KtZDKLTdlYc9-157" value="" style="endArrow=none;dashed=1;html=1;rounded=0;exitX=0.5;exitY=0;exitDx=0;exitDy=0;" edge="1" parent="1" source="GeVHQDl4KtZDKLTdlYc9-102">
          <mxGeometry width="50" height="50" relative="1" as="geometry">
            <mxPoint x="70" y="740" as="sourcePoint" />
            <mxPoint x="-250" y="700" as="targetPoint" />
          </mxGeometry>
        </mxCell>
        <mxCell id="GeVHQDl4KtZDKLTdlYc9-158" value="" style="endArrow=none;dashed=1;html=1;rounded=0;exitX=0.5;exitY=0;exitDx=0;exitDy=0;" edge="1" parent="1" source="GeVHQDl4KtZDKLTdlYc9-69">
          <mxGeometry width="50" height="50" relative="1" as="geometry">
            <mxPoint x="-660" y="770" as="sourcePoint" />
            <mxPoint x="-250" y="700" as="targetPoint" />
          </mxGeometry>
        </mxCell>
        <mxCell id="GeVHQDl4KtZDKLTdlYc9-159" value="Property" style="swimlane;fontStyle=1;align=center;verticalAlign=top;childLayout=stackLayout;horizontal=1;startSize=26;horizontalStack=0;resizeParent=1;resizeParentMax=0;resizeLast=0;collapsible=1;marginBottom=0;" vertex="1" parent="1">
          <mxGeometry x="350" y="760" width="340" height="870" as="geometry" />
        </mxCell>
        <mxCell id="GeVHQDl4KtZDKLTdlYc9-160" value="- rent: int" style="text;strokeColor=none;fillColor=none;align=left;verticalAlign=top;spacingLeft=4;spacingRight=4;overflow=hidden;rotatable=0;points=[[0,0.5],[1,0.5]];portConstraint=eastwest;" vertex="1" parent="GeVHQDl4KtZDKLTdlYc9-159">
          <mxGeometry y="26" width="340" height="26" as="geometry" />
        </mxCell>
        <mxCell id="GeVHQDl4KtZDKLTdlYc9-161" value="- oneHouse: int" style="text;strokeColor=none;fillColor=none;align=left;verticalAlign=top;spacingLeft=4;spacingRight=4;overflow=hidden;rotatable=0;points=[[0,0.5],[1,0.5]];portConstraint=eastwest;" vertex="1" parent="GeVHQDl4KtZDKLTdlYc9-159">
          <mxGeometry y="52" width="340" height="26" as="geometry" />
        </mxCell>
        <mxCell id="GeVHQDl4KtZDKLTdlYc9-162" value="- twoHouse: int" style="text;strokeColor=none;fillColor=none;align=left;verticalAlign=top;spacingLeft=4;spacingRight=4;overflow=hidden;rotatable=0;points=[[0,0.5],[1,0.5]];portConstraint=eastwest;" vertex="1" parent="GeVHQDl4KtZDKLTdlYc9-159">
          <mxGeometry y="78" width="340" height="26" as="geometry" />
        </mxCell>
        <mxCell id="GeVHQDl4KtZDKLTdlYc9-163" value="- threeHouse: int" style="text;strokeColor=none;fillColor=none;align=left;verticalAlign=top;spacingLeft=4;spacingRight=4;overflow=hidden;rotatable=0;points=[[0,0.5],[1,0.5]];portConstraint=eastwest;" vertex="1" parent="GeVHQDl4KtZDKLTdlYc9-159">
          <mxGeometry y="104" width="340" height="26" as="geometry" />
        </mxCell>
        <mxCell id="GeVHQDl4KtZDKLTdlYc9-164" value="- fourHouse: int" style="text;strokeColor=none;fillColor=none;align=left;verticalAlign=top;spacingLeft=4;spacingRight=4;overflow=hidden;rotatable=0;points=[[0,0.5],[1,0.5]];portConstraint=eastwest;" vertex="1" parent="GeVHQDl4KtZDKLTdlYc9-159">
          <mxGeometry y="130" width="340" height="26" as="geometry" />
        </mxCell>
        <mxCell id="GeVHQDl4KtZDKLTdlYc9-165" value="- hotel: int" style="text;strokeColor=none;fillColor=none;align=left;verticalAlign=top;spacingLeft=4;spacingRight=4;overflow=hidden;rotatable=0;points=[[0,0.5],[1,0.5]];portConstraint=eastwest;" vertex="1" parent="GeVHQDl4KtZDKLTdlYc9-159">
          <mxGeometry y="156" width="340" height="26" as="geometry" />
        </mxCell>
        <mxCell id="GeVHQDl4KtZDKLTdlYc9-166" value="- position: int" style="text;strokeColor=none;fillColor=none;align=left;verticalAlign=top;spacingLeft=4;spacingRight=4;overflow=hidden;rotatable=0;points=[[0,0.5],[1,0.5]];portConstraint=eastwest;" vertex="1" parent="GeVHQDl4KtZDKLTdlYc9-159">
          <mxGeometry y="182" width="340" height="26" as="geometry" />
        </mxCell>
        <mxCell id="GeVHQDl4KtZDKLTdlYc9-167" value="- name: String" style="text;strokeColor=none;fillColor=none;align=left;verticalAlign=top;spacingLeft=4;spacingRight=4;overflow=hidden;rotatable=0;points=[[0,0.5],[1,0.5]];portConstraint=eastwest;" vertex="1" parent="GeVHQDl4KtZDKLTdlYc9-159">
          <mxGeometry y="208" width="340" height="26" as="geometry" />
        </mxCell>
        <mxCell id="GeVHQDl4KtZDKLTdlYc9-168" value="- owner: Player" style="text;strokeColor=none;fillColor=none;align=left;verticalAlign=top;spacingLeft=4;spacingRight=4;overflow=hidden;rotatable=0;points=[[0,0.5],[1,0.5]];portConstraint=eastwest;" vertex="1" parent="GeVHQDl4KtZDKLTdlYc9-159">
          <mxGeometry y="234" width="340" height="26" as="geometry" />
        </mxCell>
        <mxCell id="GeVHQDl4KtZDKLTdlYc9-169" value="- owned: boolean" style="text;strokeColor=none;fillColor=none;align=left;verticalAlign=top;spacingLeft=4;spacingRight=4;overflow=hidden;rotatable=0;points=[[0,0.5],[1,0.5]];portConstraint=eastwest;" vertex="1" parent="GeVHQDl4KtZDKLTdlYc9-159">
          <mxGeometry y="260" width="340" height="26" as="geometry" />
        </mxCell>
        <mxCell id="GeVHQDl4KtZDKLTdlYc9-170" value="- others: Property[]" style="text;strokeColor=none;fillColor=none;align=left;verticalAlign=top;spacingLeft=4;spacingRight=4;overflow=hidden;rotatable=0;points=[[0,0.5],[1,0.5]];portConstraint=eastwest;" vertex="1" parent="GeVHQDl4KtZDKLTdlYc9-159">
          <mxGeometry y="286" width="340" height="26" as="geometry" />
        </mxCell>
        <mxCell id="GeVHQDl4KtZDKLTdlYc9-171" value="- propertyCost: int" style="text;strokeColor=none;fillColor=none;align=left;verticalAlign=top;spacingLeft=4;spacingRight=4;overflow=hidden;rotatable=0;points=[[0,0.5],[1,0.5]];portConstraint=eastwest;" vertex="1" parent="GeVHQDl4KtZDKLTdlYc9-159">
          <mxGeometry y="312" width="340" height="26" as="geometry" />
        </mxCell>
        <mxCell id="GeVHQDl4KtZDKLTdlYc9-172" value="- houseCost: int" style="text;strokeColor=none;fillColor=none;align=left;verticalAlign=top;spacingLeft=4;spacingRight=4;overflow=hidden;rotatable=0;points=[[0,0.5],[1,0.5]];portConstraint=eastwest;" vertex="1" parent="GeVHQDl4KtZDKLTdlYc9-159">
          <mxGeometry y="338" width="340" height="26" as="geometry" />
        </mxCell>
        <mxCell id="GeVHQDl4KtZDKLTdlYc9-173" value="- buildings: int" style="text;strokeColor=none;fillColor=none;align=left;verticalAlign=top;spacingLeft=4;spacingRight=4;overflow=hidden;rotatable=0;points=[[0,0.5],[1,0.5]];portConstraint=eastwest;" vertex="1" parent="GeVHQDl4KtZDKLTdlYc9-159">
          <mxGeometry y="364" width="340" height="26" as="geometry" />
        </mxCell>
        <mxCell id="GeVHQDl4KtZDKLTdlYc9-174" value="- monopoly: boolean" style="text;strokeColor=none;fillColor=none;align=left;verticalAlign=top;spacingLeft=4;spacingRight=4;overflow=hidden;rotatable=0;points=[[0,0.5],[1,0.5]];portConstraint=eastwest;" vertex="1" parent="GeVHQDl4KtZDKLTdlYc9-159">
          <mxGeometry y="390" width="340" height="26" as="geometry" />
        </mxCell>
        <mxCell id="GeVHQDl4KtZDKLTdlYc9-175" value="" style="line;strokeWidth=1;fillColor=none;align=left;verticalAlign=middle;spacingTop=-1;spacingLeft=3;spacingRight=3;rotatable=0;labelPosition=right;points=[];portConstraint=eastwest;" vertex="1" parent="GeVHQDl4KtZDKLTdlYc9-159">
          <mxGeometry y="416" width="340" height="8" as="geometry" />
        </mxCell>
        <mxCell id="GeVHQDl4KtZDKLTdlYc9-176" value="+ Property(position: int, name: String, rent: int, &#xa;    oneHouse: int, twoHouse: int, threeHouse: int, &#xa;    fourHouse: int, hotel: int, propertyCost: int, houseCost: int)" style="text;strokeColor=none;fillColor=none;align=left;verticalAlign=top;spacingLeft=4;spacingRight=4;overflow=hidden;rotatable=0;points=[[0,0.5],[1,0.5]];portConstraint=eastwest;" vertex="1" parent="GeVHQDl4KtZDKLTdlYc9-159">
          <mxGeometry y="424" width="340" height="56" as="geometry" />
        </mxCell>
        <mxCell id="GeVHQDl4KtZDKLTdlYc9-177" value="+ position(): int" style="text;strokeColor=none;fillColor=none;align=left;verticalAlign=top;spacingLeft=4;spacingRight=4;overflow=hidden;rotatable=0;points=[[0,0.5],[1,0.5]];portConstraint=eastwest;" vertex="1" parent="GeVHQDl4KtZDKLTdlYc9-159">
          <mxGeometry y="480" width="340" height="26" as="geometry" />
        </mxCell>
        <mxCell id="GeVHQDl4KtZDKLTdlYc9-178" value="+ name(): String" style="text;strokeColor=none;fillColor=none;align=left;verticalAlign=top;spacingLeft=4;spacingRight=4;overflow=hidden;rotatable=0;points=[[0,0.5],[1,0.5]];portConstraint=eastwest;" vertex="1" parent="GeVHQDl4KtZDKLTdlYc9-159">
          <mxGeometry y="506" width="340" height="26" as="geometry" />
        </mxCell>
        <mxCell id="GeVHQDl4KtZDKLTdlYc9-179" value="+ isOwnable(): boolean" style="text;strokeColor=none;fillColor=none;align=left;verticalAlign=top;spacingLeft=4;spacingRight=4;overflow=hidden;rotatable=0;points=[[0,0.5],[1,0.5]];portConstraint=eastwest;" vertex="1" parent="GeVHQDl4KtZDKLTdlYc9-159">
          <mxGeometry y="532" width="340" height="26" as="geometry" />
        </mxCell>
        <mxCell id="GeVHQDl4KtZDKLTdlYc9-180" value="+ isOwned(): boolean " style="text;strokeColor=none;fillColor=none;align=left;verticalAlign=top;spacingLeft=4;spacingRight=4;overflow=hidden;rotatable=0;points=[[0,0.5],[1,0.5]];portConstraint=eastwest;" vertex="1" parent="GeVHQDl4KtZDKLTdlYc9-159">
          <mxGeometry y="558" width="340" height="26" as="geometry" />
        </mxCell>
        <mxCell id="GeVHQDl4KtZDKLTdlYc9-181" value="+ cost(): int" style="text;strokeColor=none;fillColor=none;align=left;verticalAlign=top;spacingLeft=4;spacingRight=4;overflow=hidden;rotatable=0;points=[[0,0.5],[1,0.5]];portConstraint=eastwest;" vertex="1" parent="GeVHQDl4KtZDKLTdlYc9-159">
          <mxGeometry y="584" width="340" height="26" as="geometry" />
        </mxCell>
        <mxCell id="GeVHQDl4KtZDKLTdlYc9-182" value="+ purchase(player: Player): void" style="text;strokeColor=none;fillColor=none;align=left;verticalAlign=top;spacingLeft=4;spacingRight=4;overflow=hidden;rotatable=0;points=[[0,0.5],[1,0.5]];portConstraint=eastwest;" vertex="1" parent="GeVHQDl4KtZDKLTdlYc9-159">
          <mxGeometry y="610" width="340" height="26" as="geometry" />
        </mxCell>
        <mxCell id="GeVHQDl4KtZDKLTdlYc9-183" value="+ rent(value: int): int" style="text;strokeColor=none;fillColor=none;align=left;verticalAlign=top;spacingLeft=4;spacingRight=4;overflow=hidden;rotatable=0;points=[[0,0.5],[1,0.5]];portConstraint=eastwest;" vertex="1" parent="GeVHQDl4KtZDKLTdlYc9-159">
          <mxGeometry y="636" width="340" height="26" as="geometry" />
        </mxCell>
        <mxCell id="GeVHQDl4KtZDKLTdlYc9-184" value="+ owner(): Player" style="text;strokeColor=none;fillColor=none;align=left;verticalAlign=top;spacingLeft=4;spacingRight=4;overflow=hidden;rotatable=0;points=[[0,0.5],[1,0.5]];portConstraint=eastwest;" vertex="1" parent="GeVHQDl4KtZDKLTdlYc9-159">
          <mxGeometry y="662" width="340" height="26" as="geometry" />
        </mxCell>
        <mxCell id="GeVHQDl4KtZDKLTdlYc9-185" value="+ isMonopoly(): boolean" style="text;strokeColor=none;fillColor=none;align=left;verticalAlign=top;spacingLeft=4;spacingRight=4;overflow=hidden;rotatable=0;points=[[0,0.5],[1,0.5]];portConstraint=eastwest;" vertex="1" parent="GeVHQDl4KtZDKLTdlYc9-159">
          <mxGeometry y="688" width="340" height="26" as="geometry" />
        </mxCell>
        <mxCell id="GeVHQDl4KtZDKLTdlYc9-186" value="+ setMonopoly(): boolean" style="text;strokeColor=none;fillColor=none;align=left;verticalAlign=top;spacingLeft=4;spacingRight=4;overflow=hidden;rotatable=0;points=[[0,0.5],[1,0.5]];portConstraint=eastwest;" vertex="1" parent="GeVHQDl4KtZDKLTdlYc9-159">
          <mxGeometry y="714" width="340" height="26" as="geometry" />
        </mxCell>
        <mxCell id="GeVHQDl4KtZDKLTdlYc9-187" value="+ breakMonopoly(): boolean" style="text;strokeColor=none;fillColor=none;align=left;verticalAlign=top;spacingLeft=4;spacingRight=4;overflow=hidden;rotatable=0;points=[[0,0.5],[1,0.5]];portConstraint=eastwest;" vertex="1" parent="GeVHQDl4KtZDKLTdlYc9-159">
          <mxGeometry y="740" width="340" height="26" as="geometry" />
        </mxCell>
        <mxCell id="GeVHQDl4KtZDKLTdlYc9-188" value="+ updateMonopoly(player: Player): void" style="text;strokeColor=none;fillColor=none;align=left;verticalAlign=top;spacingLeft=4;spacingRight=4;overflow=hidden;rotatable=0;points=[[0,0.5],[1,0.5]];portConstraint=eastwest;" vertex="1" parent="GeVHQDl4KtZDKLTdlYc9-159">
          <mxGeometry y="766" width="340" height="26" as="geometry" />
        </mxCell>
        <mxCell id="GeVHQDl4KtZDKLTdlYc9-189" value="+ getHouseCost(): int" style="text;strokeColor=none;fillColor=none;align=left;verticalAlign=top;spacingLeft=4;spacingRight=4;overflow=hidden;rotatable=0;points=[[0,0.5],[1,0.5]];portConstraint=eastwest;" vertex="1" parent="GeVHQDl4KtZDKLTdlYc9-159">
          <mxGeometry y="792" width="340" height="26" as="geometry" />
        </mxCell>
        <mxCell id="GeVHQDl4KtZDKLTdlYc9-190" value="+ setGroup(propertyA: Property): void" style="text;strokeColor=none;fillColor=none;align=left;verticalAlign=top;spacingLeft=4;spacingRight=4;overflow=hidden;rotatable=0;points=[[0,0.5],[1,0.5]];portConstraint=eastwest;" vertex="1" parent="GeVHQDl4KtZDKLTdlYc9-159">
          <mxGeometry y="818" width="340" height="26" as="geometry" />
        </mxCell>
        <mxCell id="GeVHQDl4KtZDKLTdlYc9-191" value="+ setGroup(propertyA: Property, propertyB: Property): void" style="text;strokeColor=none;fillColor=none;align=left;verticalAlign=top;spacingLeft=4;spacingRight=4;overflow=hidden;rotatable=0;points=[[0,0.5],[1,0.5]];portConstraint=eastwest;" vertex="1" parent="GeVHQDl4KtZDKLTdlYc9-159">
          <mxGeometry y="844" width="340" height="26" as="geometry" />
        </mxCell>
        <mxCell id="GeVHQDl4KtZDKLTdlYc9-192" value="" style="endArrow=none;dashed=1;html=1;rounded=0;exitX=0.5;exitY=0;exitDx=0;exitDy=0;" edge="1" parent="1" source="GeVHQDl4KtZDKLTdlYc9-159">
          <mxGeometry width="50" height="50" relative="1" as="geometry">
            <mxPoint x="225" y="750" as="sourcePoint" />
            <mxPoint x="-250" y="700" as="targetPoint" />
          </mxGeometry>
        </mxCell>
        <mxCell id="GeVHQDl4KtZDKLTdlYc9-193" value="Roll" style="swimlane;fontStyle=1;align=center;verticalAlign=top;childLayout=stackLayout;horizontal=1;startSize=26;horizontalStack=0;resizeParent=1;resizeParentMax=0;resizeLast=0;collapsible=1;marginBottom=0;" vertex="1" parent="1">
          <mxGeometry x="-2650" y="727" width="200" height="138" as="geometry" />
        </mxCell>
        <mxCell id="GeVHQDl4KtZDKLTdlYc9-194" value="+ dieValue1: int" style="text;strokeColor=none;fillColor=none;align=left;verticalAlign=top;spacingLeft=4;spacingRight=4;overflow=hidden;rotatable=0;points=[[0,0.5],[1,0.5]];portConstraint=eastwest;" vertex="1" parent="GeVHQDl4KtZDKLTdlYc9-193">
          <mxGeometry y="26" width="200" height="26" as="geometry" />
        </mxCell>
        <mxCell id="GeVHQDl4KtZDKLTdlYc9-195" value="+ dieValue2: int" style="text;strokeColor=none;fillColor=none;align=left;verticalAlign=top;spacingLeft=4;spacingRight=4;overflow=hidden;rotatable=0;points=[[0,0.5],[1,0.5]];portConstraint=eastwest;" vertex="1" parent="GeVHQDl4KtZDKLTdlYc9-193">
          <mxGeometry y="52" width="200" height="26" as="geometry" />
        </mxCell>
        <mxCell id="GeVHQDl4KtZDKLTdlYc9-196" value="+ value: int" style="text;strokeColor=none;fillColor=none;align=left;verticalAlign=top;spacingLeft=4;spacingRight=4;overflow=hidden;rotatable=0;points=[[0,0.5],[1,0.5]];portConstraint=eastwest;" vertex="1" parent="GeVHQDl4KtZDKLTdlYc9-193">
          <mxGeometry y="78" width="200" height="26" as="geometry" />
        </mxCell>
        <mxCell id="GeVHQDl4KtZDKLTdlYc9-197" value="+ isDouble: boolean" style="text;strokeColor=none;fillColor=none;align=left;verticalAlign=top;spacingLeft=4;spacingRight=4;overflow=hidden;rotatable=0;points=[[0,0.5],[1,0.5]];portConstraint=eastwest;" vertex="1" parent="GeVHQDl4KtZDKLTdlYc9-193">
          <mxGeometry y="104" width="200" height="26" as="geometry" />
        </mxCell>
        <mxCell id="GeVHQDl4KtZDKLTdlYc9-198" value="" style="line;strokeWidth=1;fillColor=none;align=left;verticalAlign=middle;spacingTop=-1;spacingLeft=3;spacingRight=3;rotatable=0;labelPosition=right;points=[];portConstraint=eastwest;" vertex="1" parent="GeVHQDl4KtZDKLTdlYc9-193">
          <mxGeometry y="130" width="200" height="8" as="geometry" />
        </mxCell>
        <mxCell id="GeVHQDl4KtZDKLTdlYc9-199" value="" style="endArrow=open;endFill=1;endSize=12;html=1;rounded=0;" edge="1" parent="1" source="GeVHQDl4KtZDKLTdlYc9-36" target="GeVHQDl4KtZDKLTdlYc9-193">
          <mxGeometry width="160" relative="1" as="geometry">
            <mxPoint x="-2200" y="949" as="sourcePoint" />
            <mxPoint x="-2610" y="899" as="targetPoint" />
            <Array as="points">
              <mxPoint x="-2550" y="1008" />
            </Array>
          </mxGeometry>
        </mxCell>
        <mxCell id="GeVHQDl4KtZDKLTdlYc9-200" value="uses" style="text;html=1;align=center;verticalAlign=middle;resizable=0;points=[];autosize=1;strokeColor=none;fillColor=none;" vertex="1" parent="1">
          <mxGeometry x="-2490" y="987" width="40" height="20" as="geometry" />
        </mxCell>
        <mxCell id="GeVHQDl4KtZDKLTdlYc9-201" value="&lt;&lt;enumeration&gt;&gt;&#xa;JailType" style="swimlane;fontStyle=1;childLayout=stackLayout;horizontal=1;startSize=40;fillColor=none;horizontalStack=0;resizeParent=1;resizeParentMax=0;resizeLast=0;collapsible=1;marginBottom=0;" vertex="1" parent="1">
          <mxGeometry x="-740" y="1210" width="140" height="118" as="geometry" />
        </mxCell>
        <mxCell id="GeVHQDl4KtZDKLTdlYc9-202" value="JUST_VISITING" style="text;strokeColor=none;fillColor=none;align=left;verticalAlign=top;spacingLeft=4;spacingRight=4;overflow=hidden;rotatable=0;points=[[0,0.5],[1,0.5]];portConstraint=eastwest;" vertex="1" parent="GeVHQDl4KtZDKLTdlYc9-201">
          <mxGeometry y="40" width="140" height="26" as="geometry" />
        </mxCell>
        <mxCell id="GeVHQDl4KtZDKLTdlYc9-203" value="IN_JAIL" style="text;strokeColor=none;fillColor=none;align=left;verticalAlign=top;spacingLeft=4;spacingRight=4;overflow=hidden;rotatable=0;points=[[0,0.5],[1,0.5]];portConstraint=eastwest;" vertex="1" parent="GeVHQDl4KtZDKLTdlYc9-201">
          <mxGeometry y="66" width="140" height="26" as="geometry" />
        </mxCell>
        <mxCell id="GeVHQDl4KtZDKLTdlYc9-204" value="GOTO_JAIL" style="text;strokeColor=none;fillColor=none;align=left;verticalAlign=top;spacingLeft=4;spacingRight=4;overflow=hidden;rotatable=0;points=[[0,0.5],[1,0.5]];portConstraint=eastwest;" vertex="1" parent="GeVHQDl4KtZDKLTdlYc9-201">
          <mxGeometry y="92" width="140" height="26" as="geometry" />
        </mxCell>
        <mxCell id="GeVHQDl4KtZDKLTdlYc9-205" value="GameBoard" style="swimlane;fontStyle=1;align=center;verticalAlign=top;childLayout=stackLayout;horizontal=1;startSize=26;horizontalStack=0;resizeParent=1;resizeParentMax=0;resizeLast=0;collapsible=1;marginBottom=0;" vertex="1" parent="1">
          <mxGeometry x="-1360" y="360" width="240" height="1282" as="geometry" />
        </mxCell>
        <mxCell id="GeVHQDl4KtZDKLTdlYc9-206" value="- NUM_TILES: int = 41;" style="text;strokeColor=none;fillColor=none;align=left;verticalAlign=top;spacingLeft=4;spacingRight=4;overflow=hidden;rotatable=0;points=[[0,0.5],[1,0.5]];portConstraint=eastwest;" vertex="1" parent="GeVHQDl4KtZDKLTdlYc9-205">
          <mxGeometry y="26" width="240" height="26" as="geometry" />
        </mxCell>
        <mxCell id="GeVHQDl4KtZDKLTdlYc9-207" value="- board: Square[]" style="text;strokeColor=none;fillColor=none;align=left;verticalAlign=top;spacingLeft=4;spacingRight=4;overflow=hidden;rotatable=0;points=[[0,0.5],[1,0.5]];portConstraint=eastwest;" vertex="1" parent="GeVHQDl4KtZDKLTdlYc9-205">
          <mxGeometry y="52" width="240" height="26" as="geometry" />
        </mxCell>
        <mxCell id="GeVHQDl4KtZDKLTdlYc9-208" value="" style="line;strokeWidth=1;fillColor=none;align=left;verticalAlign=middle;spacingTop=-1;spacingLeft=3;spacingRight=3;rotatable=0;labelPosition=right;points=[];portConstraint=eastwest;" vertex="1" parent="GeVHQDl4KtZDKLTdlYc9-205">
          <mxGeometry y="78" width="240" height="8" as="geometry" />
        </mxCell>
        <mxCell id="GeVHQDl4KtZDKLTdlYc9-209" value="+ GameBoard()" style="text;strokeColor=none;fillColor=none;align=left;verticalAlign=top;spacingLeft=4;spacingRight=4;overflow=hidden;rotatable=0;points=[[0,0.5],[1,0.5]];portConstraint=eastwest;" vertex="1" parent="GeVHQDl4KtZDKLTdlYc9-205">
          <mxGeometry y="86" width="240" height="26" as="geometry" />
        </mxCell>
        <mxCell id="GeVHQDl4KtZDKLTdlYc9-210" value="+ size(): int" style="text;strokeColor=none;fillColor=none;align=left;verticalAlign=top;spacingLeft=4;spacingRight=4;overflow=hidden;rotatable=0;points=[[0,0.5],[1,0.5]];portConstraint=eastwest;" vertex="1" parent="GeVHQDl4KtZDKLTdlYc9-205">
          <mxGeometry y="112" width="240" height="26" as="geometry" />
        </mxCell>
        <mxCell id="GeVHQDl4KtZDKLTdlYc9-211" value="+ getBoard(): Square[]" style="text;strokeColor=none;fillColor=none;align=left;verticalAlign=top;spacingLeft=4;spacingRight=4;overflow=hidden;rotatable=0;points=[[0,0.5],[1,0.5]];portConstraint=eastwest;" vertex="1" parent="GeVHQDl4KtZDKLTdlYc9-205">
          <mxGeometry y="138" width="240" height="26" as="geometry" />
        </mxCell>
        <mxCell id="GeVHQDl4KtZDKLTdlYc9-212" value="+ square(position: int): Square" style="text;strokeColor=none;fillColor=none;align=left;verticalAlign=top;spacingLeft=4;spacingRight=4;overflow=hidden;rotatable=0;points=[[0,0.5],[1,0.5]];portConstraint=eastwest;" vertex="1" parent="GeVHQDl4KtZDKLTdlYc9-205">
          <mxGeometry y="164" width="240" height="26" as="geometry" />
        </mxCell>
        <mxCell id="GeVHQDl4KtZDKLTdlYc9-213" value="+ property(name: String): Property" style="text;strokeColor=none;fillColor=none;align=left;verticalAlign=top;spacingLeft=4;spacingRight=4;overflow=hidden;rotatable=0;points=[[0,0.5],[1,0.5]];portConstraint=eastwest;" vertex="1" parent="GeVHQDl4KtZDKLTdlYc9-205">
          <mxGeometry y="190" width="240" height="26" as="geometry" />
        </mxCell>
        <mxCell id="GeVHQDl4KtZDKLTdlYc9-214" value="+ makeSquare(position: int): Square" style="text;strokeColor=none;fillColor=none;align=left;verticalAlign=top;spacingLeft=4;spacingRight=4;overflow=hidden;rotatable=0;points=[[0,0.5],[1,0.5]];portConstraint=eastwest;" vertex="1" parent="GeVHQDl4KtZDKLTdlYc9-205">
          <mxGeometry y="216" width="240" height="26" as="geometry" />
        </mxCell>
        <mxCell id="GeVHQDl4KtZDKLTdlYc9-215" value="+ groupProperties(): void" style="text;strokeColor=none;fillColor=none;align=left;verticalAlign=top;spacingLeft=4;spacingRight=4;overflow=hidden;rotatable=0;points=[[0,0.5],[1,0.5]];portConstraint=eastwest;" vertex="1" parent="GeVHQDl4KtZDKLTdlYc9-205">
          <mxGeometry y="242" width="240" height="26" as="geometry" />
        </mxCell>
        <mxCell id="GeVHQDl4KtZDKLTdlYc9-216" value="+ groupRailroads(): void" style="text;strokeColor=none;fillColor=none;align=left;verticalAlign=top;spacingLeft=4;spacingRight=4;overflow=hidden;rotatable=0;points=[[0,0.5],[1,0.5]];portConstraint=eastwest;" vertex="1" parent="GeVHQDl4KtZDKLTdlYc9-205">
          <mxGeometry y="268" width="240" height="26" as="geometry" />
        </mxCell>
        <mxCell id="GeVHQDl4KtZDKLTdlYc9-217" value="+ groupUtilities(): void" style="text;strokeColor=none;fillColor=none;align=left;verticalAlign=top;spacingLeft=4;spacingRight=4;overflow=hidden;rotatable=0;points=[[0,0.5],[1,0.5]];portConstraint=eastwest;" vertex="1" parent="GeVHQDl4KtZDKLTdlYc9-205">
          <mxGeometry y="294" width="240" height="26" as="geometry" />
        </mxCell>
        <mxCell id="GeVHQDl4KtZDKLTdlYc9-218" value="+ go(position: int): Square" style="text;strokeColor=none;fillColor=none;align=left;verticalAlign=top;spacingLeft=4;spacingRight=4;overflow=hidden;rotatable=0;points=[[0,0.5],[1,0.5]];portConstraint=eastwest;" vertex="1" parent="GeVHQDl4KtZDKLTdlYc9-205">
          <mxGeometry y="320" width="240" height="26" as="geometry" />
        </mxCell>
        <mxCell id="GeVHQDl4KtZDKLTdlYc9-219" value="+ community(position: int): Square" style="text;strokeColor=none;fillColor=none;align=left;verticalAlign=top;spacingLeft=4;spacingRight=4;overflow=hidden;rotatable=0;points=[[0,0.5],[1,0.5]];portConstraint=eastwest;" vertex="1" parent="GeVHQDl4KtZDKLTdlYc9-205">
          <mxGeometry y="346" width="240" height="26" as="geometry" />
        </mxCell>
        <mxCell id="GeVHQDl4KtZDKLTdlYc9-220" value="+ chance(position: int): Square" style="text;strokeColor=none;fillColor=none;align=left;verticalAlign=top;spacingLeft=4;spacingRight=4;overflow=hidden;rotatable=0;points=[[0,0.5],[1,0.5]];portConstraint=eastwest;" vertex="1" parent="GeVHQDl4KtZDKLTdlYc9-205">
          <mxGeometry y="372" width="240" height="26" as="geometry" />
        </mxCell>
        <mxCell id="GeVHQDl4KtZDKLTdlYc9-221" value="+ incomeTax(position: int): Square" style="text;strokeColor=none;fillColor=none;align=left;verticalAlign=top;spacingLeft=4;spacingRight=4;overflow=hidden;rotatable=0;points=[[0,0.5],[1,0.5]];portConstraint=eastwest;" vertex="1" parent="GeVHQDl4KtZDKLTdlYc9-205">
          <mxGeometry y="398" width="240" height="26" as="geometry" />
        </mxCell>
        <mxCell id="GeVHQDl4KtZDKLTdlYc9-222" value="+ superTax(position: int): Square" style="text;strokeColor=none;fillColor=none;align=left;verticalAlign=top;spacingLeft=4;spacingRight=4;overflow=hidden;rotatable=0;points=[[0,0.5],[1,0.5]];portConstraint=eastwest;" vertex="1" parent="GeVHQDl4KtZDKLTdlYc9-205">
          <mxGeometry y="424" width="240" height="26" as="geometry" />
        </mxCell>
        <mxCell id="GeVHQDl4KtZDKLTdlYc9-223" value="+ electricCompany(position: int): Square" style="text;strokeColor=none;fillColor=none;align=left;verticalAlign=top;spacingLeft=4;spacingRight=4;overflow=hidden;rotatable=0;points=[[0,0.5],[1,0.5]];portConstraint=eastwest;" vertex="1" parent="GeVHQDl4KtZDKLTdlYc9-205">
          <mxGeometry y="450" width="240" height="26" as="geometry" />
        </mxCell>
        <mxCell id="GeVHQDl4KtZDKLTdlYc9-224" value="+ waterWorks(position: int): Square" style="text;strokeColor=none;fillColor=none;align=left;verticalAlign=top;spacingLeft=4;spacingRight=4;overflow=hidden;rotatable=0;points=[[0,0.5],[1,0.5]];portConstraint=eastwest;" vertex="1" parent="GeVHQDl4KtZDKLTdlYc9-205">
          <mxGeometry y="476" width="240" height="26" as="geometry" />
        </mxCell>
        <mxCell id="GeVHQDl4KtZDKLTdlYc9-225" value="+ kingsCross(position: int): Square" style="text;strokeColor=none;fillColor=none;align=left;verticalAlign=top;spacingLeft=4;spacingRight=4;overflow=hidden;rotatable=0;points=[[0,0.5],[1,0.5]];portConstraint=eastwest;" vertex="1" parent="GeVHQDl4KtZDKLTdlYc9-205">
          <mxGeometry y="502" width="240" height="26" as="geometry" />
        </mxCell>
        <mxCell id="GeVHQDl4KtZDKLTdlYc9-226" value="+ marylebone(position: int): Square" style="text;strokeColor=none;fillColor=none;align=left;verticalAlign=top;spacingLeft=4;spacingRight=4;overflow=hidden;rotatable=0;points=[[0,0.5],[1,0.5]];portConstraint=eastwest;" vertex="1" parent="GeVHQDl4KtZDKLTdlYc9-205">
          <mxGeometry y="528" width="240" height="26" as="geometry" />
        </mxCell>
        <mxCell id="GeVHQDl4KtZDKLTdlYc9-227" value="+ fenchurch(position: int): Square" style="text;strokeColor=none;fillColor=none;align=left;verticalAlign=top;spacingLeft=4;spacingRight=4;overflow=hidden;rotatable=0;points=[[0,0.5],[1,0.5]];portConstraint=eastwest;" vertex="1" parent="GeVHQDl4KtZDKLTdlYc9-205">
          <mxGeometry y="554" width="240" height="26" as="geometry" />
        </mxCell>
        <mxCell id="GeVHQDl4KtZDKLTdlYc9-228" value="+ liverpool(position: int): Square" style="text;strokeColor=none;fillColor=none;align=left;verticalAlign=top;spacingLeft=4;spacingRight=4;overflow=hidden;rotatable=0;points=[[0,0.5],[1,0.5]];portConstraint=eastwest;" vertex="1" parent="GeVHQDl4KtZDKLTdlYc9-205">
          <mxGeometry y="580" width="240" height="26" as="geometry" />
        </mxCell>
        <mxCell id="GeVHQDl4KtZDKLTdlYc9-229" value="+ freeParking(position: int): Square" style="text;strokeColor=none;fillColor=none;align=left;verticalAlign=top;spacingLeft=4;spacingRight=4;overflow=hidden;rotatable=0;points=[[0,0.5],[1,0.5]];portConstraint=eastwest;" vertex="1" parent="GeVHQDl4KtZDKLTdlYc9-205">
          <mxGeometry y="606" width="240" height="26" as="geometry" />
        </mxCell>
        <mxCell id="GeVHQDl4KtZDKLTdlYc9-230" value="+ goToJail(position: int): Square" style="text;strokeColor=none;fillColor=none;align=left;verticalAlign=top;spacingLeft=4;spacingRight=4;overflow=hidden;rotatable=0;points=[[0,0.5],[1,0.5]];portConstraint=eastwest;" vertex="1" parent="GeVHQDl4KtZDKLTdlYc9-205">
          <mxGeometry y="632" width="240" height="26" as="geometry" />
        </mxCell>
        <mxCell id="GeVHQDl4KtZDKLTdlYc9-231" value="+ inJail(position: int): Square" style="text;strokeColor=none;fillColor=none;align=left;verticalAlign=top;spacingLeft=4;spacingRight=4;overflow=hidden;rotatable=0;points=[[0,0.5],[1,0.5]];portConstraint=eastwest;" vertex="1" parent="GeVHQDl4KtZDKLTdlYc9-205">
          <mxGeometry y="658" width="240" height="26" as="geometry" />
        </mxCell>
        <mxCell id="GeVHQDl4KtZDKLTdlYc9-232" value="+ justVisiting(position: int): Square" style="text;strokeColor=none;fillColor=none;align=left;verticalAlign=top;spacingLeft=4;spacingRight=4;overflow=hidden;rotatable=0;points=[[0,0.5],[1,0.5]];portConstraint=eastwest;" vertex="1" parent="GeVHQDl4KtZDKLTdlYc9-205">
          <mxGeometry y="684" width="240" height="26" as="geometry" />
        </mxCell>
        <mxCell id="GeVHQDl4KtZDKLTdlYc9-233" value="+ oldKent(position: int): Square" style="text;strokeColor=none;fillColor=none;align=left;verticalAlign=top;spacingLeft=4;spacingRight=4;overflow=hidden;rotatable=0;points=[[0,0.5],[1,0.5]];portConstraint=eastwest;" vertex="1" parent="GeVHQDl4KtZDKLTdlYc9-205">
          <mxGeometry y="710" width="240" height="26" as="geometry" />
        </mxCell>
        <mxCell id="GeVHQDl4KtZDKLTdlYc9-234" value="+ whitechapel(position: int): Square" style="text;strokeColor=none;fillColor=none;align=left;verticalAlign=top;spacingLeft=4;spacingRight=4;overflow=hidden;rotatable=0;points=[[0,0.5],[1,0.5]];portConstraint=eastwest;" vertex="1" parent="GeVHQDl4KtZDKLTdlYc9-205">
          <mxGeometry y="736" width="240" height="26" as="geometry" />
        </mxCell>
        <mxCell id="GeVHQDl4KtZDKLTdlYc9-235" value="+ theAngelIslington(position: int): Square" style="text;strokeColor=none;fillColor=none;align=left;verticalAlign=top;spacingLeft=4;spacingRight=4;overflow=hidden;rotatable=0;points=[[0,0.5],[1,0.5]];portConstraint=eastwest;" vertex="1" parent="GeVHQDl4KtZDKLTdlYc9-205">
          <mxGeometry y="762" width="240" height="26" as="geometry" />
        </mxCell>
        <mxCell id="GeVHQDl4KtZDKLTdlYc9-236" value="+ euston(position: int): Square" style="text;strokeColor=none;fillColor=none;align=left;verticalAlign=top;spacingLeft=4;spacingRight=4;overflow=hidden;rotatable=0;points=[[0,0.5],[1,0.5]];portConstraint=eastwest;" vertex="1" parent="GeVHQDl4KtZDKLTdlYc9-205">
          <mxGeometry y="788" width="240" height="26" as="geometry" />
        </mxCell>
        <mxCell id="GeVHQDl4KtZDKLTdlYc9-237" value="+ pentonville(position: int): Square" style="text;strokeColor=none;fillColor=none;align=left;verticalAlign=top;spacingLeft=4;spacingRight=4;overflow=hidden;rotatable=0;points=[[0,0.5],[1,0.5]];portConstraint=eastwest;" vertex="1" parent="GeVHQDl4KtZDKLTdlYc9-205">
          <mxGeometry y="814" width="240" height="26" as="geometry" />
        </mxCell>
        <mxCell id="GeVHQDl4KtZDKLTdlYc9-238" value="+ pallMall(position: int): Square" style="text;strokeColor=none;fillColor=none;align=left;verticalAlign=top;spacingLeft=4;spacingRight=4;overflow=hidden;rotatable=0;points=[[0,0.5],[1,0.5]];portConstraint=eastwest;" vertex="1" parent="GeVHQDl4KtZDKLTdlYc9-205">
          <mxGeometry y="840" width="240" height="26" as="geometry" />
        </mxCell>
        <mxCell id="GeVHQDl4KtZDKLTdlYc9-239" value="+ whitehall(position: int): Square" style="text;strokeColor=none;fillColor=none;align=left;verticalAlign=top;spacingLeft=4;spacingRight=4;overflow=hidden;rotatable=0;points=[[0,0.5],[1,0.5]];portConstraint=eastwest;" vertex="1" parent="GeVHQDl4KtZDKLTdlYc9-205">
          <mxGeometry y="866" width="240" height="26" as="geometry" />
        </mxCell>
        <mxCell id="GeVHQDl4KtZDKLTdlYc9-240" value="+ northumrld(position: int): Square" style="text;strokeColor=none;fillColor=none;align=left;verticalAlign=top;spacingLeft=4;spacingRight=4;overflow=hidden;rotatable=0;points=[[0,0.5],[1,0.5]];portConstraint=eastwest;" vertex="1" parent="GeVHQDl4KtZDKLTdlYc9-205">
          <mxGeometry y="892" width="240" height="26" as="geometry" />
        </mxCell>
        <mxCell id="GeVHQDl4KtZDKLTdlYc9-241" value="+ bow(position: int): Square" style="text;strokeColor=none;fillColor=none;align=left;verticalAlign=top;spacingLeft=4;spacingRight=4;overflow=hidden;rotatable=0;points=[[0,0.5],[1,0.5]];portConstraint=eastwest;" vertex="1" parent="GeVHQDl4KtZDKLTdlYc9-205">
          <mxGeometry y="918" width="240" height="26" as="geometry" />
        </mxCell>
        <mxCell id="GeVHQDl4KtZDKLTdlYc9-242" value="+ marlborough(position: int): Square" style="text;strokeColor=none;fillColor=none;align=left;verticalAlign=top;spacingLeft=4;spacingRight=4;overflow=hidden;rotatable=0;points=[[0,0.5],[1,0.5]];portConstraint=eastwest;" vertex="1" parent="GeVHQDl4KtZDKLTdlYc9-205">
          <mxGeometry y="944" width="240" height="26" as="geometry" />
        </mxCell>
        <mxCell id="GeVHQDl4KtZDKLTdlYc9-243" value="+ vine(position: int): Square" style="text;strokeColor=none;fillColor=none;align=left;verticalAlign=top;spacingLeft=4;spacingRight=4;overflow=hidden;rotatable=0;points=[[0,0.5],[1,0.5]];portConstraint=eastwest;" vertex="1" parent="GeVHQDl4KtZDKLTdlYc9-205">
          <mxGeometry y="970" width="240" height="26" as="geometry" />
        </mxCell>
        <mxCell id="GeVHQDl4KtZDKLTdlYc9-244" value="+ strand(position: int): Square" style="text;strokeColor=none;fillColor=none;align=left;verticalAlign=top;spacingLeft=4;spacingRight=4;overflow=hidden;rotatable=0;points=[[0,0.5],[1,0.5]];portConstraint=eastwest;" vertex="1" parent="GeVHQDl4KtZDKLTdlYc9-205">
          <mxGeometry y="996" width="240" height="26" as="geometry" />
        </mxCell>
        <mxCell id="GeVHQDl4KtZDKLTdlYc9-245" value="+ fleet(position: int): Square" style="text;strokeColor=none;fillColor=none;align=left;verticalAlign=top;spacingLeft=4;spacingRight=4;overflow=hidden;rotatable=0;points=[[0,0.5],[1,0.5]];portConstraint=eastwest;" vertex="1" parent="GeVHQDl4KtZDKLTdlYc9-205">
          <mxGeometry y="1022" width="240" height="26" as="geometry" />
        </mxCell>
        <mxCell id="GeVHQDl4KtZDKLTdlYc9-246" value="+ trafalgar(position: int): Square" style="text;strokeColor=none;fillColor=none;align=left;verticalAlign=top;spacingLeft=4;spacingRight=4;overflow=hidden;rotatable=0;points=[[0,0.5],[1,0.5]];portConstraint=eastwest;" vertex="1" parent="GeVHQDl4KtZDKLTdlYc9-205">
          <mxGeometry y="1048" width="240" height="26" as="geometry" />
        </mxCell>
        <mxCell id="GeVHQDl4KtZDKLTdlYc9-247" value="+ leicester(position: int): Square" style="text;strokeColor=none;fillColor=none;align=left;verticalAlign=top;spacingLeft=4;spacingRight=4;overflow=hidden;rotatable=0;points=[[0,0.5],[1,0.5]];portConstraint=eastwest;" vertex="1" parent="GeVHQDl4KtZDKLTdlYc9-205">
          <mxGeometry y="1074" width="240" height="26" as="geometry" />
        </mxCell>
        <mxCell id="GeVHQDl4KtZDKLTdlYc9-248" value="+ conventry(position: int): Square" style="text;strokeColor=none;fillColor=none;align=left;verticalAlign=top;spacingLeft=4;spacingRight=4;overflow=hidden;rotatable=0;points=[[0,0.5],[1,0.5]];portConstraint=eastwest;" vertex="1" parent="GeVHQDl4KtZDKLTdlYc9-205">
          <mxGeometry y="1100" width="240" height="26" as="geometry" />
        </mxCell>
        <mxCell id="GeVHQDl4KtZDKLTdlYc9-249" value="+ piccadilly(position: int): Square" style="text;strokeColor=none;fillColor=none;align=left;verticalAlign=top;spacingLeft=4;spacingRight=4;overflow=hidden;rotatable=0;points=[[0,0.5],[1,0.5]];portConstraint=eastwest;" vertex="1" parent="GeVHQDl4KtZDKLTdlYc9-205">
          <mxGeometry y="1126" width="240" height="26" as="geometry" />
        </mxCell>
        <mxCell id="GeVHQDl4KtZDKLTdlYc9-250" value="+ regent(position: int): Square" style="text;strokeColor=none;fillColor=none;align=left;verticalAlign=top;spacingLeft=4;spacingRight=4;overflow=hidden;rotatable=0;points=[[0,0.5],[1,0.5]];portConstraint=eastwest;" vertex="1" parent="GeVHQDl4KtZDKLTdlYc9-205">
          <mxGeometry y="1152" width="240" height="26" as="geometry" />
        </mxCell>
        <mxCell id="GeVHQDl4KtZDKLTdlYc9-251" value="+ oxford(position: int): Square" style="text;strokeColor=none;fillColor=none;align=left;verticalAlign=top;spacingLeft=4;spacingRight=4;overflow=hidden;rotatable=0;points=[[0,0.5],[1,0.5]];portConstraint=eastwest;" vertex="1" parent="GeVHQDl4KtZDKLTdlYc9-205">
          <mxGeometry y="1178" width="240" height="26" as="geometry" />
        </mxCell>
        <mxCell id="GeVHQDl4KtZDKLTdlYc9-252" value="+ bond(position: int): Square" style="text;strokeColor=none;fillColor=none;align=left;verticalAlign=top;spacingLeft=4;spacingRight=4;overflow=hidden;rotatable=0;points=[[0,0.5],[1,0.5]];portConstraint=eastwest;" vertex="1" parent="GeVHQDl4KtZDKLTdlYc9-205">
          <mxGeometry y="1204" width="240" height="26" as="geometry" />
        </mxCell>
        <mxCell id="GeVHQDl4KtZDKLTdlYc9-253" value="+ park(position: int): Square" style="text;strokeColor=none;fillColor=none;align=left;verticalAlign=top;spacingLeft=4;spacingRight=4;overflow=hidden;rotatable=0;points=[[0,0.5],[1,0.5]];portConstraint=eastwest;" vertex="1" parent="GeVHQDl4KtZDKLTdlYc9-205">
          <mxGeometry y="1230" width="240" height="26" as="geometry" />
        </mxCell>
        <mxCell id="GeVHQDl4KtZDKLTdlYc9-254" value="+ mayfair(position: int): Square" style="text;strokeColor=none;fillColor=none;align=left;verticalAlign=top;spacingLeft=4;spacingRight=4;overflow=hidden;rotatable=0;points=[[0,0.5],[1,0.5]];portConstraint=eastwest;" vertex="1" parent="GeVHQDl4KtZDKLTdlYc9-205">
          <mxGeometry y="1256" width="240" height="26" as="geometry" />
        </mxCell>
        <mxCell id="GeVHQDl4KtZDKLTdlYc9-255" value="Input" style="swimlane;fontStyle=1;align=center;verticalAlign=top;childLayout=stackLayout;horizontal=1;startSize=26;horizontalStack=0;resizeParent=1;resizeParentMax=0;resizeLast=0;collapsible=1;marginBottom=0;" vertex="1" parent="1">
          <mxGeometry x="-1630" y="909" width="210" height="190" as="geometry" />
        </mxCell>
        <mxCell id="GeVHQDl4KtZDKLTdlYc9-256" value="- scanner: Scanner" style="text;strokeColor=none;fillColor=none;align=left;verticalAlign=top;spacingLeft=4;spacingRight=4;overflow=hidden;rotatable=0;points=[[0,0.5],[1,0.5]];portConstraint=eastwest;" vertex="1" parent="GeVHQDl4KtZDKLTdlYc9-255">
          <mxGeometry y="26" width="210" height="26" as="geometry" />
        </mxCell>
        <mxCell id="GeVHQDl4KtZDKLTdlYc9-257" value="" style="line;strokeWidth=1;fillColor=none;align=left;verticalAlign=middle;spacingTop=-1;spacingLeft=3;spacingRight=3;rotatable=0;labelPosition=right;points=[];portConstraint=eastwest;" vertex="1" parent="GeVHQDl4KtZDKLTdlYc9-255">
          <mxGeometry y="52" width="210" height="8" as="geometry" />
        </mxCell>
        <mxCell id="GeVHQDl4KtZDKLTdlYc9-258" value="+ Input()" style="text;strokeColor=none;fillColor=none;align=left;verticalAlign=top;spacingLeft=4;spacingRight=4;overflow=hidden;rotatable=0;points=[[0,0.5],[1,0.5]];portConstraint=eastwest;" vertex="1" parent="GeVHQDl4KtZDKLTdlYc9-255">
          <mxGeometry y="60" width="210" height="26" as="geometry" />
        </mxCell>
        <mxCell id="GeVHQDl4KtZDKLTdlYc9-259" value="+ inputString(): String" style="text;strokeColor=none;fillColor=none;align=left;verticalAlign=top;spacingLeft=4;spacingRight=4;overflow=hidden;rotatable=0;points=[[0,0.5],[1,0.5]];portConstraint=eastwest;" vertex="1" parent="GeVHQDl4KtZDKLTdlYc9-255">
          <mxGeometry y="86" width="210" height="26" as="geometry" />
        </mxCell>
        <mxCell id="GeVHQDl4KtZDKLTdlYc9-260" value="+ inputBool(): boolean" style="text;strokeColor=none;fillColor=none;align=left;verticalAlign=top;spacingLeft=4;spacingRight=4;overflow=hidden;rotatable=0;points=[[0,0.5],[1,0.5]];portConstraint=eastwest;" vertex="1" parent="GeVHQDl4KtZDKLTdlYc9-255">
          <mxGeometry y="112" width="210" height="26" as="geometry" />
        </mxCell>
        <mxCell id="GeVHQDl4KtZDKLTdlYc9-261" value="+ inputDecision(choices: String[]): int " style="text;strokeColor=none;fillColor=none;align=left;verticalAlign=top;spacingLeft=4;spacingRight=4;overflow=hidden;rotatable=0;points=[[0,0.5],[1,0.5]];portConstraint=eastwest;" vertex="1" parent="GeVHQDl4KtZDKLTdlYc9-255">
          <mxGeometry y="138" width="210" height="26" as="geometry" />
        </mxCell>
        <mxCell id="GeVHQDl4KtZDKLTdlYc9-262" value="+ inputInt(): int" style="text;strokeColor=none;fillColor=none;align=left;verticalAlign=top;spacingLeft=4;spacingRight=4;overflow=hidden;rotatable=0;points=[[0,0.5],[1,0.5]];portConstraint=eastwest;" vertex="1" parent="GeVHQDl4KtZDKLTdlYc9-255">
          <mxGeometry y="164" width="210" height="26" as="geometry" />
        </mxCell>
        <mxCell id="GeVHQDl4KtZDKLTdlYc9-263" value="Monopoly" style="swimlane;fontStyle=1;align=center;verticalAlign=top;childLayout=stackLayout;horizontal=1;startSize=26;horizontalStack=0;resizeParent=1;resizeParentMax=0;resizeLast=0;collapsible=1;marginBottom=0;" vertex="1" parent="1">
          <mxGeometry x="-2060" y="727" width="320" height="554" as="geometry" />
        </mxCell>
        <mxCell id="GeVHQDl4KtZDKLTdlYc9-264" value="- rollDice: RollDice" style="text;strokeColor=none;fillColor=none;align=left;verticalAlign=top;spacingLeft=4;spacingRight=4;overflow=hidden;rotatable=0;points=[[0,0.5],[1,0.5]];portConstraint=eastwest;" vertex="1" parent="GeVHQDl4KtZDKLTdlYc9-263">
          <mxGeometry y="26" width="320" height="26" as="geometry" />
        </mxCell>
        <mxCell id="GeVHQDl4KtZDKLTdlYc9-265" value="- gameState: GameState" style="text;strokeColor=none;fillColor=none;align=left;verticalAlign=top;spacingLeft=4;spacingRight=4;overflow=hidden;rotatable=0;points=[[0,0.5],[1,0.5]];portConstraint=eastwest;" vertex="1" parent="GeVHQDl4KtZDKLTdlYc9-263">
          <mxGeometry y="52" width="320" height="26" as="geometry" />
        </mxCell>
        <mxCell id="GeVHQDl4KtZDKLTdlYc9-266" value="- isBankrupt: boolean" style="text;strokeColor=none;fillColor=none;align=left;verticalAlign=top;spacingLeft=4;spacingRight=4;overflow=hidden;rotatable=0;points=[[0,0.5],[1,0.5]];portConstraint=eastwest;" vertex="1" parent="GeVHQDl4KtZDKLTdlYc9-263">
          <mxGeometry y="78" width="320" height="26" as="geometry" />
        </mxCell>
        <mxCell id="GeVHQDl4KtZDKLTdlYc9-267" value="" style="line;strokeWidth=1;fillColor=none;align=left;verticalAlign=middle;spacingTop=-1;spacingLeft=3;spacingRight=3;rotatable=0;labelPosition=right;points=[];portConstraint=eastwest;" vertex="1" parent="GeVHQDl4KtZDKLTdlYc9-263">
          <mxGeometry y="104" width="320" height="8" as="geometry" />
        </mxCell>
        <mxCell id="GeVHQDl4KtZDKLTdlYc9-268" value="+ Monopoly()" style="text;strokeColor=none;fillColor=none;align=left;verticalAlign=top;spacingLeft=4;spacingRight=4;overflow=hidden;rotatable=0;points=[[0,0.5],[1,0.5]];portConstraint=eastwest;" vertex="1" parent="GeVHQDl4KtZDKLTdlYc9-263">
          <mxGeometry y="112" width="320" height="26" as="geometry" />
        </mxCell>
        <mxCell id="GeVHQDl4KtZDKLTdlYc9-269" value="+ DecisionState: enum" style="text;strokeColor=none;fillColor=none;align=left;verticalAlign=top;spacingLeft=4;spacingRight=4;overflow=hidden;rotatable=0;points=[[0,0.5],[1,0.5]];portConstraint=eastwest;" vertex="1" parent="GeVHQDl4KtZDKLTdlYc9-263">
          <mxGeometry y="138" width="320" height="26" as="geometry" />
        </mxCell>
        <mxCell id="GeVHQDl4KtZDKLTdlYc9-270" value="+ GameState: class" style="text;strokeColor=none;fillColor=none;align=left;verticalAlign=top;spacingLeft=4;spacingRight=4;overflow=hidden;rotatable=0;points=[[0,0.5],[1,0.5]];portConstraint=eastwest;" vertex="1" parent="GeVHQDl4KtZDKLTdlYc9-263">
          <mxGeometry y="164" width="320" height="26" as="geometry" />
        </mxCell>
        <mxCell id="GeVHQDl4KtZDKLTdlYc9-271" value="+ play(): void" style="text;strokeColor=none;fillColor=none;align=left;verticalAlign=top;spacingLeft=4;spacingRight=4;overflow=hidden;rotatable=0;points=[[0,0.5],[1,0.5]];portConstraint=eastwest;" vertex="1" parent="GeVHQDl4KtZDKLTdlYc9-263">
          <mxGeometry y="190" width="320" height="26" as="geometry" />
        </mxCell>
        <mxCell id="GeVHQDl4KtZDKLTdlYc9-272" value="+ initializePlayers(input: Input): void" style="text;strokeColor=none;fillColor=none;align=left;verticalAlign=top;spacingLeft=4;spacingRight=4;overflow=hidden;rotatable=0;points=[[0,0.5],[1,0.5]];portConstraint=eastwest;" vertex="1" parent="GeVHQDl4KtZDKLTdlYc9-263">
          <mxGeometry y="216" width="320" height="26" as="geometry" />
        </mxCell>
        <mxCell id="GeVHQDl4KtZDKLTdlYc9-273" value="+ turn(): void" style="text;strokeColor=none;fillColor=none;align=left;verticalAlign=top;spacingLeft=4;spacingRight=4;overflow=hidden;rotatable=0;points=[[0,0.5],[1,0.5]];portConstraint=eastwest;" vertex="1" parent="GeVHQDl4KtZDKLTdlYc9-263">
          <mxGeometry y="242" width="320" height="26" as="geometry" />
        </mxCell>
        <mxCell id="GeVHQDl4KtZDKLTdlYc9-274" value="+ printState(): void" style="text;strokeColor=none;fillColor=none;align=left;verticalAlign=top;spacingLeft=4;spacingRight=4;overflow=hidden;rotatable=0;points=[[0,0.5],[1,0.5]];portConstraint=eastwest;" vertex="1" parent="GeVHQDl4KtZDKLTdlYc9-263">
          <mxGeometry y="268" width="320" height="26" as="geometry" />
        </mxCell>
        <mxCell id="GeVHQDl4KtZDKLTdlYc9-275" value="+ handleSquare(player: Player, square: Square, roll: int)" style="text;strokeColor=none;fillColor=none;align=left;verticalAlign=top;spacingLeft=4;spacingRight=4;overflow=hidden;rotatable=0;points=[[0,0.5],[1,0.5]];portConstraint=eastwest;" vertex="1" parent="GeVHQDl4KtZDKLTdlYc9-263">
          <mxGeometry y="294" width="320" height="26" as="geometry" />
        </mxCell>
        <mxCell id="GeVHQDl4KtZDKLTdlYc9-276" value="+ unowned(player: Player, square: Square): void" style="text;strokeColor=none;fillColor=none;align=left;verticalAlign=top;spacingLeft=4;spacingRight=4;overflow=hidden;rotatable=0;points=[[0,0.5],[1,0.5]];portConstraint=eastwest;" vertex="1" parent="GeVHQDl4KtZDKLTdlYc9-263">
          <mxGeometry y="320" width="320" height="26" as="geometry" />
        </mxCell>
        <mxCell id="GeVHQDl4KtZDKLTdlYc9-277" value="+ buyProperty(player: Player, square: Square): void" style="text;strokeColor=none;fillColor=none;align=left;verticalAlign=top;spacingLeft=4;spacingRight=4;overflow=hidden;rotatable=0;points=[[0,0.5],[1,0.5]];portConstraint=eastwest;" vertex="1" parent="GeVHQDl4KtZDKLTdlYc9-263">
          <mxGeometry y="346" width="320" height="26" as="geometry" />
        </mxCell>
        <mxCell id="GeVHQDl4KtZDKLTdlYc9-278" value="+ owned(player: Player, square: Square, roll: int): void" style="text;strokeColor=none;fillColor=none;align=left;verticalAlign=top;spacingLeft=4;spacingRight=4;overflow=hidden;rotatable=0;points=[[0,0.5],[1,0.5]];portConstraint=eastwest;" vertex="1" parent="GeVHQDl4KtZDKLTdlYc9-263">
          <mxGeometry y="372" width="320" height="26" as="geometry" />
        </mxCell>
        <mxCell id="GeVHQDl4KtZDKLTdlYc9-279" value="+ payTax(player: Player, tax: Taxes, square: Square): void" style="text;strokeColor=none;fillColor=none;align=left;verticalAlign=top;spacingLeft=4;spacingRight=4;overflow=hidden;rotatable=0;points=[[0,0.5],[1,0.5]];portConstraint=eastwest;" vertex="1" parent="GeVHQDl4KtZDKLTdlYc9-263">
          <mxGeometry y="398" width="320" height="26" as="geometry" />
        </mxCell>
        <mxCell id="GeVHQDl4KtZDKLTdlYc9-280" value="+ railroadMove(player: Player): void" style="text;strokeColor=none;fillColor=none;align=left;verticalAlign=top;spacingLeft=4;spacingRight=4;overflow=hidden;rotatable=0;points=[[0,0.5],[1,0.5]];portConstraint=eastwest;" vertex="1" parent="GeVHQDl4KtZDKLTdlYc9-263">
          <mxGeometry y="424" width="320" height="26" as="geometry" />
        </mxCell>
        <mxCell id="GeVHQDl4KtZDKLTdlYc9-281" value="+ jailAction(player: Player, jail: Jail): void" style="text;strokeColor=none;fillColor=none;align=left;verticalAlign=top;spacingLeft=4;spacingRight=4;overflow=hidden;rotatable=0;points=[[0,0.5],[1,0.5]];portConstraint=eastwest;" vertex="1" parent="GeVHQDl4KtZDKLTdlYc9-263">
          <mxGeometry y="450" width="320" height="26" as="geometry" />
        </mxCell>
        <mxCell id="GeVHQDl4KtZDKLTdlYc9-282" value="+ intoJail(player: Player): void" style="text;strokeColor=none;fillColor=none;align=left;verticalAlign=top;spacingLeft=4;spacingRight=4;overflow=hidden;rotatable=0;points=[[0,0.5],[1,0.5]];portConstraint=eastwest;" vertex="1" parent="GeVHQDl4KtZDKLTdlYc9-263">
          <mxGeometry y="476" width="320" height="26" as="geometry" />
        </mxCell>
        <mxCell id="GeVHQDl4KtZDKLTdlYc9-283" value="+ leaveJail(player: Player): void" style="text;strokeColor=none;fillColor=none;align=left;verticalAlign=top;spacingLeft=4;spacingRight=4;overflow=hidden;rotatable=0;points=[[0,0.5],[1,0.5]];portConstraint=eastwest;" vertex="1" parent="GeVHQDl4KtZDKLTdlYc9-263">
          <mxGeometry y="502" width="320" height="26" as="geometry" />
        </mxCell>
        <mxCell id="GeVHQDl4KtZDKLTdlYc9-284" value="+ isBankrupt(): boolean" style="text;strokeColor=none;fillColor=none;align=left;verticalAlign=top;spacingLeft=4;spacingRight=4;overflow=hidden;rotatable=0;points=[[0,0.5],[1,0.5]];portConstraint=eastwest;" vertex="1" parent="GeVHQDl4KtZDKLTdlYc9-263">
          <mxGeometry y="528" width="320" height="26" as="geometry" />
        </mxCell>
        <mxCell id="GeVHQDl4KtZDKLTdlYc9-285" value="&lt;&lt;enumeration&gt;&gt;&#xa;DecisionState" style="swimlane;fontStyle=1;childLayout=stackLayout;horizontal=1;startSize=40;fillColor=none;horizontalStack=0;resizeParent=1;resizeParentMax=0;resizeLast=0;collapsible=1;marginBottom=0;" vertex="1" parent="1">
          <mxGeometry x="-1970" y="1328" width="140" height="170" as="geometry" />
        </mxCell>
        <mxCell id="GeVHQDl4KtZDKLTdlYc9-286" value="NONE" style="text;strokeColor=none;fillColor=none;align=left;verticalAlign=top;spacingLeft=4;spacingRight=4;overflow=hidden;rotatable=0;points=[[0,0.5],[1,0.5]];portConstraint=eastwest;" vertex="1" parent="GeVHQDl4KtZDKLTdlYc9-285">
          <mxGeometry y="40" width="140" height="26" as="geometry" />
        </mxCell>
        <mxCell id="GeVHQDl4KtZDKLTdlYc9-287" value="BUY_PROPERTY" style="text;strokeColor=none;fillColor=none;align=left;verticalAlign=top;spacingLeft=4;spacingRight=4;overflow=hidden;rotatable=0;points=[[0,0.5],[1,0.5]];portConstraint=eastwest;" vertex="1" parent="GeVHQDl4KtZDKLTdlYc9-285">
          <mxGeometry y="66" width="140" height="26" as="geometry" />
        </mxCell>
        <mxCell id="GeVHQDl4KtZDKLTdlYc9-288" value="BUY_HOUSE" style="text;strokeColor=none;fillColor=none;align=left;verticalAlign=top;spacingLeft=4;spacingRight=4;overflow=hidden;rotatable=0;points=[[0,0.5],[1,0.5]];portConstraint=eastwest;" vertex="1" parent="GeVHQDl4KtZDKLTdlYc9-285">
          <mxGeometry y="92" width="140" height="26" as="geometry" />
        </mxCell>
        <mxCell id="GeVHQDl4KtZDKLTdlYc9-289" value="TURN_ACTION" style="text;strokeColor=none;fillColor=none;align=left;verticalAlign=top;spacingLeft=4;spacingRight=4;overflow=hidden;rotatable=0;points=[[0,0.5],[1,0.5]];portConstraint=eastwest;" vertex="1" parent="GeVHQDl4KtZDKLTdlYc9-285">
          <mxGeometry y="118" width="140" height="26" as="geometry" />
        </mxCell>
        <mxCell id="GeVHQDl4KtZDKLTdlYc9-290" value="INCOME_TAX" style="text;strokeColor=none;fillColor=none;align=left;verticalAlign=top;spacingLeft=4;spacingRight=4;overflow=hidden;rotatable=0;points=[[0,0.5],[1,0.5]];portConstraint=eastwest;" vertex="1" parent="GeVHQDl4KtZDKLTdlYc9-285">
          <mxGeometry y="144" width="140" height="26" as="geometry" />
        </mxCell>
        <mxCell id="GeVHQDl4KtZDKLTdlYc9-291" value="GameState" style="swimlane;fontStyle=1;align=center;verticalAlign=top;childLayout=stackLayout;horizontal=1;startSize=26;horizontalStack=0;resizeParent=1;resizeParentMax=0;resizeLast=0;collapsible=1;marginBottom=0;" vertex="1" parent="1">
          <mxGeometry x="-2000" y="482" width="200" height="138" as="geometry" />
        </mxCell>
        <mxCell id="GeVHQDl4KtZDKLTdlYc9-292" value="+ decisionState: DecisionState" style="text;strokeColor=none;fillColor=none;align=left;verticalAlign=top;spacingLeft=4;spacingRight=4;overflow=hidden;rotatable=0;points=[[0,0.5],[1,0.5]];portConstraint=eastwest;" vertex="1" parent="GeVHQDl4KtZDKLTdlYc9-291">
          <mxGeometry y="26" width="200" height="26" as="geometry" />
        </mxCell>
        <mxCell id="GeVHQDl4KtZDKLTdlYc9-293" value="+ players: Queue&lt;Player&gt;" style="text;strokeColor=none;fillColor=none;align=left;verticalAlign=top;spacingLeft=4;spacingRight=4;overflow=hidden;rotatable=0;points=[[0,0.5],[1,0.5]];portConstraint=eastwest;" vertex="1" parent="GeVHQDl4KtZDKLTdlYc9-291">
          <mxGeometry y="52" width="200" height="26" as="geometry" />
        </mxCell>
        <mxCell id="GeVHQDl4KtZDKLTdlYc9-294" value="+ GameBoard: gameBoard" style="text;strokeColor=none;fillColor=none;align=left;verticalAlign=top;spacingLeft=4;spacingRight=4;overflow=hidden;rotatable=0;points=[[0,0.5],[1,0.5]];portConstraint=eastwest;" vertex="1" parent="GeVHQDl4KtZDKLTdlYc9-291">
          <mxGeometry y="78" width="200" height="26" as="geometry" />
        </mxCell>
        <mxCell id="GeVHQDl4KtZDKLTdlYc9-295" value="+ currentPlayer: Player" style="text;strokeColor=none;fillColor=none;align=left;verticalAlign=top;spacingLeft=4;spacingRight=4;overflow=hidden;rotatable=0;points=[[0,0.5],[1,0.5]];portConstraint=eastwest;" vertex="1" parent="GeVHQDl4KtZDKLTdlYc9-291">
          <mxGeometry y="104" width="200" height="26" as="geometry" />
        </mxCell>
        <mxCell id="GeVHQDl4KtZDKLTdlYc9-296" value="" style="line;strokeWidth=1;fillColor=none;align=left;verticalAlign=middle;spacingTop=-1;spacingLeft=3;spacingRight=3;rotatable=0;labelPosition=right;points=[];portConstraint=eastwest;" vertex="1" parent="GeVHQDl4KtZDKLTdlYc9-291">
          <mxGeometry y="130" width="200" height="8" as="geometry" />
        </mxCell>
        <mxCell id="GeVHQDl4KtZDKLTdlYc9-297" value="" style="endArrow=diamondThin;endFill=0;endSize=24;html=1;rounded=0;" edge="1" parent="1" source="GeVHQDl4KtZDKLTdlYc9-255" target="GeVHQDl4KtZDKLTdlYc9-263">
          <mxGeometry width="160" relative="1" as="geometry">
            <mxPoint x="-2010" y="1056.5" as="sourcePoint" />
            <mxPoint x="-1850" y="1056.5" as="targetPoint" />
          </mxGeometry>
        </mxCell>
        <mxCell id="GeVHQDl4KtZDKLTdlYc9-298" value="" style="endArrow=diamondThin;endFill=0;endSize=24;html=1;rounded=0;" edge="1" parent="1" source="GeVHQDl4KtZDKLTdlYc9-36" target="GeVHQDl4KtZDKLTdlYc9-263">
          <mxGeometry width="160" relative="1" as="geometry">
            <mxPoint x="-2115" y="1327" as="sourcePoint" />
            <mxPoint x="-2225" y="1327" as="targetPoint" />
          </mxGeometry>
        </mxCell>
        <mxCell id="GeVHQDl4KtZDKLTdlYc9-299" value="" style="endArrow=diamondThin;endFill=1;endSize=24;html=1;rounded=0;" edge="1" parent="1" source="GeVHQDl4KtZDKLTdlYc9-291" target="GeVHQDl4KtZDKLTdlYc9-263">
          <mxGeometry width="160" relative="1" as="geometry">
            <mxPoint x="-1820" y="869" as="sourcePoint" />
            <mxPoint x="-1810" y="649" as="targetPoint" />
          </mxGeometry>
        </mxCell>
        <mxCell id="GeVHQDl4KtZDKLTdlYc9-300" value="&lt;b&gt;SYSC 3110 - Milestone 2&lt;/b&gt;&lt;br&gt;&lt;b&gt;Group 17&lt;/b&gt;&lt;br&gt;&lt;b&gt;Members:&lt;/b&gt;&lt;br&gt;Trong Nguyen 100848232 &lt;br&gt;Francisco De Grano 101147447 &lt;br&gt;Ibrahim Almalki 101142978 &lt;br&gt;Elisha Catherasoo&amp;nbsp;101148507&lt;br&gt;&lt;b&gt;Date: &lt;/b&gt;Nov. 8, 2021" style="text;html=1;strokeColor=none;fillColor=none;align=left;verticalAlign=middle;whiteSpace=wrap;rounded=0;" vertex="1" parent="1">
          <mxGeometry x="-3220" y="2369" width="200" height="130" as="geometry" />
        </mxCell>
        <mxCell id="GeVHQDl4KtZDKLTdlYc9-301" value="" style="endArrow=block;dashed=1;endFill=0;endSize=12;html=1;rounded=0;" edge="1" parent="1" source="GeVHQDl4KtZDKLTdlYc9-44" target="GeVHQDl4KtZDKLTdlYc9-19">
          <mxGeometry width="160" relative="1" as="geometry">
            <mxPoint x="-2850" y="769" as="sourcePoint" />
            <mxPoint x="-2690" y="769" as="targetPoint" />
          </mxGeometry>
        </mxCell>
        <mxCell id="GeVHQDl4KtZDKLTdlYc9-302" value="" style="endArrow=block;dashed=1;endFill=0;endSize=12;html=1;rounded=0;" edge="1" parent="1" target="GeVHQDl4KtZDKLTdlYc9-1">
          <mxGeometry width="160" relative="1" as="geometry">
            <mxPoint x="-250" y="700" as="sourcePoint" />
            <mxPoint x="-390" y="699" as="targetPoint" />
          </mxGeometry>
        </mxCell>
        <mxCell id="GeVHQDl4KtZDKLTdlYc9-303" value="" style="endArrow=block;dashed=1;endFill=0;endSize=12;html=1;rounded=0;" edge="1" parent="1" source="GeVHQDl4KtZDKLTdlYc9-36" target="GeVHQDl4KtZDKLTdlYc9-13">
          <mxGeometry width="160" relative="1" as="geometry">
            <mxPoint x="-2090" y="949" as="sourcePoint" />
            <mxPoint x="-1930" y="949" as="targetPoint" />
          </mxGeometry>
        </mxCell>
        <mxCell id="GeVHQDl4KtZDKLTdlYc9-304" value="" style="endArrow=diamondThin;endFill=0;endSize=24;html=1;rounded=0;" edge="1" parent="1" source="GeVHQDl4KtZDKLTdlYc9-1" target="GeVHQDl4KtZDKLTdlYc9-210">
          <mxGeometry width="160" relative="1" as="geometry">
            <mxPoint x="-930" y="509" as="sourcePoint" />
            <mxPoint x="-770" y="509" as="targetPoint" />
          </mxGeometry>
        </mxCell>
        <mxCell id="GeVHQDl4KtZDKLTdlYc9-305" value="" style="endArrow=diamondThin;endFill=0;endSize=24;html=1;rounded=0;" edge="1" parent="1" source="GeVHQDl4KtZDKLTdlYc9-19" target="GeVHQDl4KtZDKLTdlYc9-291">
          <mxGeometry width="160" relative="1" as="geometry">
            <mxPoint x="-1990" y="669" as="sourcePoint" />
            <mxPoint x="-1830" y="669" as="targetPoint" />
          </mxGeometry>
        </mxCell>
        <mxCell id="GeVHQDl4KtZDKLTdlYc9-306" value="" style="endArrow=diamondThin;endFill=0;endSize=24;html=1;rounded=0;" edge="1" parent="1" source="GeVHQDl4KtZDKLTdlYc9-213" target="GeVHQDl4KtZDKLTdlYc9-291">
          <mxGeometry width="160" relative="1" as="geometry">
            <mxPoint x="-1740" y="759" as="sourcePoint" />
            <mxPoint x="-1580" y="759" as="targetPoint" />
          </mxGeometry>
        </mxCell>
        <mxCell id="GeVHQDl4KtZDKLTdlYc9-307" value="" style="endArrow=none;html=1;rounded=0;" edge="1" parent="1" source="GeVHQDl4KtZDKLTdlYc9-285" target="GeVHQDl4KtZDKLTdlYc9-263">
          <mxGeometry width="50" height="50" relative="1" as="geometry">
            <mxPoint x="-1630" y="1069" as="sourcePoint" />
            <mxPoint x="-1580" y="1019" as="targetPoint" />
          </mxGeometry>
        </mxCell>
        <mxCell id="GeVHQDl4KtZDKLTdlYc9-308" value="" style="endArrow=none;html=1;rounded=0;" edge="1" parent="1" source="GeVHQDl4KtZDKLTdlYc9-201" target="GeVHQDl4KtZDKLTdlYc9-139">
          <mxGeometry width="50" height="50" relative="1" as="geometry">
            <mxPoint x="-1630" y="1069" as="sourcePoint" />
            <mxPoint x="-1580" y="1019" as="targetPoint" />
          </mxGeometry>
        </mxCell>
        <mxCell id="GeVHQDl4KtZDKLTdlYc9-309" value="MonopolyGUI" style="swimlane;fontStyle=1;align=center;verticalAlign=top;childLayout=stackLayout;horizontal=1;startSize=26;horizontalStack=0;resizeParent=1;resizeParentMax=0;resizeLast=0;collapsible=1;marginBottom=0;" vertex="1" parent="1">
          <mxGeometry x="-2470" y="1710" width="340" height="1126" as="geometry" />
        </mxCell>
        <mxCell id="GeVHQDl4KtZDKLTdlYc9-310" value="- monopoly: Monopoly" style="text;strokeColor=none;fillColor=none;align=left;verticalAlign=top;spacingLeft=4;spacingRight=4;overflow=hidden;rotatable=0;points=[[0,0.5],[1,0.5]];portConstraint=eastwest;" vertex="1" parent="GeVHQDl4KtZDKLTdlYc9-309">
          <mxGeometry y="26" width="340" height="26" as="geometry" />
        </mxCell>
        <mxCell id="GeVHQDl4KtZDKLTdlYc9-311" value="- controller: MonopolyController = new MonopolyController()" style="text;strokeColor=none;fillColor=none;align=left;verticalAlign=top;spacingLeft=4;spacingRight=4;overflow=hidden;rotatable=0;points=[[0,0.5],[1,0.5]];portConstraint=eastwest;" vertex="1" parent="GeVHQDl4KtZDKLTdlYc9-309">
          <mxGeometry y="52" width="340" height="26" as="geometry" />
        </mxCell>
        <mxCell id="GeVHQDl4KtZDKLTdlYc9-312" value="- playerList: LinkedList&lt;Player&gt;" style="text;strokeColor=none;fillColor=none;align=left;verticalAlign=top;spacingLeft=4;spacingRight=4;overflow=hidden;rotatable=0;points=[[0,0.5],[1,0.5]];portConstraint=eastwest;" vertex="1" parent="GeVHQDl4KtZDKLTdlYc9-309">
          <mxGeometry y="78" width="340" height="26" as="geometry" />
        </mxCell>
        <mxCell id="GeVHQDl4KtZDKLTdlYc9-313" value="- gameBoard: GameBoardGUI" style="text;strokeColor=none;fillColor=none;align=left;verticalAlign=top;spacingLeft=4;spacingRight=4;overflow=hidden;rotatable=0;points=[[0,0.5],[1,0.5]];portConstraint=eastwest;" vertex="1" parent="GeVHQDl4KtZDKLTdlYc9-309">
          <mxGeometry y="104" width="340" height="26" as="geometry" />
        </mxCell>
        <mxCell id="GeVHQDl4KtZDKLTdlYc9-314" value="- infoConsole: JTextArea" style="text;strokeColor=none;fillColor=none;align=left;verticalAlign=top;spacingLeft=4;spacingRight=4;overflow=hidden;rotatable=0;points=[[0,0.5],[1,0.5]];portConstraint=eastwest;fontStyle=4" vertex="1" parent="GeVHQDl4KtZDKLTdlYc9-309">
          <mxGeometry y="130" width="340" height="26" as="geometry" />
        </mxCell>
        <mxCell id="GeVHQDl4KtZDKLTdlYc9-315" value="- currentPlayerOrder: int" style="text;strokeColor=none;fillColor=none;align=left;verticalAlign=top;spacingLeft=4;spacingRight=4;overflow=hidden;rotatable=0;points=[[0,0.5],[1,0.5]];portConstraint=eastwest;" vertex="1" parent="GeVHQDl4KtZDKLTdlYc9-309">
          <mxGeometry y="156" width="340" height="26" as="geometry" />
        </mxCell>
        <mxCell id="GeVHQDl4KtZDKLTdlYc9-316" value="- currentSquareNumber: int" style="text;strokeColor=none;fillColor=none;align=left;verticalAlign=top;spacingLeft=4;spacingRight=4;overflow=hidden;rotatable=0;points=[[0,0.5],[1,0.5]];portConstraint=eastwest;" vertex="1" parent="GeVHQDl4KtZDKLTdlYc9-309">
          <mxGeometry y="182" width="340" height="26" as="geometry" />
        </mxCell>
        <mxCell id="GeVHQDl4KtZDKLTdlYc9-317" value="- playersGUI: ArrayList&lt;PlayerGUI&gt; = new ArrayList()" style="text;strokeColor=none;fillColor=none;align=left;verticalAlign=top;spacingLeft=4;spacingRight=4;overflow=hidden;rotatable=0;points=[[0,0.5],[1,0.5]];portConstraint=eastwest;" vertex="1" parent="GeVHQDl4KtZDKLTdlYc9-309">
          <mxGeometry y="208" width="340" height="26" as="geometry" />
        </mxCell>
        <mxCell id="GeVHQDl4KtZDKLTdlYc9-318" value="- die1: DiceGUI" style="text;strokeColor=none;fillColor=none;align=left;verticalAlign=top;spacingLeft=4;spacingRight=4;overflow=hidden;rotatable=0;points=[[0,0.5],[1,0.5]];portConstraint=eastwest;" vertex="1" parent="GeVHQDl4KtZDKLTdlYc9-309">
          <mxGeometry y="234" width="340" height="26" as="geometry" />
        </mxCell>
        <mxCell id="GeVHQDl4KtZDKLTdlYc9-319" value="- die2: DiceGUI" style="text;strokeColor=none;fillColor=none;align=left;verticalAlign=top;spacingLeft=4;spacingRight=4;overflow=hidden;rotatable=0;points=[[0,0.5],[1,0.5]];portConstraint=eastwest;" vertex="1" parent="GeVHQDl4KtZDKLTdlYc9-309">
          <mxGeometry y="260" width="340" height="26" as="geometry" />
        </mxCell>
        <mxCell id="GeVHQDl4KtZDKLTdlYc9-320" value="- isDouble: Boolean = false" style="text;strokeColor=none;fillColor=none;align=left;verticalAlign=top;spacingLeft=4;spacingRight=4;overflow=hidden;rotatable=0;points=[[0,0.5],[1,0.5]];portConstraint=eastwest;" vertex="1" parent="GeVHQDl4KtZDKLTdlYc9-309">
          <mxGeometry y="286" width="340" height="26" as="geometry" />
        </mxCell>
        <mxCell id="GeVHQDl4KtZDKLTdlYc9-321" value="- doubles: int = 0" style="text;strokeColor=none;fillColor=none;align=left;verticalAlign=top;spacingLeft=4;spacingRight=4;overflow=hidden;rotatable=0;points=[[0,0.5],[1,0.5]];portConstraint=eastwest;" vertex="1" parent="GeVHQDl4KtZDKLTdlYc9-309">
          <mxGeometry y="312" width="340" height="26" as="geometry" />
        </mxCell>
        <mxCell id="GeVHQDl4KtZDKLTdlYc9-322" value="- boxPanel: JPanel" style="text;strokeColor=none;fillColor=none;align=left;verticalAlign=top;spacingLeft=4;spacingRight=4;overflow=hidden;rotatable=0;points=[[0,0.5],[1,0.5]];portConstraint=eastwest;" vertex="1" parent="GeVHQDl4KtZDKLTdlYc9-309">
          <mxGeometry y="338" width="340" height="26" as="geometry" />
        </mxCell>
        <mxCell id="GeVHQDl4KtZDKLTdlYc9-323" value="- leftLayeredPane: JLayeredPane" style="text;strokeColor=none;fillColor=none;align=left;verticalAlign=top;spacingLeft=4;spacingRight=4;overflow=hidden;rotatable=0;points=[[0,0.5],[1,0.5]];portConstraint=eastwest;" vertex="1" parent="GeVHQDl4KtZDKLTdlYc9-309">
          <mxGeometry y="364" width="340" height="26" as="geometry" />
        </mxCell>
        <mxCell id="GeVHQDl4KtZDKLTdlYc9-324" value="- rightLayeredPane: JLayeredPane" style="text;strokeColor=none;fillColor=none;align=left;verticalAlign=top;spacingLeft=4;spacingRight=4;overflow=hidden;rotatable=0;points=[[0,0.5],[1,0.5]];portConstraint=eastwest;" vertex="1" parent="GeVHQDl4KtZDKLTdlYc9-309">
          <mxGeometry y="390" width="340" height="26" as="geometry" />
        </mxCell>
        <mxCell id="GeVHQDl4KtZDKLTdlYc9-325" value="- playerAssetsPanel: JPanel " style="text;strokeColor=none;fillColor=none;align=left;verticalAlign=top;spacingLeft=4;spacingRight=4;overflow=hidden;rotatable=0;points=[[0,0.5],[1,0.5]];portConstraint=eastwest;" vertex="1" parent="GeVHQDl4KtZDKLTdlYc9-309">
          <mxGeometry y="416" width="340" height="26" as="geometry" />
        </mxCell>
        <mxCell id="GeVHQDl4KtZDKLTdlYc9-326" value="- panelPlayerTextAread: JTextArea" style="text;strokeColor=none;fillColor=none;align=left;verticalAlign=top;spacingLeft=4;spacingRight=4;overflow=hidden;rotatable=0;points=[[0,0.5],[1,0.5]];portConstraint=eastwest;" vertex="1" parent="GeVHQDl4KtZDKLTdlYc9-309">
          <mxGeometry y="442" width="340" height="26" as="geometry" />
        </mxCell>
        <mxCell id="GeVHQDl4KtZDKLTdlYc9-327" value="- cardLayout: CardLayout = new CardLayout()" style="text;strokeColor=none;fillColor=none;align=left;verticalAlign=top;spacingLeft=4;spacingRight=4;overflow=hidden;rotatable=0;points=[[0,0.5],[1,0.5]];portConstraint=eastwest;" vertex="1" parent="GeVHQDl4KtZDKLTdlYc9-309">
          <mxGeometry y="468" width="340" height="26" as="geometry" />
        </mxCell>
        <mxCell id="GeVHQDl4KtZDKLTdlYc9-328" value="- buttonNextTurn: JButton" style="text;strokeColor=none;fillColor=none;align=left;verticalAlign=top;spacingLeft=4;spacingRight=4;overflow=hidden;rotatable=0;points=[[0,0.5],[1,0.5]];portConstraint=eastwest;" vertex="1" parent="GeVHQDl4KtZDKLTdlYc9-309">
          <mxGeometry y="494" width="340" height="26" as="geometry" />
        </mxCell>
        <mxCell id="GeVHQDl4KtZDKLTdlYc9-329" value="- buttonPayRent: JButton" style="text;strokeColor=none;fillColor=none;align=left;verticalAlign=top;spacingLeft=4;spacingRight=4;overflow=hidden;rotatable=0;points=[[0,0.5],[1,0.5]];portConstraint=eastwest;" vertex="1" parent="GeVHQDl4KtZDKLTdlYc9-309">
          <mxGeometry y="520" width="340" height="26" as="geometry" />
        </mxCell>
        <mxCell id="GeVHQDl4KtZDKLTdlYc9-330" value="- buttonRollDice: JButton" style="text;strokeColor=none;fillColor=none;align=left;verticalAlign=top;spacingLeft=4;spacingRight=4;overflow=hidden;rotatable=0;points=[[0,0.5],[1,0.5]];portConstraint=eastwest;" vertex="1" parent="GeVHQDl4KtZDKLTdlYc9-309">
          <mxGeometry y="546" width="340" height="26" as="geometry" />
        </mxCell>
        <mxCell id="GeVHQDl4KtZDKLTdlYc9-331" value="- buttonBuy: JButton" style="text;strokeColor=none;fillColor=none;align=left;verticalAlign=top;spacingLeft=4;spacingRight=4;overflow=hidden;rotatable=0;points=[[0,0.5],[1,0.5]];portConstraint=eastwest;" vertex="1" parent="GeVHQDl4KtZDKLTdlYc9-309">
          <mxGeometry y="572" width="340" height="26" as="geometry" />
        </mxCell>
        <mxCell id="GeVHQDl4KtZDKLTdlYc9-332" value="- firstRoll: boolean = true" style="text;strokeColor=none;fillColor=none;align=left;verticalAlign=top;spacingLeft=4;spacingRight=4;overflow=hidden;rotatable=0;points=[[0,0.5],[1,0.5]];portConstraint=eastwest;" vertex="1" parent="GeVHQDl4KtZDKLTdlYc9-309">
          <mxGeometry y="598" width="340" height="26" as="geometry" />
        </mxCell>
        <mxCell id="GeVHQDl4KtZDKLTdlYc9-333" value="- playerTokenColors: Color[] " style="text;strokeColor=none;fillColor=none;align=left;verticalAlign=top;spacingLeft=4;spacingRight=4;overflow=hidden;rotatable=0;points=[[0,0.5],[1,0.5]];portConstraint=eastwest;" vertex="1" parent="GeVHQDl4KtZDKLTdlYc9-309">
          <mxGeometry y="624" width="340" height="26" as="geometry" />
        </mxCell>
        <mxCell id="GeVHQDl4KtZDKLTdlYc9-334" value="" style="line;strokeWidth=1;fillColor=none;align=left;verticalAlign=middle;spacingTop=-1;spacingLeft=3;spacingRight=3;rotatable=0;labelPosition=right;points=[];portConstraint=eastwest;" vertex="1" parent="GeVHQDl4KtZDKLTdlYc9-309">
          <mxGeometry y="650" width="340" height="8" as="geometry" />
        </mxCell>
        <mxCell id="GeVHQDl4KtZDKLTdlYc9-335" value="+ MonopolyGUI()" style="text;strokeColor=none;fillColor=none;align=left;verticalAlign=top;spacingLeft=4;spacingRight=4;overflow=hidden;rotatable=0;points=[[0,0.5],[1,0.5]];portConstraint=eastwest;fontStyle=0" vertex="1" parent="GeVHQDl4KtZDKLTdlYc9-309">
          <mxGeometry y="658" width="340" height="26" as="geometry" />
        </mxCell>
        <mxCell id="GeVHQDl4KtZDKLTdlYc9-336" value="- setupBoard(): void" style="text;strokeColor=none;fillColor=none;align=left;verticalAlign=top;spacingLeft=4;spacingRight=4;overflow=hidden;rotatable=0;points=[[0,0.5],[1,0.5]];portConstraint=eastwest;fontStyle=0" vertex="1" parent="GeVHQDl4KtZDKLTdlYc9-309">
          <mxGeometry y="684" width="340" height="26" as="geometry" />
        </mxCell>
        <mxCell id="GeVHQDl4KtZDKLTdlYc9-337" value="- setupDice(): void" style="text;strokeColor=none;fillColor=none;align=left;verticalAlign=top;spacingLeft=4;spacingRight=4;overflow=hidden;rotatable=0;points=[[0,0.5],[1,0.5]];portConstraint=eastwest;" vertex="1" parent="GeVHQDl4KtZDKLTdlYc9-309">
          <mxGeometry y="710" width="340" height="26" as="geometry" />
        </mxCell>
        <mxCell id="GeVHQDl4KtZDKLTdlYc9-338" value="- setupRollButton(): void" style="text;strokeColor=none;fillColor=none;align=left;verticalAlign=top;spacingLeft=4;spacingRight=4;overflow=hidden;rotatable=0;points=[[0,0.5],[1,0.5]];portConstraint=eastwest;" vertex="1" parent="GeVHQDl4KtZDKLTdlYc9-309">
          <mxGeometry y="736" width="340" height="26" as="geometry" />
        </mxCell>
        <mxCell id="GeVHQDl4KtZDKLTdlYc9-339" value="- setupButtons(): void" style="text;strokeColor=none;fillColor=none;align=left;verticalAlign=top;spacingLeft=4;spacingRight=4;overflow=hidden;rotatable=0;points=[[0,0.5],[1,0.5]];portConstraint=eastwest;" vertex="1" parent="GeVHQDl4KtZDKLTdlYc9-309">
          <mxGeometry y="762" width="340" height="26" as="geometry" />
        </mxCell>
        <mxCell id="GeVHQDl4KtZDKLTdlYc9-340" value="- setupPlayerToken(): void" style="text;strokeColor=none;fillColor=none;align=left;verticalAlign=top;spacingLeft=4;spacingRight=4;overflow=hidden;rotatable=0;points=[[0,0.5],[1,0.5]];portConstraint=eastwest;" vertex="1" parent="GeVHQDl4KtZDKLTdlYc9-309">
          <mxGeometry y="788" width="340" height="26" as="geometry" />
        </mxCell>
        <mxCell id="GeVHQDl4KtZDKLTdlYc9-341" value="- setupConsoleLog(): void" style="text;strokeColor=none;fillColor=none;align=left;verticalAlign=top;spacingLeft=4;spacingRight=4;overflow=hidden;rotatable=0;points=[[0,0.5],[1,0.5]];portConstraint=eastwest;" vertex="1" parent="GeVHQDl4KtZDKLTdlYc9-309">
          <mxGeometry y="814" width="340" height="26" as="geometry" />
        </mxCell>
        <mxCell id="GeVHQDl4KtZDKLTdlYc9-342" value="- initController(): void" style="text;strokeColor=none;fillColor=none;align=left;verticalAlign=top;spacingLeft=4;spacingRight=4;overflow=hidden;rotatable=0;points=[[0,0.5],[1,0.5]];portConstraint=eastwest;" vertex="1" parent="GeVHQDl4KtZDKLTdlYc9-309">
          <mxGeometry y="840" width="340" height="26" as="geometry" />
        </mxCell>
        <mxCell id="GeVHQDl4KtZDKLTdlYc9-343" value="- playerStatusPanel(playerNumber: int, color: Color): JPanel" style="text;strokeColor=none;fillColor=none;align=left;verticalAlign=top;spacingLeft=4;spacingRight=4;overflow=hidden;rotatable=0;points=[[0,0.5],[1,0.5]];portConstraint=eastwest;" vertex="1" parent="GeVHQDl4KtZDKLTdlYc9-309">
          <mxGeometry y="866" width="340" height="26" as="geometry" />
        </mxCell>
        <mxCell id="GeVHQDl4KtZDKLTdlYc9-344" value="- setupPlayerStatusWindow(): void" style="text;strokeColor=none;fillColor=none;align=left;verticalAlign=top;spacingLeft=4;spacingRight=4;overflow=hidden;rotatable=0;points=[[0,0.5],[1,0.5]];portConstraint=eastwest;" vertex="1" parent="GeVHQDl4KtZDKLTdlYc9-309">
          <mxGeometry y="892" width="340" height="26" as="geometry" />
        </mxCell>
        <mxCell id="GeVHQDl4KtZDKLTdlYc9-345" value="- updatePlayerStatusTextArea(): void" style="text;strokeColor=none;fillColor=none;align=left;verticalAlign=top;spacingLeft=4;spacingRight=4;overflow=hidden;rotatable=0;points=[[0,0.5],[1,0.5]];portConstraint=eastwest;" vertex="1" parent="GeVHQDl4KtZDKLTdlYc9-309">
          <mxGeometry y="918" width="340" height="26" as="geometry" />
        </mxCell>
        <mxCell id="GeVHQDl4KtZDKLTdlYc9-346" value="- updatePlayerList(): void" style="text;strokeColor=none;fillColor=none;align=left;verticalAlign=top;spacingLeft=4;spacingRight=4;overflow=hidden;rotatable=0;points=[[0,0.5],[1,0.5]];portConstraint=eastwest;" vertex="1" parent="GeVHQDl4KtZDKLTdlYc9-309">
          <mxGeometry y="944" width="340" height="26" as="geometry" />
        </mxCell>
        <mxCell id="GeVHQDl4KtZDKLTdlYc9-347" value="- isRollDouble(currentPlayerOrder: int): void" style="text;strokeColor=none;fillColor=none;align=left;verticalAlign=top;spacingLeft=4;spacingRight=4;overflow=hidden;rotatable=0;points=[[0,0.5],[1,0.5]];portConstraint=eastwest;" vertex="1" parent="GeVHQDl4KtZDKLTdlYc9-309">
          <mxGeometry y="970" width="340" height="26" as="geometry" />
        </mxCell>
        <mxCell id="GeVHQDl4KtZDKLTdlYc9-348" value="- buttonRollDice(): JButton" style="text;strokeColor=none;fillColor=none;align=left;verticalAlign=top;spacingLeft=4;spacingRight=4;overflow=hidden;rotatable=0;points=[[0,0.5],[1,0.5]];portConstraint=eastwest;" vertex="1" parent="GeVHQDl4KtZDKLTdlYc9-309">
          <mxGeometry y="996" width="340" height="26" as="geometry" />
        </mxCell>
        <mxCell id="GeVHQDl4KtZDKLTdlYc9-349" value="- buttonNextTurn(): JButton" style="text;strokeColor=none;fillColor=none;align=left;verticalAlign=top;spacingLeft=4;spacingRight=4;overflow=hidden;rotatable=0;points=[[0,0.5],[1,0.5]];portConstraint=eastwest;" vertex="1" parent="GeVHQDl4KtZDKLTdlYc9-309">
          <mxGeometry y="1022" width="340" height="26" as="geometry" />
        </mxCell>
        <mxCell id="GeVHQDl4KtZDKLTdlYc9-350" value="- buttonBuy(): JButton" style="text;strokeColor=none;fillColor=none;align=left;verticalAlign=top;spacingLeft=4;spacingRight=4;overflow=hidden;rotatable=0;points=[[0,0.5],[1,0.5]];portConstraint=eastwest;" vertex="1" parent="GeVHQDl4KtZDKLTdlYc9-309">
          <mxGeometry y="1048" width="340" height="26" as="geometry" />
        </mxCell>
        <mxCell id="GeVHQDl4KtZDKLTdlYc9-351" value="- buttonPayRent(): JButton" style="text;strokeColor=none;fillColor=none;align=left;verticalAlign=top;spacingLeft=4;spacingRight=4;overflow=hidden;rotatable=0;points=[[0,0.5],[1,0.5]];portConstraint=eastwest;" vertex="1" parent="GeVHQDl4KtZDKLTdlYc9-309">
          <mxGeometry y="1074" width="340" height="26" as="geometry" />
        </mxCell>
        <mxCell id="GeVHQDl4KtZDKLTdlYc9-352" value="+ main (args: String[]): void" style="text;strokeColor=none;fillColor=none;align=left;verticalAlign=top;spacingLeft=4;spacingRight=4;overflow=hidden;rotatable=0;points=[[0,0.5],[1,0.5]];portConstraint=eastwest;fontStyle=4" vertex="1" parent="GeVHQDl4KtZDKLTdlYc9-309">
          <mxGeometry y="1100" width="340" height="26" as="geometry" />
        </mxCell>
        <mxCell id="GeVHQDl4KtZDKLTdlYc9-353" value="PlayerGUI" style="swimlane;fontStyle=1;align=center;verticalAlign=top;childLayout=stackLayout;horizontal=1;startSize=26;horizontalStack=0;resizeParent=1;resizeParentMax=0;resizeLast=0;collapsible=1;marginBottom=0;" vertex="1" parent="1">
          <mxGeometry x="-3060" y="1560" width="370" height="372" as="geometry" />
        </mxCell>
        <mxCell id="GeVHQDl4KtZDKLTdlYc9-354" value="- player: Player" style="text;strokeColor=none;fillColor=none;align=left;verticalAlign=top;spacingLeft=4;spacingRight=4;overflow=hidden;rotatable=0;points=[[0,0.5],[1,0.5]];portConstraint=eastwest;" vertex="1" parent="GeVHQDl4KtZDKLTdlYc9-353">
          <mxGeometry y="26" width="370" height="26" as="geometry" />
        </mxCell>
        <mxCell id="GeVHQDl4KtZDKLTdlYc9-355" value="- playerNumber: int" style="text;strokeColor=none;fillColor=none;align=left;verticalAlign=top;spacingLeft=4;spacingRight=4;overflow=hidden;rotatable=0;points=[[0,0.5],[1,0.5]];portConstraint=eastwest;" vertex="1" parent="GeVHQDl4KtZDKLTdlYc9-353">
          <mxGeometry y="52" width="370" height="26" as="geometry" />
        </mxCell>
        <mxCell id="GeVHQDl4KtZDKLTdlYc9-356" value="- totalPlayers: int  = 0" style="text;strokeColor=none;fillColor=none;align=left;verticalAlign=top;spacingLeft=4;spacingRight=4;overflow=hidden;rotatable=0;points=[[0,0.5],[1,0.5]];portConstraint=eastwest;fontStyle=4" vertex="1" parent="GeVHQDl4KtZDKLTdlYc9-353">
          <mxGeometry y="78" width="370" height="26" as="geometry" />
        </mxCell>
        <mxCell id="GeVHQDl4KtZDKLTdlYc9-357" value="- currentSquareNumber: int = 0" style="text;strokeColor=none;fillColor=none;align=left;verticalAlign=top;spacingLeft=4;spacingRight=4;overflow=hidden;rotatable=0;points=[[0,0.5],[1,0.5]];portConstraint=eastwest;" vertex="1" parent="GeVHQDl4KtZDKLTdlYc9-353">
          <mxGeometry y="104" width="370" height="26" as="geometry" />
        </mxCell>
        <mxCell id="GeVHQDl4KtZDKLTdlYc9-358" value="- xLocationsOfPlayer: int[]" style="text;strokeColor=none;fillColor=none;align=left;verticalAlign=top;spacingLeft=4;spacingRight=4;overflow=hidden;rotatable=0;points=[[0,0.5],[1,0.5]];portConstraint=eastwest;" vertex="1" parent="GeVHQDl4KtZDKLTdlYc9-353">
          <mxGeometry y="130" width="370" height="26" as="geometry" />
        </mxCell>
        <mxCell id="GeVHQDl4KtZDKLTdlYc9-359" value="- yLocationsOfPlayer:int[]" style="text;strokeColor=none;fillColor=none;align=left;verticalAlign=top;spacingLeft=4;spacingRight=4;overflow=hidden;rotatable=0;points=[[0,0.5],[1,0.5]];portConstraint=eastwest;" vertex="1" parent="GeVHQDl4KtZDKLTdlYc9-353">
          <mxGeometry y="156" width="370" height="26" as="geometry" />
        </mxCell>
        <mxCell id="GeVHQDl4KtZDKLTdlYc9-360" value="" style="line;strokeWidth=1;fillColor=none;align=left;verticalAlign=middle;spacingTop=-1;spacingLeft=3;spacingRight=3;rotatable=0;labelPosition=right;points=[];portConstraint=eastwest;" vertex="1" parent="GeVHQDl4KtZDKLTdlYc9-353">
          <mxGeometry y="182" width="370" height="8" as="geometry" />
        </mxCell>
        <mxCell id="GeVHQDl4KtZDKLTdlYc9-361" value="+ PlayerGUI(color: Color, playerName: String)" style="text;strokeColor=none;fillColor=none;align=left;verticalAlign=top;spacingLeft=4;spacingRight=4;overflow=hidden;rotatable=0;points=[[0,0.5],[1,0.5]];portConstraint=eastwest;" vertex="1" parent="GeVHQDl4KtZDKLTdlYc9-353">
          <mxGeometry y="190" width="370" height="26" as="geometry" />
        </mxCell>
        <mxCell id="GeVHQDl4KtZDKLTdlYc9-362" value="+ move(diceValue: int): void" style="text;strokeColor=none;fillColor=none;align=left;verticalAlign=top;spacingLeft=4;spacingRight=4;overflow=hidden;rotatable=0;points=[[0,0.5],[1,0.5]];portConstraint=eastwest;" vertex="1" parent="GeVHQDl4KtZDKLTdlYc9-353">
          <mxGeometry y="216" width="370" height="26" as="geometry" />
        </mxCell>
        <mxCell id="GeVHQDl4KtZDKLTdlYc9-363" value="+ getProperties(): Collection&lt;Square&gt;" style="text;strokeColor=none;fillColor=none;align=left;verticalAlign=top;spacingLeft=4;spacingRight=4;overflow=hidden;rotatable=0;points=[[0,0.5],[1,0.5]];portConstraint=eastwest;" vertex="1" parent="GeVHQDl4KtZDKLTdlYc9-353">
          <mxGeometry y="242" width="370" height="26" as="geometry" />
        </mxCell>
        <mxCell id="GeVHQDl4KtZDKLTdlYc9-364" value="+ getPlayerMoney(): int" style="text;strokeColor=none;fillColor=none;align=left;verticalAlign=top;spacingLeft=4;spacingRight=4;overflow=hidden;rotatable=0;points=[[0,0.5],[1,0.5]];portConstraint=eastwest;" vertex="1" parent="GeVHQDl4KtZDKLTdlYc9-353">
          <mxGeometry y="268" width="370" height="26" as="geometry" />
        </mxCell>
        <mxCell id="GeVHQDl4KtZDKLTdlYc9-365" value="+ getPlayer(): Player" style="text;strokeColor=none;fillColor=none;align=left;verticalAlign=top;spacingLeft=4;spacingRight=4;overflow=hidden;rotatable=0;points=[[0,0.5],[1,0.5]];portConstraint=eastwest;" vertex="1" parent="GeVHQDl4KtZDKLTdlYc9-353">
          <mxGeometry y="294" width="370" height="26" as="geometry" />
        </mxCell>
        <mxCell id="GeVHQDl4KtZDKLTdlYc9-366" value="+ exchangeMoney(money: int): void" style="text;strokeColor=none;fillColor=none;align=left;verticalAlign=top;spacingLeft=4;spacingRight=4;overflow=hidden;rotatable=0;points=[[0,0.5],[1,0.5]];portConstraint=eastwest;" vertex="1" parent="GeVHQDl4KtZDKLTdlYc9-353">
          <mxGeometry y="320" width="370" height="26" as="geometry" />
        </mxCell>
        <mxCell id="GeVHQDl4KtZDKLTdlYc9-367" value="+ getCurrentSquareNumber(): int" style="text;strokeColor=none;fillColor=none;align=left;verticalAlign=top;spacingLeft=4;spacingRight=4;overflow=hidden;rotatable=0;points=[[0,0.5],[1,0.5]];portConstraint=eastwest;" vertex="1" parent="GeVHQDl4KtZDKLTdlYc9-353">
          <mxGeometry y="346" width="370" height="26" as="geometry" />
        </mxCell>
        <mxCell id="GeVHQDl4KtZDKLTdlYc9-368" value="GameBoardGUI" style="swimlane;fontStyle=1;align=center;verticalAlign=top;childLayout=stackLayout;horizontal=1;startSize=26;horizontalStack=0;resizeParent=1;resizeParentMax=0;resizeLast=0;collapsible=1;marginBottom=0;" vertex="1" parent="1">
          <mxGeometry x="-1760" y="2020" width="370" height="138" as="geometry" />
        </mxCell>
        <mxCell id="GeVHQDl4KtZDKLTdlYc9-369" value="- gameBoard: GameBoard" style="text;strokeColor=none;fillColor=none;align=left;verticalAlign=top;spacingLeft=4;spacingRight=4;overflow=hidden;rotatable=0;points=[[0,0.5],[1,0.5]];portConstraint=eastwest;" vertex="1" parent="GeVHQDl4KtZDKLTdlYc9-368">
          <mxGeometry y="26" width="370" height="26" as="geometry" />
        </mxCell>
        <mxCell id="GeVHQDl4KtZDKLTdlYc9-370" value="" style="line;strokeWidth=1;fillColor=none;align=left;verticalAlign=middle;spacingTop=-1;spacingLeft=3;spacingRight=3;rotatable=0;labelPosition=right;points=[];portConstraint=eastwest;" vertex="1" parent="GeVHQDl4KtZDKLTdlYc9-368">
          <mxGeometry y="52" width="370" height="8" as="geometry" />
        </mxCell>
        <mxCell id="GeVHQDl4KtZDKLTdlYc9-371" value="+ GameBoardGUI(x:i nt, y: int, width: int, height: int)" style="text;strokeColor=none;fillColor=none;align=left;verticalAlign=top;spacingLeft=4;spacingRight=4;overflow=hidden;rotatable=0;points=[[0,0.5],[1,0.5]];portConstraint=eastwest;" vertex="1" parent="GeVHQDl4KtZDKLTdlYc9-368">
          <mxGeometry y="60" width="370" height="26" as="geometry" />
        </mxCell>
        <mxCell id="GeVHQDl4KtZDKLTdlYc9-372" value="+ getSquare(squareNumber: int): Square" style="text;strokeColor=none;fillColor=none;align=left;verticalAlign=top;spacingLeft=4;spacingRight=4;overflow=hidden;rotatable=0;points=[[0,0.5],[1,0.5]];portConstraint=eastwest;" vertex="1" parent="GeVHQDl4KtZDKLTdlYc9-368">
          <mxGeometry y="86" width="370" height="26" as="geometry" />
        </mxCell>
        <mxCell id="GeVHQDl4KtZDKLTdlYc9-373" value="- initializeSquarePanels(): void" style="text;strokeColor=none;fillColor=none;align=left;verticalAlign=top;spacingLeft=4;spacingRight=4;overflow=hidden;rotatable=0;points=[[0,0.5],[1,0.5]];portConstraint=eastwest;" vertex="1" parent="GeVHQDl4KtZDKLTdlYc9-368">
          <mxGeometry y="112" width="370" height="26" as="geometry" />
        </mxCell>
        <mxCell id="GeVHQDl4KtZDKLTdlYc9-374" value="DiceGUI" style="swimlane;fontStyle=1;align=center;verticalAlign=top;childLayout=stackLayout;horizontal=1;startSize=26;horizontalStack=0;resizeParent=1;resizeParentMax=0;resizeLast=0;collapsible=1;marginBottom=0;" vertex="1" parent="1">
          <mxGeometry x="-2465" y="1225" width="370" height="190" as="geometry" />
        </mxCell>
        <mxCell id="GeVHQDl4KtZDKLTdlYc9-375" value="- rollDice: RollDice = new RollDice()" style="text;strokeColor=none;fillColor=none;align=left;verticalAlign=top;spacingLeft=4;spacingRight=4;overflow=hidden;rotatable=0;points=[[0,0.5],[1,0.5]];portConstraint=eastwest;" vertex="1" parent="GeVHQDl4KtZDKLTdlYc9-374">
          <mxGeometry y="26" width="370" height="26" as="geometry" />
        </mxCell>
        <mxCell id="GeVHQDl4KtZDKLTdlYc9-376" value="- faceValue: int" style="text;strokeColor=none;fillColor=none;align=left;verticalAlign=top;spacingLeft=4;spacingRight=4;overflow=hidden;rotatable=0;points=[[0,0.5],[1,0.5]];portConstraint=eastwest;" vertex="1" parent="GeVHQDl4KtZDKLTdlYc9-374">
          <mxGeometry y="52" width="370" height="26" as="geometry" />
        </mxCell>
        <mxCell id="GeVHQDl4KtZDKLTdlYc9-377" value="" style="line;strokeWidth=1;fillColor=none;align=left;verticalAlign=middle;spacingTop=-1;spacingLeft=3;spacingRight=3;rotatable=0;labelPosition=right;points=[];portConstraint=eastwest;" vertex="1" parent="GeVHQDl4KtZDKLTdlYc9-374">
          <mxGeometry y="78" width="370" height="8" as="geometry" />
        </mxCell>
        <mxCell id="GeVHQDl4KtZDKLTdlYc9-378" value="+ DiceGUI(x: int, y: int, width: int, height: int)" style="text;strokeColor=none;fillColor=none;align=left;verticalAlign=top;spacingLeft=4;spacingRight=4;overflow=hidden;rotatable=0;points=[[0,0.5],[1,0.5]];portConstraint=eastwest;" vertex="1" parent="GeVHQDl4KtZDKLTdlYc9-374">
          <mxGeometry y="86" width="370" height="26" as="geometry" />
        </mxCell>
        <mxCell id="GeVHQDl4KtZDKLTdlYc9-379" value="+ paintComponent(g: Graphics): void" style="text;strokeColor=none;fillColor=none;align=left;verticalAlign=top;spacingLeft=4;spacingRight=4;overflow=hidden;rotatable=0;points=[[0,0.5],[1,0.5]];portConstraint=eastwest;" vertex="1" parent="GeVHQDl4KtZDKLTdlYc9-374">
          <mxGeometry y="112" width="370" height="26" as="geometry" />
        </mxCell>
        <mxCell id="GeVHQDl4KtZDKLTdlYc9-380" value="+ rollDice(): void" style="text;strokeColor=none;fillColor=none;align=left;verticalAlign=top;spacingLeft=4;spacingRight=4;overflow=hidden;rotatable=0;points=[[0,0.5],[1,0.5]];portConstraint=eastwest;" vertex="1" parent="GeVHQDl4KtZDKLTdlYc9-374">
          <mxGeometry y="138" width="370" height="26" as="geometry" />
        </mxCell>
        <mxCell id="GeVHQDl4KtZDKLTdlYc9-381" value="+ getFaceValue(): int" style="text;strokeColor=none;fillColor=none;align=left;verticalAlign=top;spacingLeft=4;spacingRight=4;overflow=hidden;rotatable=0;points=[[0,0.5],[1,0.5]];portConstraint=eastwest;" vertex="1" parent="GeVHQDl4KtZDKLTdlYc9-374">
          <mxGeometry y="164" width="370" height="26" as="geometry" />
        </mxCell>
        <mxCell id="GeVHQDl4KtZDKLTdlYc9-382" value="MonopolyController" style="swimlane;fontStyle=1;align=center;verticalAlign=top;childLayout=stackLayout;horizontal=1;startSize=26;horizontalStack=0;resizeParent=1;resizeParentMax=0;resizeLast=0;collapsible=1;marginBottom=0;" vertex="1" parent="1">
          <mxGeometry x="-1760" y="1295" width="370" height="630" as="geometry" />
        </mxCell>
        <mxCell id="GeVHQDl4KtZDKLTdlYc9-383" value="- frame: JFrame" style="text;strokeColor=none;fillColor=none;align=left;verticalAlign=top;spacingLeft=4;spacingRight=4;overflow=hidden;rotatable=0;points=[[0,0.5],[1,0.5]];portConstraint=eastwest;" vertex="1" parent="GeVHQDl4KtZDKLTdlYc9-382">
          <mxGeometry y="26" width="370" height="24" as="geometry" />
        </mxCell>
        <mxCell id="GeVHQDl4KtZDKLTdlYc9-384" value="- playerInitPanel: Jpanel" style="text;strokeColor=none;fillColor=none;align=left;verticalAlign=top;spacingLeft=4;spacingRight=4;overflow=hidden;rotatable=0;points=[[0,0.5],[1,0.5]];portConstraint=eastwest;" vertex="1" parent="GeVHQDl4KtZDKLTdlYc9-382">
          <mxGeometry y="50" width="370" height="26" as="geometry" />
        </mxCell>
        <mxCell id="GeVHQDl4KtZDKLTdlYc9-385" value="- startPanel: JPanel" style="text;strokeColor=none;fillColor=none;align=left;verticalAlign=top;spacingLeft=4;spacingRight=4;overflow=hidden;rotatable=0;points=[[0,0.5],[1,0.5]];portConstraint=eastwest;" vertex="1" parent="GeVHQDl4KtZDKLTdlYc9-382">
          <mxGeometry y="76" width="370" height="26" as="geometry" />
        </mxCell>
        <mxCell id="GeVHQDl4KtZDKLTdlYc9-386" value="- monopolyPanel: JPanel" style="text;strokeColor=none;fillColor=none;align=left;verticalAlign=top;spacingLeft=4;spacingRight=4;overflow=hidden;rotatable=0;points=[[0,0.5],[1,0.5]];portConstraint=eastwest;" vertex="1" parent="GeVHQDl4KtZDKLTdlYc9-382">
          <mxGeometry y="102" width="370" height="26" as="geometry" />
        </mxCell>
        <mxCell id="GeVHQDl4KtZDKLTdlYc9-387" value="- switchPanels: JPanel" style="text;strokeColor=none;fillColor=none;align=left;verticalAlign=top;spacingLeft=4;spacingRight=4;overflow=hidden;rotatable=0;points=[[0,0.5],[1,0.5]];portConstraint=eastwest;" vertex="1" parent="GeVHQDl4KtZDKLTdlYc9-382">
          <mxGeometry y="128" width="370" height="26" as="geometry" />
        </mxCell>
        <mxCell id="GeVHQDl4KtZDKLTdlYc9-388" value="- playerList: LinkedList&lt;Player&gt;" style="text;strokeColor=none;fillColor=none;align=left;verticalAlign=top;spacingLeft=4;spacingRight=4;overflow=hidden;rotatable=0;points=[[0,0.5],[1,0.5]];portConstraint=eastwest;" vertex="1" parent="GeVHQDl4KtZDKLTdlYc9-382">
          <mxGeometry y="154" width="370" height="26" as="geometry" />
        </mxCell>
        <mxCell id="GeVHQDl4KtZDKLTdlYc9-389" value="- startButton: JButton&#xa;&#xa;" style="text;strokeColor=none;fillColor=none;align=left;verticalAlign=top;spacingLeft=4;spacingRight=4;overflow=hidden;rotatable=0;points=[[0,0.5],[1,0.5]];portConstraint=eastwest;" vertex="1" parent="GeVHQDl4KtZDKLTdlYc9-382">
          <mxGeometry y="180" width="370" height="26" as="geometry" />
        </mxCell>
        <mxCell id="GeVHQDl4KtZDKLTdlYc9-390" value="- playButton: JButton&#xa;&#xa;" style="text;strokeColor=none;fillColor=none;align=left;verticalAlign=top;spacingLeft=4;spacingRight=4;overflow=hidden;rotatable=0;points=[[0,0.5],[1,0.5]];portConstraint=eastwest;" vertex="1" parent="GeVHQDl4KtZDKLTdlYc9-382">
          <mxGeometry y="206" width="370" height="26" as="geometry" />
        </mxCell>
        <mxCell id="GeVHQDl4KtZDKLTdlYc9-391" value="- addPlayer: JButton" style="text;strokeColor=none;fillColor=none;align=left;verticalAlign=top;spacingLeft=4;spacingRight=4;overflow=hidden;rotatable=0;points=[[0,0.5],[1,0.5]];portConstraint=eastwest;" vertex="1" parent="GeVHQDl4KtZDKLTdlYc9-382">
          <mxGeometry y="232" width="370" height="26" as="geometry" />
        </mxCell>
        <mxCell id="GeVHQDl4KtZDKLTdlYc9-392" value="- addCPUPlayer: JButton" style="text;strokeColor=none;fillColor=none;align=left;verticalAlign=top;spacingLeft=4;spacingRight=4;overflow=hidden;rotatable=0;points=[[0,0.5],[1,0.5]];portConstraint=eastwest;" vertex="1" parent="GeVHQDl4KtZDKLTdlYc9-382">
          <mxGeometry y="258" width="370" height="26" as="geometry" />
        </mxCell>
        <mxCell id="GeVHQDl4KtZDKLTdlYc9-393" value="- playerNameInput: JTextField" style="text;strokeColor=none;fillColor=none;align=left;verticalAlign=top;spacingLeft=4;spacingRight=4;overflow=hidden;rotatable=0;points=[[0,0.5],[1,0.5]];portConstraint=eastwest;" vertex="1" parent="GeVHQDl4KtZDKLTdlYc9-382">
          <mxGeometry y="284" width="370" height="26" as="geometry" />
        </mxCell>
        <mxCell id="GeVHQDl4KtZDKLTdlYc9-394" value="- playerNameList: JPanel" style="text;strokeColor=none;fillColor=none;align=left;verticalAlign=top;spacingLeft=4;spacingRight=4;overflow=hidden;rotatable=0;points=[[0,0.5],[1,0.5]];portConstraint=eastwest;" vertex="1" parent="GeVHQDl4KtZDKLTdlYc9-382">
          <mxGeometry y="310" width="370" height="26" as="geometry" />
        </mxCell>
        <mxCell id="GeVHQDl4KtZDKLTdlYc9-395" value="- playerFont: Font" style="text;strokeColor=none;fillColor=none;align=left;verticalAlign=top;spacingLeft=4;spacingRight=4;overflow=hidden;rotatable=0;points=[[0,0.5],[1,0.5]];portConstraint=eastwest;" vertex="1" parent="GeVHQDl4KtZDKLTdlYc9-382">
          <mxGeometry y="336" width="370" height="26" as="geometry" />
        </mxCell>
        <mxCell id="GeVHQDl4KtZDKLTdlYc9-396" value="- playerTokenColors: Color[]" style="text;strokeColor=none;fillColor=none;align=left;verticalAlign=top;spacingLeft=4;spacingRight=4;overflow=hidden;rotatable=0;points=[[0,0.5],[1,0.5]];portConstraint=eastwest;" vertex="1" parent="GeVHQDl4KtZDKLTdlYc9-382">
          <mxGeometry y="362" width="370" height="26" as="geometry" />
        </mxCell>
        <mxCell id="GeVHQDl4KtZDKLTdlYc9-397" value="" style="line;strokeWidth=1;fillColor=none;align=left;verticalAlign=middle;spacingTop=-1;spacingLeft=3;spacingRight=3;rotatable=0;labelPosition=right;points=[];portConstraint=eastwest;" vertex="1" parent="GeVHQDl4KtZDKLTdlYc9-382">
          <mxGeometry y="388" width="370" height="8" as="geometry" />
        </mxCell>
        <mxCell id="GeVHQDl4KtZDKLTdlYc9-398" value="+ MonopolyController()" style="text;strokeColor=none;fillColor=none;align=left;verticalAlign=top;spacingLeft=4;spacingRight=4;overflow=hidden;rotatable=0;points=[[0,0.5],[1,0.5]];portConstraint=eastwest;" vertex="1" parent="GeVHQDl4KtZDKLTdlYc9-382">
          <mxGeometry y="396" width="370" height="26" as="geometry" />
        </mxCell>
        <mxCell id="GeVHQDl4KtZDKLTdlYc9-399" value="+ getSwitchPanels(): JPanel" style="text;strokeColor=none;fillColor=none;align=left;verticalAlign=top;spacingLeft=4;spacingRight=4;overflow=hidden;rotatable=0;points=[[0,0.5],[1,0.5]];portConstraint=eastwest;" vertex="1" parent="GeVHQDl4KtZDKLTdlYc9-382">
          <mxGeometry y="422" width="370" height="26" as="geometry" />
        </mxCell>
        <mxCell id="GeVHQDl4KtZDKLTdlYc9-400" value="+ getPlayerList(): LinkedList&lt;Player&gt;" style="text;strokeColor=none;fillColor=none;align=left;verticalAlign=top;spacingLeft=4;spacingRight=4;overflow=hidden;rotatable=0;points=[[0,0.5],[1,0.5]];portConstraint=eastwest;" vertex="1" parent="GeVHQDl4KtZDKLTdlYc9-382">
          <mxGeometry y="448" width="370" height="26" as="geometry" />
        </mxCell>
        <mxCell id="GeVHQDl4KtZDKLTdlYc9-401" value="+ setMonopolyPanel(monopolyPanel: JPanel): void" style="text;strokeColor=none;fillColor=none;align=left;verticalAlign=top;spacingLeft=4;spacingRight=4;overflow=hidden;rotatable=0;points=[[0,0.5],[1,0.5]];portConstraint=eastwest;" vertex="1" parent="GeVHQDl4KtZDKLTdlYc9-382">
          <mxGeometry y="474" width="370" height="26" as="geometry" />
        </mxCell>
        <mxCell id="GeVHQDl4KtZDKLTdlYc9-402" value="+ addPlayerButton(): JButton" style="text;strokeColor=none;fillColor=none;align=left;verticalAlign=top;spacingLeft=4;spacingRight=4;overflow=hidden;rotatable=0;points=[[0,0.5],[1,0.5]];portConstraint=eastwest;" vertex="1" parent="GeVHQDl4KtZDKLTdlYc9-382">
          <mxGeometry y="500" width="370" height="26" as="geometry" />
        </mxCell>
        <mxCell id="GeVHQDl4KtZDKLTdlYc9-403" value="+ addCPUPlayerButton(): JButton" style="text;strokeColor=none;fillColor=none;align=left;verticalAlign=top;spacingLeft=4;spacingRight=4;overflow=hidden;rotatable=0;points=[[0,0.5],[1,0.5]];portConstraint=eastwest;" vertex="1" parent="GeVHQDl4KtZDKLTdlYc9-382">
          <mxGeometry y="526" width="370" height="26" as="geometry" />
        </mxCell>
        <mxCell id="GeVHQDl4KtZDKLTdlYc9-404" value="+ startButton(): JButton" style="text;strokeColor=none;fillColor=none;align=left;verticalAlign=top;spacingLeft=4;spacingRight=4;overflow=hidden;rotatable=0;points=[[0,0.5],[1,0.5]];portConstraint=eastwest;" vertex="1" parent="GeVHQDl4KtZDKLTdlYc9-382">
          <mxGeometry y="552" width="370" height="26" as="geometry" />
        </mxCell>
        <mxCell id="GeVHQDl4KtZDKLTdlYc9-405" value="+ playButton():JButton" style="text;strokeColor=none;fillColor=none;align=left;verticalAlign=top;spacingLeft=4;spacingRight=4;overflow=hidden;rotatable=0;points=[[0,0.5],[1,0.5]];portConstraint=eastwest;" vertex="1" parent="GeVHQDl4KtZDKLTdlYc9-382">
          <mxGeometry y="578" width="370" height="26" as="geometry" />
        </mxCell>
        <mxCell id="GeVHQDl4KtZDKLTdlYc9-406" value="+ displayGUI():void" style="text;strokeColor=none;fillColor=none;align=left;verticalAlign=top;spacingLeft=4;spacingRight=4;overflow=hidden;rotatable=0;points=[[0,0.5],[1,0.5]];portConstraint=eastwest;" vertex="1" parent="GeVHQDl4KtZDKLTdlYc9-382">
          <mxGeometry y="604" width="370" height="26" as="geometry" />
        </mxCell>
        <mxCell id="GeVHQDl4KtZDKLTdlYc9-407" value="" style="endArrow=diamondThin;endFill=1;endSize=24;html=1;rounded=0;" edge="1" parent="1" source="GeVHQDl4KtZDKLTdlYc9-44" target="GeVHQDl4KtZDKLTdlYc9-353">
          <mxGeometry width="160" relative="1" as="geometry">
            <mxPoint x="-2840" y="1279" as="sourcePoint" />
            <mxPoint x="-2920" y="1349" as="targetPoint" />
          </mxGeometry>
        </mxCell>
        <mxCell id="GeVHQDl4KtZDKLTdlYc9-408" value="SquareGUI" style="swimlane;fontStyle=1;align=center;verticalAlign=top;childLayout=stackLayout;horizontal=1;startSize=26;horizontalStack=0;resizeParent=1;resizeParentMax=0;resizeLast=0;collapsible=1;marginBottom=0;" vertex="1" parent="1">
          <mxGeometry x="-1760" y="2240" width="370" height="210" as="geometry" />
        </mxCell>
        <mxCell id="GeVHQDl4KtZDKLTdlYc9-409" value="- squareName: String" style="text;strokeColor=none;fillColor=none;align=left;verticalAlign=top;spacingLeft=4;spacingRight=4;overflow=hidden;rotatable=0;points=[[0,0.5],[1,0.5]];portConstraint=eastwest;" vertex="1" parent="GeVHQDl4KtZDKLTdlYc9-408">
          <mxGeometry y="26" width="370" height="26" as="geometry" />
        </mxCell>
        <mxCell id="GeVHQDl4KtZDKLTdlYc9-410" value="- squareNum: int" style="text;strokeColor=none;fillColor=none;align=left;verticalAlign=top;spacingLeft=4;spacingRight=4;overflow=hidden;rotatable=0;points=[[0,0.5],[1,0.5]];portConstraint=eastwest;" vertex="1" parent="GeVHQDl4KtZDKLTdlYc9-408">
          <mxGeometry y="52" width="370" height="26" as="geometry" />
        </mxCell>
        <mxCell id="GeVHQDl4KtZDKLTdlYc9-411" value="- total: int = 0" style="text;strokeColor=none;fillColor=none;align=left;verticalAlign=top;spacingLeft=4;spacingRight=4;overflow=hidden;rotatable=0;points=[[0,0.5],[1,0.5]];portConstraint=eastwest;fontStyle=4" vertex="1" parent="GeVHQDl4KtZDKLTdlYc9-408">
          <mxGeometry y="78" width="370" height="26" as="geometry" />
        </mxCell>
        <mxCell id="GeVHQDl4KtZDKLTdlYc9-412" value="" style="line;strokeWidth=1;fillColor=none;align=left;verticalAlign=middle;spacingTop=-1;spacingLeft=3;spacingRight=3;rotatable=0;labelPosition=right;points=[];portConstraint=eastwest;" vertex="1" parent="GeVHQDl4KtZDKLTdlYc9-408">
          <mxGeometry y="104" width="370" height="8" as="geometry" />
        </mxCell>
        <mxCell id="GeVHQDl4KtZDKLTdlYc9-413" value="+ SquareGUI(x: int, y: int, width: int, height: int, squareName: &#xa;String, rotationDegree: int)" style="text;strokeColor=none;fillColor=none;align=left;verticalAlign=top;spacingLeft=4;spacingRight=4;overflow=hidden;rotatable=0;points=[[0,0.5],[1,0.5]];portConstraint=eastwest;" vertex="1" parent="GeVHQDl4KtZDKLTdlYc9-408">
          <mxGeometry y="112" width="370" height="46" as="geometry" />
        </mxCell>
        <mxCell id="GeVHQDl4KtZDKLTdlYc9-414" value="- rotation(degree: int): void" style="text;strokeColor=none;fillColor=none;align=left;verticalAlign=top;spacingLeft=4;spacingRight=4;overflow=hidden;rotatable=0;points=[[0,0.5],[1,0.5]];portConstraint=eastwest;" vertex="1" parent="GeVHQDl4KtZDKLTdlYc9-408">
          <mxGeometry y="158" width="370" height="26" as="geometry" />
        </mxCell>
        <mxCell id="GeVHQDl4KtZDKLTdlYc9-415" value="+ paintComponent(g: Graphics): void" style="text;strokeColor=none;fillColor=none;align=left;verticalAlign=top;spacingLeft=4;spacingRight=4;overflow=hidden;rotatable=0;points=[[0,0.5],[1,0.5]];portConstraint=eastwest;" vertex="1" parent="GeVHQDl4KtZDKLTdlYc9-408">
          <mxGeometry y="184" width="370" height="26" as="geometry" />
        </mxCell>
        <mxCell id="GeVHQDl4KtZDKLTdlYc9-416" value="" style="endArrow=diamondThin;endFill=1;endSize=24;html=1;rounded=0;" edge="1" parent="1" source="GeVHQDl4KtZDKLTdlYc9-408" target="GeVHQDl4KtZDKLTdlYc9-368">
          <mxGeometry width="160" relative="1" as="geometry">
            <mxPoint x="-1830" y="2309" as="sourcePoint" />
            <mxPoint x="-1650" y="2279" as="targetPoint" />
          </mxGeometry>
        </mxCell>
        <mxCell id="GeVHQDl4KtZDKLTdlYc9-417" value="" style="endArrow=diamondThin;endFill=1;endSize=24;html=1;rounded=0;" edge="1" parent="1" source="GeVHQDl4KtZDKLTdlYc9-374" target="GeVHQDl4KtZDKLTdlYc9-309">
          <mxGeometry width="160" relative="1" as="geometry">
            <mxPoint x="-1270" y="1800" as="sourcePoint" />
            <mxPoint x="-1110" y="1800" as="targetPoint" />
          </mxGeometry>
        </mxCell>
        <mxCell id="GeVHQDl4KtZDKLTdlYc9-418" value="" style="endArrow=diamondThin;endFill=1;endSize=24;html=1;rounded=0;" edge="1" parent="1" source="GeVHQDl4KtZDKLTdlYc9-36" target="GeVHQDl4KtZDKLTdlYc9-374">
          <mxGeometry width="160" relative="1" as="geometry">
            <mxPoint x="-2160" y="1271" as="sourcePoint" />
            <mxPoint x="-2160" y="1415" as="targetPoint" />
          </mxGeometry>
        </mxCell>
        <mxCell id="GeVHQDl4KtZDKLTdlYc9-419" value="" style="endArrow=diamondThin;endFill=1;endSize=24;html=1;rounded=0;" edge="1" parent="1" source="GeVHQDl4KtZDKLTdlYc9-368" target="GeVHQDl4KtZDKLTdlYc9-309">
          <mxGeometry width="160" relative="1" as="geometry">
            <mxPoint x="-2030" y="1619.9999999999995" as="sourcePoint" />
            <mxPoint x="-2030" y="1764" as="targetPoint" />
          </mxGeometry>
        </mxCell>
        <mxCell id="GeVHQDl4KtZDKLTdlYc9-420" value="JPanel" style="swimlane;fontStyle=1;align=center;verticalAlign=top;childLayout=stackLayout;horizontal=1;startSize=26;horizontalStack=0;resizeParent=1;resizeParentMax=0;resizeLast=0;collapsible=1;marginBottom=0;" vertex="1" parent="1">
          <mxGeometry x="-2010" y="1880" width="160" height="34" as="geometry" />
        </mxCell>
        <mxCell id="GeVHQDl4KtZDKLTdlYc9-421" value="" style="line;strokeWidth=1;fillColor=none;align=left;verticalAlign=middle;spacingTop=-1;spacingLeft=3;spacingRight=3;rotatable=0;labelPosition=right;points=[];portConstraint=eastwest;" vertex="1" parent="GeVHQDl4KtZDKLTdlYc9-420">
          <mxGeometry y="26" width="160" height="8" as="geometry" />
        </mxCell>
        <mxCell id="GeVHQDl4KtZDKLTdlYc9-422" value="" style="endArrow=block;dashed=1;endFill=0;endSize=12;html=1;rounded=0;" edge="1" parent="1" source="GeVHQDl4KtZDKLTdlYc9-408" target="GeVHQDl4KtZDKLTdlYc9-420">
          <mxGeometry width="160" relative="1" as="geometry">
            <mxPoint x="-1571.9178082191784" y="2388" as="sourcePoint" />
            <mxPoint x="-1508.1506849315065" y="2521" as="targetPoint" />
            <Array as="points">
              <mxPoint x="-1940" y="2350" />
            </Array>
          </mxGeometry>
        </mxCell>
        <mxCell id="GeVHQDl4KtZDKLTdlYc9-423" value="" style="endArrow=diamondThin;endFill=1;endSize=24;html=1;rounded=0;" edge="1" parent="1" source="GeVHQDl4KtZDKLTdlYc9-205" target="GeVHQDl4KtZDKLTdlYc9-368">
          <mxGeometry width="160" relative="1" as="geometry">
            <mxPoint x="-1605" y="2690" as="sourcePoint" />
            <mxPoint x="-1605" y="2388" as="targetPoint" />
            <Array as="points">
              <mxPoint x="-1240" y="2089" />
            </Array>
          </mxGeometry>
        </mxCell>
        <mxCell id="GeVHQDl4KtZDKLTdlYc9-424" value="" style="endArrow=none;dashed=1;html=1;rounded=0;" edge="1" parent="1" target="GeVHQDl4KtZDKLTdlYc9-353">
          <mxGeometry width="50" height="50" relative="1" as="geometry">
            <mxPoint x="-1930" y="1555" as="sourcePoint" />
            <mxPoint x="-990" y="2190" as="targetPoint" />
          </mxGeometry>
        </mxCell>
        <mxCell id="GeVHQDl4KtZDKLTdlYc9-425" value="" style="endArrow=block;dashed=1;endFill=0;endSize=12;html=1;rounded=0;" edge="1" parent="1" target="GeVHQDl4KtZDKLTdlYc9-420">
          <mxGeometry width="160" relative="1" as="geometry">
            <mxPoint x="-1930" y="1560" as="sourcePoint" />
            <mxPoint x="-1920" y="1990" as="targetPoint" />
          </mxGeometry>
        </mxCell>
        <mxCell id="GeVHQDl4KtZDKLTdlYc9-426" value="" style="endArrow=none;dashed=1;html=1;rounded=0;" edge="1" parent="1" target="GeVHQDl4KtZDKLTdlYc9-374">
          <mxGeometry width="50" height="50" relative="1" as="geometry">
            <mxPoint x="-1930" y="1560" as="sourcePoint" />
            <mxPoint x="-1420" y="1810" as="targetPoint" />
          </mxGeometry>
        </mxCell>
        <mxCell id="GeVHQDl4KtZDKLTdlYc9-427" value="" style="endArrow=none;dashed=1;html=1;rounded=0;" edge="1" parent="1" target="GeVHQDl4KtZDKLTdlYc9-382">
          <mxGeometry width="50" height="50" relative="1" as="geometry">
            <mxPoint x="-1930" y="1560" as="sourcePoint" />
            <mxPoint x="-1680" y="1690" as="targetPoint" />
          </mxGeometry>
        </mxCell>
        <mxCell id="GeVHQDl4KtZDKLTdlYc9-428" value="" style="endArrow=none;dashed=1;html=1;rounded=0;" edge="1" parent="1" target="GeVHQDl4KtZDKLTdlYc9-368">
          <mxGeometry width="50" height="50" relative="1" as="geometry">
            <mxPoint x="-1930" y="2030" as="sourcePoint" />
            <mxPoint x="-1720" y="2170" as="targetPoint" />
          </mxGeometry>
        </mxCell>
        <mxCell id="GeVHQDl4KtZDKLTdlYc9-429" value="" style="endArrow=none;dashed=1;html=1;rounded=0;" edge="1" parent="1" target="GeVHQDl4KtZDKLTdlYc9-309">
          <mxGeometry width="50" height="50" relative="1" as="geometry">
            <mxPoint x="-1930" y="2030" as="sourcePoint" />
            <mxPoint x="-1707.735849056604" y="2130" as="targetPoint" />
          </mxGeometry>
        </mxCell>
      </root>
    </mxGraphModel>
  </diagram>
  <diagram id="aCl2PfhepAoCzgriNQt6" name="SequenceUML_1">
    <mxGraphModel dx="1662" dy="794" grid="1" gridSize="10" guides="1" tooltips="1" connect="1" arrows="1" fold="1" page="1" pageScale="1" pageWidth="850" pageHeight="1100" math="0" shadow="0">
      <root>
        <mxCell id="rxmsOxaBLtxrxtSejazV-0" />
        <mxCell id="rxmsOxaBLtxrxtSejazV-1" parent="rxmsOxaBLtxrxtSejazV-0" />
        <mxCell id="6myznDwrt9S5MwrOW_mX-0" value="&lt;b&gt;SYSC 3110 - Milestone 2&lt;/b&gt;&lt;br&gt;&lt;b&gt;Group 17&lt;/b&gt;&lt;br&gt;&lt;b&gt;Members:&lt;/b&gt;&lt;br&gt;Trong Nguyen 100848232 &lt;br&gt;&lt;span style=&quot;background-color: rgb(255 , 255 , 0)&quot;&gt;Francisco De Grano 101147447&lt;/span&gt; &lt;br&gt;Ibrahim Almalki 101142978 &lt;br&gt;Elisha Catherasoo 101148507&lt;br&gt;&lt;b&gt;Date: &lt;/b&gt;Nov. 8, 2021" style="text;html=1;strokeColor=none;fillColor=none;align=left;verticalAlign=middle;whiteSpace=wrap;rounded=0;" vertex="1" parent="rxmsOxaBLtxrxtSejazV-1">
          <mxGeometry x="40" y="860" width="200" height="130" as="geometry" />
        </mxCell>
        <mxCell id="6myznDwrt9S5MwrOW_mX-1" value="&lt;b&gt;Milestone 2&lt;br&gt;monopoly17.Monopoly Project&lt;br&gt;Sequence UML Diagram&lt;br&gt;Creating Players&lt;br&gt;&lt;/b&gt;" style="text;html=1;align=center;verticalAlign=middle;resizable=0;points=[];autosize=1;strokeColor=none;fillColor=none;" vertex="1" parent="rxmsOxaBLtxrxtSejazV-1">
          <mxGeometry x="350" y="40" width="150" height="60" as="geometry" />
        </mxCell>
        <mxCell id="6myznDwrt9S5MwrOW_mX-2" value="&lt;b&gt;&lt;u&gt;:monopoly17.MonopolyGUI&lt;/u&gt;&lt;/b&gt;" style="html=1;align=center;" vertex="1" parent="rxmsOxaBLtxrxtSejazV-1">
          <mxGeometry x="150" y="120" width="110" height="50" as="geometry" />
        </mxCell>
        <mxCell id="6myznDwrt9S5MwrOW_mX-3" value="" style="endArrow=none;dashed=1;html=1;rounded=0;" edge="1" parent="rxmsOxaBLtxrxtSejazV-1" source="6myznDwrt9S5MwrOW_mX-5" target="6myznDwrt9S5MwrOW_mX-2">
          <mxGeometry width="50" height="50" relative="1" as="geometry">
            <mxPoint x="205" y="210" as="sourcePoint" />
            <mxPoint x="205" y="170" as="targetPoint" />
          </mxGeometry>
        </mxCell>
        <mxCell id="6myznDwrt9S5MwrOW_mX-4" value="" style="endArrow=none;dashed=1;html=1;rounded=0;" edge="1" parent="rxmsOxaBLtxrxtSejazV-1" target="6myznDwrt9S5MwrOW_mX-5">
          <mxGeometry width="50" height="50" relative="1" as="geometry">
            <mxPoint x="204.90000000000032" y="830" as="sourcePoint" />
            <mxPoint x="204.89999999999998" y="740" as="targetPoint" />
          </mxGeometry>
        </mxCell>
        <mxCell id="6myznDwrt9S5MwrOW_mX-5" value="" style="rounded=0;whiteSpace=wrap;html=1;align=left;" vertex="1" parent="rxmsOxaBLtxrxtSejazV-1">
          <mxGeometry x="195" y="210" width="20" height="450" as="geometry" />
        </mxCell>
        <mxCell id="6myznDwrt9S5MwrOW_mX-6" value="&amp;lt;&amp;lt;create&amp;gt;&amp;gt;" style="html=1;verticalAlign=bottom;startArrow=oval;startFill=1;endArrow=block;startSize=8;rounded=0;" edge="1" parent="rxmsOxaBLtxrxtSejazV-1">
          <mxGeometry width="60" relative="1" as="geometry">
            <mxPoint x="120" y="219.5" as="sourcePoint" />
            <mxPoint x="195" y="219.5" as="targetPoint" />
          </mxGeometry>
        </mxCell>
        <mxCell id="6myznDwrt9S5MwrOW_mX-7" value="&lt;b&gt;&lt;u&gt;:monopoly17.Dice&lt;/u&gt;&lt;/b&gt;" style="html=1;align=center;" vertex="1" parent="rxmsOxaBLtxrxtSejazV-1">
          <mxGeometry x="310" y="120" width="110" height="50" as="geometry" />
        </mxCell>
        <mxCell id="6myznDwrt9S5MwrOW_mX-8" value="" style="endArrow=none;dashed=1;html=1;rounded=0;" edge="1" parent="rxmsOxaBLtxrxtSejazV-1" source="6myznDwrt9S5MwrOW_mX-19" target="6myznDwrt9S5MwrOW_mX-7">
          <mxGeometry width="50" height="50" relative="1" as="geometry">
            <mxPoint x="365" y="210" as="sourcePoint" />
            <mxPoint x="365" y="170" as="targetPoint" />
          </mxGeometry>
        </mxCell>
        <mxCell id="6myznDwrt9S5MwrOW_mX-9" value="&lt;b&gt;&lt;u&gt;:monopoly17.Monopoly&lt;/u&gt;&lt;/b&gt;" style="html=1;align=center;" vertex="1" parent="rxmsOxaBLtxrxtSejazV-1">
          <mxGeometry x="310" y="120" width="110" height="50" as="geometry" />
        </mxCell>
        <mxCell id="6myznDwrt9S5MwrOW_mX-10" value="" style="endArrow=none;dashed=1;html=1;rounded=0;startArrow=none;" edge="1" parent="rxmsOxaBLtxrxtSejazV-1" source="6myznDwrt9S5MwrOW_mX-19" target="6myznDwrt9S5MwrOW_mX-9">
          <mxGeometry width="50" height="50" relative="1" as="geometry">
            <mxPoint x="365" y="830" as="sourcePoint" />
            <mxPoint x="365" y="170" as="targetPoint" />
          </mxGeometry>
        </mxCell>
        <mxCell id="6myznDwrt9S5MwrOW_mX-11" value="&lt;b&gt;&lt;u&gt;:input&lt;/u&gt;&lt;/b&gt;" style="html=1;align=center;" vertex="1" parent="rxmsOxaBLtxrxtSejazV-1">
          <mxGeometry x="780" y="120" width="110" height="50" as="geometry" />
        </mxCell>
        <mxCell id="6myznDwrt9S5MwrOW_mX-12" value="" style="endArrow=none;dashed=1;html=1;rounded=0;startArrow=none;entryX=0.5;entryY=1;entryDx=0;entryDy=0;" edge="1" parent="rxmsOxaBLtxrxtSejazV-1" target="6myznDwrt9S5MwrOW_mX-13">
          <mxGeometry width="50" height="50" relative="1" as="geometry">
            <mxPoint x="695" y="830" as="sourcePoint" />
            <mxPoint x="695" y="200" as="targetPoint" />
          </mxGeometry>
        </mxCell>
        <mxCell id="6myznDwrt9S5MwrOW_mX-13" value="&lt;b&gt;&lt;u&gt;:monopoly17.HumanPlayer&lt;/u&gt;&lt;/b&gt;" style="html=1;align=center;" vertex="1" parent="rxmsOxaBLtxrxtSejazV-1">
          <mxGeometry x="640" y="120" width="110" height="50" as="geometry" />
        </mxCell>
        <mxCell id="6myznDwrt9S5MwrOW_mX-14" value="" style="endArrow=none;dashed=1;html=1;rounded=0;startArrow=none;" edge="1" parent="rxmsOxaBLtxrxtSejazV-1" source="6myznDwrt9S5MwrOW_mX-30">
          <mxGeometry width="50" height="50" relative="1" as="geometry">
            <mxPoint x="835" y="790" as="sourcePoint" />
            <mxPoint x="835" y="170" as="targetPoint" />
          </mxGeometry>
        </mxCell>
        <mxCell id="6myznDwrt9S5MwrOW_mX-15" value="" style="endArrow=none;dashed=1;html=1;rounded=0;startArrow=none;" edge="1" parent="rxmsOxaBLtxrxtSejazV-1" target="6myznDwrt9S5MwrOW_mX-16">
          <mxGeometry width="50" height="50" relative="1" as="geometry">
            <mxPoint x="525" y="830" as="sourcePoint" />
            <mxPoint x="525" y="480" as="targetPoint" />
          </mxGeometry>
        </mxCell>
        <mxCell id="6myznDwrt9S5MwrOW_mX-16" value="" style="rounded=0;whiteSpace=wrap;html=1;align=left;" vertex="1" parent="rxmsOxaBLtxrxtSejazV-1">
          <mxGeometry x="515" y="290" width="20" height="70" as="geometry" />
        </mxCell>
        <mxCell id="6myznDwrt9S5MwrOW_mX-17" value="&lt;b&gt;&lt;u&gt;:Gameboard&lt;/u&gt;&lt;/b&gt;" style="html=1;align=center;" vertex="1" parent="rxmsOxaBLtxrxtSejazV-1">
          <mxGeometry x="470" y="120" width="110" height="50" as="geometry" />
        </mxCell>
        <mxCell id="6myznDwrt9S5MwrOW_mX-18" value="" style="endArrow=none;dashed=1;html=1;rounded=0;" edge="1" parent="rxmsOxaBLtxrxtSejazV-1" source="6myznDwrt9S5MwrOW_mX-16" target="6myznDwrt9S5MwrOW_mX-17">
          <mxGeometry width="50" height="50" relative="1" as="geometry">
            <mxPoint x="525.0000000000002" y="230" as="sourcePoint" />
            <mxPoint x="525" y="170" as="targetPoint" />
          </mxGeometry>
        </mxCell>
        <mxCell id="6myznDwrt9S5MwrOW_mX-19" value="" style="rounded=0;whiteSpace=wrap;html=1;align=left;" vertex="1" parent="rxmsOxaBLtxrxtSejazV-1">
          <mxGeometry x="355" y="210" width="20" height="150" as="geometry" />
        </mxCell>
        <mxCell id="6myznDwrt9S5MwrOW_mX-20" value="" style="endArrow=none;dashed=1;html=1;rounded=0;" edge="1" parent="rxmsOxaBLtxrxtSejazV-1" target="6myznDwrt9S5MwrOW_mX-19">
          <mxGeometry width="50" height="50" relative="1" as="geometry">
            <mxPoint x="365" y="830" as="sourcePoint" />
            <mxPoint x="365" y="170" as="targetPoint" />
          </mxGeometry>
        </mxCell>
        <mxCell id="6myznDwrt9S5MwrOW_mX-21" value="" style="html=1;verticalAlign=bottom;endArrow=open;dashed=1;endSize=8;rounded=0;entryX=1;entryY=0.88;entryDx=0;entryDy=0;entryPerimeter=0;exitX=0;exitY=0.75;exitDx=0;exitDy=0;" edge="1" parent="rxmsOxaBLtxrxtSejazV-1" source="6myznDwrt9S5MwrOW_mX-16" target="6myznDwrt9S5MwrOW_mX-19">
          <mxGeometry relative="1" as="geometry">
            <mxPoint x="470" y="341" as="sourcePoint" />
            <mxPoint x="515" y="341" as="targetPoint" />
          </mxGeometry>
        </mxCell>
        <mxCell id="6myznDwrt9S5MwrOW_mX-22" value="Actor" style="shape=umlActor;verticalLabelPosition=bottom;verticalAlign=top;html=1;outlineConnect=0;" vertex="1" parent="rxmsOxaBLtxrxtSejazV-1">
          <mxGeometry x="80" y="190" width="30" height="60" as="geometry" />
        </mxCell>
        <mxCell id="6myznDwrt9S5MwrOW_mX-23" value="&lt;b&gt;&lt;u&gt;:monopoly17.Player&lt;/u&gt;&lt;/b&gt;" style="html=1;align=center;" vertex="1" parent="rxmsOxaBLtxrxtSejazV-1">
          <mxGeometry x="950" y="120" width="110" height="50" as="geometry" />
        </mxCell>
        <mxCell id="6myznDwrt9S5MwrOW_mX-24" value="" style="endArrow=none;dashed=1;html=1;rounded=0;startArrow=none;" edge="1" parent="rxmsOxaBLtxrxtSejazV-1" source="6myznDwrt9S5MwrOW_mX-37">
          <mxGeometry width="50" height="50" relative="1" as="geometry">
            <mxPoint x="1004.5" y="790" as="sourcePoint" />
            <mxPoint x="1004.5" y="170" as="targetPoint" />
          </mxGeometry>
        </mxCell>
        <mxCell id="6myznDwrt9S5MwrOW_mX-25" value="&amp;lt;&amp;lt;create&amp;gt;&amp;gt;" style="html=1;verticalAlign=bottom;endArrow=block;rounded=0;" edge="1" parent="rxmsOxaBLtxrxtSejazV-1">
          <mxGeometry x="0.5862" width="80" relative="1" as="geometry">
            <mxPoint x="215" y="220" as="sourcePoint" />
            <mxPoint x="360" y="220" as="targetPoint" />
            <mxPoint as="offset" />
          </mxGeometry>
        </mxCell>
        <mxCell id="6myznDwrt9S5MwrOW_mX-26" value="&amp;lt;&amp;lt;create&amp;gt;&amp;gt;" style="html=1;verticalAlign=bottom;endArrow=block;rounded=0;" edge="1" parent="rxmsOxaBLtxrxtSejazV-1">
          <mxGeometry x="0.5862" width="80" relative="1" as="geometry">
            <mxPoint x="380" y="290" as="sourcePoint" />
            <mxPoint x="515" y="290" as="targetPoint" />
            <mxPoint as="offset" />
          </mxGeometry>
        </mxCell>
        <mxCell id="6myznDwrt9S5MwrOW_mX-27" value="" style="rounded=0;whiteSpace=wrap;html=1;align=left;" vertex="1" parent="rxmsOxaBLtxrxtSejazV-1">
          <mxGeometry x="685" y="370" width="20" height="70" as="geometry" />
        </mxCell>
        <mxCell id="6myznDwrt9S5MwrOW_mX-28" value="&amp;lt;&amp;lt;create&amp;gt;&amp;gt;" style="html=1;verticalAlign=bottom;endArrow=block;rounded=0;entryX=0;entryY=0.171;entryDx=0;entryDy=0;entryPerimeter=0;" edge="1" parent="rxmsOxaBLtxrxtSejazV-1" target="6myznDwrt9S5MwrOW_mX-27">
          <mxGeometry x="0.5862" width="80" relative="1" as="geometry">
            <mxPoint x="215" y="380" as="sourcePoint" />
            <mxPoint x="350" y="380" as="targetPoint" />
            <mxPoint as="offset" />
          </mxGeometry>
        </mxCell>
        <mxCell id="6myznDwrt9S5MwrOW_mX-29" value="" style="html=1;verticalAlign=bottom;endArrow=open;dashed=1;endSize=8;rounded=0;entryX=1;entryY=0.88;entryDx=0;entryDy=0;entryPerimeter=0;exitX=0.1;exitY=0.857;exitDx=0;exitDy=0;exitPerimeter=0;" edge="1" parent="rxmsOxaBLtxrxtSejazV-1" source="6myznDwrt9S5MwrOW_mX-27">
          <mxGeometry relative="1" as="geometry">
            <mxPoint x="355" y="430.5" as="sourcePoint" />
            <mxPoint x="215" y="430" as="targetPoint" />
          </mxGeometry>
        </mxCell>
        <mxCell id="6myznDwrt9S5MwrOW_mX-30" value="" style="rounded=0;whiteSpace=wrap;html=1;align=left;" vertex="1" parent="rxmsOxaBLtxrxtSejazV-1">
          <mxGeometry x="825" y="375" width="20" height="60" as="geometry" />
        </mxCell>
        <mxCell id="6myznDwrt9S5MwrOW_mX-31" value="" style="endArrow=none;dashed=1;html=1;rounded=0;startArrow=none;" edge="1" parent="rxmsOxaBLtxrxtSejazV-1" source="6myznDwrt9S5MwrOW_mX-39" target="6myznDwrt9S5MwrOW_mX-30">
          <mxGeometry width="50" height="50" relative="1" as="geometry">
            <mxPoint x="835" y="790" as="sourcePoint" />
            <mxPoint x="835" y="170" as="targetPoint" />
          </mxGeometry>
        </mxCell>
        <mxCell id="6myznDwrt9S5MwrOW_mX-32" value="" style="rounded=0;whiteSpace=wrap;html=1;align=left;" vertex="1" parent="rxmsOxaBLtxrxtSejazV-1">
          <mxGeometry x="202" y="455" width="20" height="150" as="geometry" />
        </mxCell>
        <mxCell id="6myznDwrt9S5MwrOW_mX-33" value="init" style="html=1;verticalAlign=bottom;endArrow=block;rounded=0;entryX=1;entryY=0.16;entryDx=0;entryDy=0;entryPerimeter=0;" edge="1" parent="rxmsOxaBLtxrxtSejazV-1" target="6myznDwrt9S5MwrOW_mX-32">
          <mxGeometry y="10" width="80" relative="1" as="geometry">
            <mxPoint x="222" y="460" as="sourcePoint" />
            <mxPoint x="310" y="570" as="targetPoint" />
            <mxPoint as="offset" />
            <Array as="points">
              <mxPoint x="290" y="460" />
              <mxPoint x="290" y="480" />
            </Array>
          </mxGeometry>
        </mxCell>
        <mxCell id="6myznDwrt9S5MwrOW_mX-34" value="&amp;lt;&amp;lt;create&amp;gt;&amp;gt;" style="html=1;verticalAlign=bottom;endArrow=block;rounded=0;entryX=0;entryY=0.25;entryDx=0;entryDy=0;" edge="1" parent="rxmsOxaBLtxrxtSejazV-1" target="6myznDwrt9S5MwrOW_mX-30">
          <mxGeometry x="0.5862" width="80" relative="1" as="geometry">
            <mxPoint x="710" y="390" as="sourcePoint" />
            <mxPoint x="810" y="392" as="targetPoint" />
            <mxPoint as="offset" />
          </mxGeometry>
        </mxCell>
        <mxCell id="6myznDwrt9S5MwrOW_mX-35" value="" style="html=1;verticalAlign=bottom;endArrow=open;dashed=1;endSize=8;rounded=0;entryX=1;entryY=0.88;entryDx=0;entryDy=0;entryPerimeter=0;" edge="1" parent="rxmsOxaBLtxrxtSejazV-1">
          <mxGeometry relative="1" as="geometry">
            <mxPoint x="820" y="420" as="sourcePoint" />
            <mxPoint x="705" y="420.01" as="targetPoint" />
          </mxGeometry>
        </mxCell>
        <mxCell id="6myznDwrt9S5MwrOW_mX-36" value="name" style="html=1;verticalAlign=bottom;endArrow=block;rounded=0;entryX=0;entryY=0.15;entryDx=0;entryDy=0;entryPerimeter=0;exitX=0.95;exitY=0.3;exitDx=0;exitDy=0;exitPerimeter=0;" edge="1" parent="rxmsOxaBLtxrxtSejazV-1" source="6myznDwrt9S5MwrOW_mX-32" target="6myznDwrt9S5MwrOW_mX-37">
          <mxGeometry x="0.8837" width="80" relative="1" as="geometry">
            <mxPoint x="222" y="500" as="sourcePoint" />
            <mxPoint x="990" y="502" as="targetPoint" />
            <mxPoint as="offset" />
          </mxGeometry>
        </mxCell>
        <mxCell id="6myznDwrt9S5MwrOW_mX-37" value="" style="rounded=0;whiteSpace=wrap;html=1;align=left;" vertex="1" parent="rxmsOxaBLtxrxtSejazV-1">
          <mxGeometry x="995" y="490" width="20" height="80" as="geometry" />
        </mxCell>
        <mxCell id="6myznDwrt9S5MwrOW_mX-38" value="" style="endArrow=none;dashed=1;html=1;rounded=0;startArrow=none;" edge="1" parent="rxmsOxaBLtxrxtSejazV-1" target="6myznDwrt9S5MwrOW_mX-37">
          <mxGeometry width="50" height="50" relative="1" as="geometry">
            <mxPoint x="1005" y="830" as="sourcePoint" />
            <mxPoint x="1004.5" y="170" as="targetPoint" />
          </mxGeometry>
        </mxCell>
        <mxCell id="6myznDwrt9S5MwrOW_mX-39" value="" style="rounded=0;whiteSpace=wrap;html=1;align=left;" vertex="1" parent="rxmsOxaBLtxrxtSejazV-1">
          <mxGeometry x="825" y="510" width="20" height="30" as="geometry" />
        </mxCell>
        <mxCell id="6myznDwrt9S5MwrOW_mX-40" value="" style="endArrow=none;dashed=1;html=1;rounded=0;startArrow=none;" edge="1" parent="rxmsOxaBLtxrxtSejazV-1" target="6myznDwrt9S5MwrOW_mX-39">
          <mxGeometry width="50" height="50" relative="1" as="geometry">
            <mxPoint x="835" y="830" as="sourcePoint" />
            <mxPoint x="835" y="435" as="targetPoint" />
          </mxGeometry>
        </mxCell>
        <mxCell id="6myznDwrt9S5MwrOW_mX-41" value="" style="html=1;verticalAlign=bottom;endArrow=open;dashed=1;endSize=8;rounded=0;entryX=1;entryY=0.88;entryDx=0;entryDy=0;entryPerimeter=0;exitX=-0.1;exitY=0.363;exitDx=0;exitDy=0;exitPerimeter=0;" edge="1" parent="rxmsOxaBLtxrxtSejazV-1" source="6myznDwrt9S5MwrOW_mX-37">
          <mxGeometry relative="1" as="geometry">
            <mxPoint x="960" y="519.5" as="sourcePoint" />
            <mxPoint x="845" y="519.51" as="targetPoint" />
          </mxGeometry>
        </mxCell>
        <mxCell id="6myznDwrt9S5MwrOW_mX-42" value="name" style="edgeLabel;html=1;align=center;verticalAlign=middle;resizable=0;points=[];" vertex="1" connectable="0" parent="6myznDwrt9S5MwrOW_mX-41">
          <mxGeometry x="-0.5467" relative="1" as="geometry">
            <mxPoint x="-11" y="-10" as="offset" />
          </mxGeometry>
        </mxCell>
        <mxCell id="6myznDwrt9S5MwrOW_mX-43" value="" style="html=1;verticalAlign=bottom;endArrow=open;dashed=1;endSize=8;rounded=0;exitX=1;exitY=0.75;exitDx=0;exitDy=0;" edge="1" parent="rxmsOxaBLtxrxtSejazV-1" source="6myznDwrt9S5MwrOW_mX-39">
          <mxGeometry relative="1" as="geometry">
            <mxPoint x="830" y="430" as="sourcePoint" />
            <mxPoint x="1000" y="533" as="targetPoint" />
          </mxGeometry>
        </mxCell>
        <mxCell id="6myznDwrt9S5MwrOW_mX-44" value="" style="html=1;verticalAlign=bottom;endArrow=open;dashed=1;endSize=8;rounded=0;entryX=1.1;entryY=0.687;entryDx=0;entryDy=0;entryPerimeter=0;exitX=0;exitY=0.5;exitDx=0;exitDy=0;" edge="1" parent="rxmsOxaBLtxrxtSejazV-1" target="6myznDwrt9S5MwrOW_mX-32">
          <mxGeometry relative="1" as="geometry">
            <mxPoint x="995" y="560.49" as="sourcePoint" />
            <mxPoint x="845" y="560" as="targetPoint" />
          </mxGeometry>
        </mxCell>
      </root>
    </mxGraphModel>
  </diagram>
  <diagram id="nqQwR1G_O-damUS2qEFa" name="SequenceUML_2">
    <mxGraphModel dx="1662" dy="794" grid="1" gridSize="10" guides="1" tooltips="1" connect="1" arrows="1" fold="1" page="1" pageScale="1" pageWidth="850" pageHeight="1100" math="0" shadow="0">
      <root>
        <mxCell id="8h66g8HM1MnHvWjtbLla-0" />
        <mxCell id="8h66g8HM1MnHvWjtbLla-1" parent="8h66g8HM1MnHvWjtbLla-0" />
      </root>
    </mxGraphModel>
  </diagram>
  <diagram id="OuOcKb9J3_UBaFIk70MF" name="SequenceUML_3">
    <mxGraphModel dx="1662" dy="794" grid="1" gridSize="10" guides="1" tooltips="1" connect="1" arrows="1" fold="1" page="1" pageScale="1" pageWidth="850" pageHeight="1100" math="0" shadow="0">
      <root>
        <mxCell id="XoTp_NYm-UW9hQ6vacLY-0" />
        <mxCell id="XoTp_NYm-UW9hQ6vacLY-1" parent="XoTp_NYm-UW9hQ6vacLY-0" />
      </root>
    </mxGraphModel>
  </diagram>
  <diagram id="76gIeLsiYfJ-oZ0_Orbj" name="SequenceUML_4">
    <mxGraphModel dx="1662" dy="794" grid="1" gridSize="10" guides="1" tooltips="1" connect="1" arrows="1" fold="1" page="1" pageScale="1" pageWidth="850" pageHeight="1100" math="0" shadow="0">
      <root>
        <mxCell id="z3q-jZ6_0OuSyZHaoCK8-0" />
        <mxCell id="z3q-jZ6_0OuSyZHaoCK8-1" parent="z3q-jZ6_0OuSyZHaoCK8-0" />
      </root>
    </mxGraphModel>
  </diagram>
</mxfile>
